SplineFontDB: 3.0
FontName: Ruda-Black
FullName: Ruda Black
FamilyName: Ruda
Weight: Black
Copyright: Copyright (c) 2011, Mariela Monsalve (marmonsalve@gmail.com), Copyright (c) 2011, Angelina Sanchez (ange_dg@yahoo.com.ar), With Reserved Font Name "Ruda"
Version: 1.002
ItalicAngle: 0
UnderlinePosition: -50
UnderlineWidth: 50
Ascent: 800
Descent: 200
sfntRevision: 0x00010083
LayerCount: 2
Layer: 0 1 "Back"  1
Layer: 1 1 "Fore"  0
XUID: [1021 810 1051231774 12238365]
FSType: 0
OS2Version: 2
OS2_WeightWidthSlopeOnly: 0
OS2_UseTypoMetrics: 1
CreationTime: 1325880213
ModificationTime: 1325881674
PfmFamily: 17
TTFWeight: 900
TTFWidth: 5
LineGap: 0
VLineGap: 0
Panose: 2 0 0 0 0 0 0 0 0 0
OS2TypoAscent: 122
OS2TypoAOffset: 1
OS2TypoDescent: -95
OS2TypoDOffset: 1
OS2TypoLinegap: 0
OS2WinAscent: 0
OS2WinAOffset: 1
OS2WinDescent: 0
OS2WinDOffset: 1
HheadAscent: 0
HheadAOffset: 1
HheadDescent: 0
HheadDOffset: 1
OS2SubXSize: 700
OS2SubYSize: 650
OS2SubXOff: 0
OS2SubYOff: 140
OS2SupXSize: 700
OS2SupYSize: 650
OS2SupXOff: 0
OS2SupYOff: 477
OS2StrikeYSize: 50
OS2StrikeYPos: 250
OS2Vendor: 'pyrs'
OS2CodePages: 00000001.00000000
OS2UnicodeRanges: 00000023.00000000.00000000.00000000
Lookup: 258 0 0 "'kern' Horizontal Kerning in Latin lookup 0"  {"'kern' Horizontal Kerning in Latin lookup 0 subtable"  } ['kern' ('DFLT' <'dflt' > 'latn' <'dflt' > ) ]
DEI: 91125
TtTable: prep
PUSHW_1
 511
SCANCTRL
PUSHB_1
 4
SCANTYPE
EndTTInstrs
ShortTable: maxp 16
  1
  0
  245
  64
  5
  0
  0
  2
  0
  1
  1
  0
  64
  0
  0
  0
EndShort
LangName: 1033 "" "" "" "MarielaMonsalve,AngelinaSanchez: Ruda Black: 2011" "" "Version 1.002" "" "Ruda is a trademark of Mariela Monsalve and Angelina Sanchez" "Mariela Monsalve, Angelina Sanchez" "Mariela Monsalve, Angelina Sanchez" "" "www.angelinasanchez.com.ar" "www.mukamonsalve.com.ar" "This Font Software is licensed under the SIL Open Font License, Version 1.1. This license is available with a FAQ at: http://scripts.sil.org/OFL" "http://scripts.sil.org/OFL" 

StartChar: exclam
Encoding: 33 33 5
Width: 293
GlyphClass: 2
Flags: W
LayerCount: 2
Fore
SplineSet
213 203 m 1,0,-1
 79 203 l 1,1,-1
 63 703 l 1,2,-1
 231 703 l 1,3,-1
 213 203 l 1,0,-1
60 0 m 1,4,-1
 60 134 l 1,5,-1
 235 134 l 1,6,-1
 235 0 l 1,7,-1
 60 0 l 1,4,-1
EndSplineSet
EndChar

StartChar: quotedbl
Encoding: 34 34 6
Width: 409
GlyphClass: 2
Flags: W
LayerCount: 2
Fore
SplineSet
34 731 m 1,0,-1
 159 731 l 1,1,-1
 159 680 l 1,2,-1
 140 448 l 1,3,-1
 51 448 l 1,4,-1
 34 680 l 1,5,-1
 34 731 l 1,0,-1
250 731 m 1,6,-1
 375 731 l 1,7,-1
 375 680 l 1,8,-1
 356 448 l 1,9,-1
 267 448 l 1,10,-1
 250 680 l 1,11,-1
 250 731 l 1,6,-1
EndSplineSet
EndChar

StartChar: numbersign
Encoding: 35 35 7
Width: 592
GlyphClass: 2
Flags: W
LayerCount: 2
Fore
SplineSet
3 164 m 1,0,-1
 3 296 l 1,1,-1
 102 296 l 1,2,-1
 118 400 l 1,3,-1
 38 400 l 1,4,-1
 38 532 l 1,5,-1
 138 532 l 1,6,-1
 164 695 l 1,7,-1
 294 695 l 1,8,-1
 268 532 l 1,9,-1
 368 532 l 1,10,-1
 394 695 l 1,11,-1
 524 695 l 1,12,-1
 498 532 l 1,13,-1
 577 532 l 1,14,-1
 577 400 l 1,15,-1
 478 400 l 1,16,-1
 461 296 l 1,17,-1
 542 296 l 1,18,-1
 542 164 l 1,19,-1
 440 164 l 1,20,-1
 415 0 l 1,21,-1
 286 0 l 1,22,-1
 311 164 l 1,23,-1
 210 164 l 1,24,-1
 185 0 l 1,25,-1
 56 0 l 1,26,-1
 81 164 l 1,27,-1
 3 164 l 1,0,-1
248 400 m 1,28,-1
 231 296 l 1,29,-1
 332 296 l 1,30,-1
 348 400 l 1,31,-1
 248 400 l 1,28,-1
EndSplineSet
EndChar

StartChar: dollar
Encoding: 36 36 8
Width: 544
GlyphClass: 2
Flags: W
LayerCount: 2
Fore
SplineSet
326 -116 m 1,0,-1
 202 -116 l 1,1,-1
 202 -9 l 1,2,3
 156 -3 156 -3 109 11.5 c 128,-1,4
 62 26 62 26 14 49 c 1,5,6
 16 57 16 57 20 70 c 0,7,8
 27 88 27 88 53 174 c 1,9,10
 176 125 176 125 279 125 c 0,11,12
 308 125 308 125 329 138 c 128,-1,13
 350 151 350 151 350 192 c 128,-1,14
 350 233 350 233 320.5 255 c 128,-1,15
 291 277 291 277 236.5 299 c 128,-1,16
 182 321 182 321 153.5 336 c 128,-1,17
 125 351 125 351 93 376 c 0,18,19
 29 428 29 428 29 519 c 0,20,21
 29 590 29 590 73.5 641.5 c 128,-1,22
 118 693 118 693 202 709 c 1,23,-1
 202 803 l 1,24,-1
 326 803 l 1,25,-1
 326 713 l 1,26,27
 399 707 399 707 485 683 c 1,28,-1
 460 555 l 1,29,30
 340 578 340 578 259 578 c 0,31,32
 226 578 226 578 208 565.5 c 128,-1,33
 190 553 190 553 190 525.5 c 128,-1,34
 190 498 190 498 207.5 480.5 c 128,-1,35
 225 463 225 463 245 453.5 c 128,-1,36
 265 444 265 444 310.5 425 c 128,-1,37
 356 406 356 406 383 392 c 128,-1,38
 410 378 410 378 444 352 c 0,39,40
 510 300 510 300 510 211 c 128,-1,41
 510 122 510 122 460 66.5 c 128,-1,42
 410 11 410 11 326 -6 c 1,43,-1
 326 -116 l 1,0,-1
EndSplineSet
EndChar

StartChar: percent
Encoding: 37 37 9
Width: 823
GlyphClass: 2
Flags: W
LayerCount: 2
Fore
SplineSet
280 -9 m 1,0,-1
 142 -9 l 1,1,-1
 369 406 l 1,2,-1
 526 733 l 1,3,-1
 663 733 l 1,4,-1
 458 343 l 1,5,-1
 280 -9 l 1,0,-1
80 688.5 m 128,-1,7
 129 730 129 730 200.5 730 c 128,-1,8
 272 730 272 730 321.5 688.5 c 128,-1,9
 371 647 371 647 371 560.5 c 128,-1,10
 371 474 371 474 321.5 432 c 128,-1,11
 272 390 272 390 201 390 c 128,-1,12
 130 390 130 390 80.5 432 c 128,-1,13
 31 474 31 474 31 560.5 c 128,-1,6
 31 647 31 647 80 688.5 c 128,-1,7
501 285.5 m 128,-1,15
 550 327 550 327 621.5 327 c 128,-1,16
 693 327 693 327 742.5 285.5 c 128,-1,17
 792 244 792 244 792 157.5 c 128,-1,18
 792 71 792 71 742.5 29 c 128,-1,19
 693 -13 693 -13 622 -13 c 128,-1,20
 551 -13 551 -13 501.5 29 c 128,-1,21
 452 71 452 71 452 157.5 c 128,-1,14
 452 244 452 244 501 285.5 c 128,-1,15
201 614 m 128,-1,23
 149 614 149 614 149 560 c 128,-1,24
 149 506 149 506 201 506 c 128,-1,25
 253 506 253 506 253 560 c 128,-1,22
 253 614 253 614 201 614 c 128,-1,23
622 211 m 128,-1,27
 570 211 570 211 570 157 c 128,-1,28
 570 103 570 103 622 103 c 128,-1,29
 674 103 674 103 674 157 c 128,-1,26
 674 211 674 211 622 211 c 128,-1,27
EndSplineSet
EndChar

StartChar: ampersand
Encoding: 38 38 10
Width: 702
GlyphClass: 2
Flags: W
LayerCount: 2
Fore
SplineSet
499 78 m 1,0,1
 397 -13 397 -13 276.5 -13 c 128,-1,2
 156 -13 156 -13 86.5 52 c 128,-1,3
 17 117 17 117 17 201 c 0,4,5
 17 322 17 322 145 387 c 1,6,7
 68 449 68 449 68 530.5 c 128,-1,8
 68 612 68 612 127 664 c 128,-1,9
 186 716 186 716 292 716 c 128,-1,10
 398 716 398 716 453 663.5 c 128,-1,11
 508 611 508 611 508 537 c 0,12,13
 508 443 508 443 411 380 c 1,14,15
 459 346 459 346 508 297 c 1,16,17
 535 345 535 345 560 408 c 1,18,-1
 693 371 l 1,19,20
 657 280 657 280 598 192 c 1,21,22
 658 104 658 104 697 -8 c 1,23,-1
 543 -13 l 1,24,25
 531 22 531 22 499 78 c 1,0,1
204 131.5 m 128,-1,27
 230 106 230 106 272 106 c 128,-1,28
 314 106 314 106 355.5 128.5 c 128,-1,29
 397 151 397 151 429 187 c 1,30,31
 360 268 360 268 282 315 c 1,32,33
 235 297 235 297 206.5 266.5 c 128,-1,34
 178 236 178 236 178 196.5 c 128,-1,26
 178 157 178 157 204 131.5 c 128,-1,27
287 601 m 0,35,36
 225 601 225 601 225 538 c 0,37,38
 225 481 225 481 287 449 c 1,39,40
 350 481 350 481 350 539 c 0,41,42
 350 566 350 566 334.5 583.5 c 128,-1,43
 319 601 319 601 287 601 c 0,35,36
EndSplineSet
EndChar

StartChar: quotesingle
Encoding: 39 39 11
Width: 213
GlyphClass: 2
Flags: W
LayerCount: 2
Fore
SplineSet
44 735 m 1,0,-1
 169 735 l 1,1,-1
 169 684 l 1,2,-1
 150 452 l 1,3,-1
 61 452 l 1,4,-1
 44 684 l 1,5,-1
 44 735 l 1,0,-1
EndSplineSet
EndChar

StartChar: parenleft
Encoding: 40 40 12
Width: 349
GlyphClass: 2
Flags: W
LayerCount: 2
Fore
SplineSet
239.5 581 m 128,-1,1
 205 482 205 482 205 344.5 c 128,-1,2
 205 207 205 207 239 109 c 128,-1,3
 273 11 273 11 340 -36 c 1,4,-1
 274 -124 l 1,5,6
 175 -70 175 -70 111 44.5 c 128,-1,7
 47 159 47 159 47 344 c 0,8,9
 47 688 47 688 274 813 c 1,10,-1
 340 725 l 1,11,0
 274 680 274 680 239.5 581 c 128,-1,1
EndSplineSet
EndChar

StartChar: parenright
Encoding: 41 41 13
Width: 349
GlyphClass: 2
Flags: W
LayerCount: 2
Fore
SplineSet
302 344 m 0,0,1
 302 159 302 159 238 44.5 c 128,-1,2
 174 -70 174 -70 75 -124 c 1,3,-1
 9 -36 l 1,4,5
 76 11 76 11 110 109 c 128,-1,6
 144 207 144 207 144 344.5 c 128,-1,7
 144 482 144 482 109.5 581 c 128,-1,8
 75 680 75 680 9 725 c 1,9,-1
 75 813 l 1,10,11
 302 688 302 688 302 344 c 0,0,1
EndSplineSet
EndChar

StartChar: asterisk
Encoding: 42 42 14
Width: 416
GlyphClass: 2
Flags: W
LayerCount: 2
Fore
SplineSet
146 725 m 1,0,-1
 270 725 l 1,1,-1
 270 704 l 1,2,-1
 251 604 l 1,3,-1
 344 651 l 1,4,-1
 365 657 l 1,5,-1
 402 539 l 1,6,-1
 381 533 l 1,7,-1
 270 520 l 1,8,-1
 360 443 l 1,9,-1
 375 428 l 1,10,-1
 280 347 l 1,11,-1
 267 364 l 1,12,-1
 207 466 l 1,13,-1
 145 363 l 1,14,-1
 132 346 l 1,15,-1
 41 427 l 1,16,-1
 55 442 l 1,17,-1
 142 520 l 1,18,-1
 34 533 l 1,19,-1
 14 539 l 1,20,-1
 50 658 l 1,21,-1
 72 651 l 1,22,-1
 165 604 l 1,23,-1
 146 704 l 1,24,-1
 146 725 l 1,0,-1
EndSplineSet
EndChar

StartChar: plus
Encoding: 43 43 15
Width: 630
GlyphClass: 2
Flags: W
LayerCount: 2
Fore
SplineSet
30 227 m 1,0,-1
 30 359 l 1,1,-1
 247 359 l 1,2,-1
 247 578 l 1,3,-1
 381 578 l 1,4,-1
 381 359 l 1,5,-1
 600 359 l 1,6,-1
 600 227 l 1,7,-1
 381 227 l 1,8,-1
 381 4 l 1,9,-1
 247 4 l 1,10,-1
 247 227 l 1,11,-1
 30 227 l 1,0,-1
EndSplineSet
EndChar

StartChar: comma
Encoding: 44 44 16
Width: 299
GlyphClass: 2
Flags: W
LayerCount: 2
Fore
SplineSet
76 -1 m 2,0,-1
 76 132 l 1,1,-1
 226 132 l 1,2,-1
 226 41 l 2,3,4
 226 -108 226 -108 134 -175 c 1,5,-1
 44 -131 l 1,6,7
 76 -84 76 -84 76 -1 c 2,0,-1
EndSplineSet
EndChar

StartChar: hyphen
Encoding: 45 45 17
Width: 306
GlyphClass: 2
Flags: W
LayerCount: 2
Fore
SplineSet
24 261 m 1,0,-1
 24 393 l 1,1,-1
 282 393 l 1,2,-1
 282 261 l 1,3,-1
 24 261 l 1,0,-1
EndSplineSet
EndChar

StartChar: period
Encoding: 46 46 18
Width: 283
GlyphClass: 2
Flags: W
LayerCount: 2
Fore
SplineSet
54 0 m 1,0,-1
 54 137 l 1,1,-1
 229 137 l 1,2,-1
 229 0 l 1,3,-1
 54 0 l 1,0,-1
EndSplineSet
EndChar

StartChar: slash
Encoding: 47 47 19
Width: 490
GlyphClass: 2
Flags: W
LayerCount: 2
Fore
SplineSet
127 -98 m 1,0,-1
 -18 -98 l 1,1,-1
 183 333 l 1,2,-1
 344 703 l 1,3,-1
 490 703 l 1,4,-1
 294 281 l 1,5,-1
 127 -98 l 1,0,-1
EndSplineSet
EndChar

StartChar: zero
Encoding: 48 48 20
Width: 614
GlyphClass: 2
Flags: W
LayerCount: 2
Fore
SplineSet
393.5 -3.5 m 128,-1,1
 355 -13 355 -13 300.5 -13 c 128,-1,2
 246 -13 246 -13 200.5 3 c 128,-1,3
 155 19 155 19 116.5 58 c 128,-1,4
 78 97 78 97 58 171 c 128,-1,5
 38 245 38 245 38 352 c 128,-1,6
 38 459 38 459 58 532.5 c 128,-1,7
 78 606 78 606 116.5 645 c 128,-1,8
 155 684 155 684 200.5 700 c 128,-1,9
 246 716 246 716 300.5 716 c 128,-1,10
 355 716 355 716 393.5 706.5 c 128,-1,11
 432 697 432 697 467 672.5 c 128,-1,12
 502 648 502 648 526 608 c 0,13,14
 576 522 576 522 576 352 c 0,15,16
 576 107 576 107 467 30 c 0,17,0
 432 6 432 6 393.5 -3.5 c 128,-1,1
211.5 499 m 128,-1,19
 198 447 198 447 198 332.5 c 128,-1,20
 198 218 198 218 224 168 c 128,-1,21
 250 118 250 118 308 118 c 128,-1,22
 366 118 366 118 391.5 167 c 128,-1,23
 417 216 417 216 417 352.5 c 128,-1,24
 417 489 417 489 390.5 537 c 128,-1,25
 364 585 364 585 307 585 c 0,26,27
 269 585 269 585 247 568 c 128,-1,18
 225 551 225 551 211.5 499 c 128,-1,19
EndSplineSet
EndChar

StartChar: one
Encoding: 49 49 21
Width: 554
GlyphClass: 2
Flags: W
LayerCount: 2
Fore
SplineSet
63 0 m 1,0,-1
 63 134 l 1,1,-1
 236 133 l 1,2,-1
 242 535 l 1,3,-1
 236 535 l 1,4,-1
 120 418 l 1,5,-1
 21 521 l 1,6,-1
 244 711 l 1,7,-1
 393 701 l 1,8,-1
 393 132 l 1,9,-1
 545 134 l 1,10,-1
 545 0 l 1,11,-1
 63 0 l 1,0,-1
EndSplineSet
EndChar

StartChar: two
Encoding: 50 50 22
Width: 586
GlyphClass: 2
Flags: W
LayerCount: 2
Fore
SplineSet
294 716 m 0,0,1
 398 716 398 716 463.5 666 c 128,-1,2
 529 616 529 616 529 529 c 0,3,4
 529 471 529 471 493.5 412 c 128,-1,5
 458 353 458 353 408 294 c 0,6,7
 323 192 323 192 265 134 c 1,8,-1
 265 128 l 1,9,-1
 544 134 l 1,10,-1
 544 0 l 1,11,-1
 40 0 l 1,12,-1
 40 113 l 1,13,14
 114 185 114 185 209 291 c 128,-1,15
 304 397 304 397 338 446.5 c 128,-1,16
 372 496 372 496 372 534 c 0,17,18
 372 578 372 578 312 578 c 0,19,20
 271 578 271 578 209 555.5 c 128,-1,21
 147 533 147 533 91 499 c 1,22,-1
 29 615 l 1,23,24
 72 650 72 650 146 683 c 128,-1,25
 220 716 220 716 294 716 c 0,0,1
EndSplineSet
EndChar

StartChar: three
Encoding: 51 51 23
Width: 546
GlyphClass: 2
Flags: W
LayerCount: 2
Fore
SplineSet
268 123 m 0,0,1
 310 123 310 123 326.5 141 c 128,-1,2
 343 159 343 159 343 208 c 128,-1,3
 343 257 343 257 318 280.5 c 128,-1,4
 293 304 293 304 238 304 c 2,5,-1
 106 304 l 1,6,-1
 106 434 l 1,7,8
 252 444 252 444 284 456 c 1,9,10
 323 476 323 476 324 515.5 c 128,-1,11
 325 555 325 555 310.5 568 c 128,-1,12
 296 581 296 581 235.5 581 c 128,-1,13
 175 581 175 581 49 566 c 1,14,-1
 31 691 l 1,15,16
 123 716 123 716 228 716 c 0,17,18
 484 716 484 716 484 526 c 0,19,20
 484 427 484 427 409 382 c 1,21,-1
 409 376 l 1,22,23
 506 330 506 330 506 208 c 0,24,25
 506 110 506 110 445 48.5 c 128,-1,26
 384 -13 384 -13 254 -13 c 0,27,28
 193 -13 193 -13 128 4.5 c 128,-1,29
 63 22 63 22 28 40 c 2,30,-1
 -6 58 l 1,31,-1
 41 170 l 1,32,33
 182 123 182 123 268 123 c 0,0,1
EndSplineSet
EndChar

StartChar: four
Encoding: 52 52 24
Width: 578
GlyphClass: 2
Flags: W
LayerCount: 2
Fore
SplineSet
485 517 m 1,0,-1
 485 273 l 1,1,-1
 551 275 l 1,2,-1
 551 140 l 1,3,-1
 485 140 l 1,4,-1
 486 0 l 1,5,-1
 331 0 l 1,6,-1
 331 140 l 1,7,-1
 7 140 l 1,8,-1
 7 240 l 1,9,-1
 179 717 l 1,10,-1
 328 698 l 1,11,-1
 172 269 l 1,12,-1
 172 263 l 1,13,-1
 332 269 l 1,14,-1
 366 517 l 1,15,-1
 485 517 l 1,0,-1
EndSplineSet
EndChar

StartChar: five
Encoding: 53 53 25
Width: 552
GlyphClass: 2
Flags: W
LayerCount: 2
Fore
SplineSet
486 703 m 1,0,-1
 486 573 l 1,1,-1
 247 577 l 1,2,-1
 227 444 l 1,3,4
 444 431 444 431 496 325 c 0,5,6
 517 282 517 282 517 221 c 0,7,8
 517 111 517 111 450 49 c 128,-1,9
 383 -13 383 -13 266 -13 c 0,10,11
 203 -13 203 -13 138 6.5 c 128,-1,12
 73 26 73 26 39 46 c 2,13,-1
 5 66 l 1,14,-1
 51 180 l 1,15,16
 195 123 195 123 280 123 c 0,17,18
 315 123 315 123 335.5 138 c 128,-1,19
 356 153 356 153 356 214 c 128,-1,20
 356 275 356 275 334 292 c 0,21,22
 305 316 305 316 174 316 c 1,23,-1
 56 314 l 1,24,-1
 117 703 l 1,25,-1
 486 703 l 1,0,-1
EndSplineSet
EndChar

StartChar: six
Encoding: 54 54 26
Width: 592
GlyphClass: 2
Flags: W
LayerCount: 2
Fore
SplineSet
487 49.5 m 128,-1,1
 420 -13 420 -13 296 -13 c 128,-1,2
 172 -13 172 -13 105 68 c 128,-1,3
 38 149 38 149 38 335 c 0,4,5
 38 557 38 557 128 642 c 1,6,7
 172 682 172 682 223 699 c 128,-1,8
 274 716 274 716 328 716 c 0,9,10
 427 716 427 716 499 690 c 2,11,-1
 524 681 l 1,12,-1
 490 559 l 1,13,14
 386 582 386 582 327 582 c 128,-1,15
 268 582 268 582 245 562 c 1,16,17
 213 536 213 536 203 444 c 1,18,19
 250 447 250 447 276 447 c 0,20,21
 411 447 411 447 482.5 395.5 c 128,-1,22
 554 344 554 344 554 228 c 128,-1,0
 554 112 554 112 487 49.5 c 128,-1,1
231 136 m 1,23,24
 253 118 253 118 306.5 118 c 128,-1,25
 360 118 360 118 380 141 c 128,-1,26
 400 164 400 164 400 220 c 128,-1,27
 400 276 400 276 379 296 c 128,-1,28
 358 316 358 316 297 316 c 1,29,-1
 199 309 l 1,30,-1
 199 259 l 2,31,32
 199 159 199 159 231 136 c 1,23,24
EndSplineSet
EndChar

StartChar: seven
Encoding: 55 55 27
Width: 511
GlyphClass: 2
Flags: W
LayerCount: 2
Fore
SplineSet
2 703 m 1,0,-1
 510 703 l 1,1,-1
 510 612 l 1,2,-1
 208 -9 l 1,3,-1
 44 4 l 1,4,-1
 340 572 l 1,5,-1
 340 578 l 1,6,-1
 2 570 l 1,7,-1
 2 703 l 1,0,-1
EndSplineSet
EndChar

StartChar: eight
Encoding: 56 56 28
Width: 581
GlyphClass: 2
Flags: W
LayerCount: 2
Fore
SplineSet
115.5 664 m 128,-1,1
 177 716 177 716 290.5 716 c 128,-1,2
 404 716 404 716 465 663 c 128,-1,3
 526 610 526 610 526 526 c 0,4,5
 526 425 526 425 437 364 c 1,6,7
 485 342 485 342 520 298.5 c 128,-1,8
 555 255 555 255 555 196 c 0,9,10
 555 110 555 110 482 48.5 c 128,-1,11
 409 -13 409 -13 286.5 -13 c 128,-1,12
 164 -13 164 -13 94.5 51.5 c 128,-1,13
 25 116 25 116 25 204 c 0,14,15
 25 257 25 257 54 301 c 128,-1,16
 83 345 83 345 127 373 c 1,17,18
 54 427 54 427 54 519.5 c 128,-1,0
 54 612 54 612 115.5 664 c 128,-1,1
397 195 m 0,19,20
 397 234 397 234 368 258 c 128,-1,21
 339 282 339 282 262 305 c 1,22,23
 223 291 223 291 203 268 c 128,-1,24
 183 245 183 245 183 204 c 0,25,26
 183 119 183 119 290 119 c 128,-1,27
 397 119 397 119 397 195 c 0,19,20
372 516 m 0,28,29
 372 593 372 593 289.5 593 c 128,-1,30
 207 593 207 593 207 526 c 0,31,32
 207 491 207 491 229 467 c 128,-1,33
 251 443 251 443 303 423 c 1,34,35
 372 452 372 452 372 516 c 0,28,29
EndSplineSet
EndChar

StartChar: nine
Encoding: 57 57 29
Width: 590
GlyphClass: 2
Flags: W
LayerCount: 2
Fore
SplineSet
286 258 m 0,0,1
 170 258 170 258 104 312.5 c 128,-1,2
 38 367 38 367 38 479 c 128,-1,3
 38 591 38 591 104 653.5 c 128,-1,4
 170 716 170 716 293 716 c 128,-1,5
 416 716 416 716 484 634.5 c 128,-1,6
 552 553 552 553 552 364 c 128,-1,7
 552 175 552 175 488.5 81 c 128,-1,8
 425 -13 425 -13 282 -13 c 0,9,10
 234 -13 234 -13 176.5 3.5 c 128,-1,11
 119 20 119 20 86 36 c 2,12,-1
 53 52 l 1,13,-1
 96 169 l 1,14,15
 216 121 216 121 275.5 121 c 128,-1,16
 335 121 335 121 353 136 c 0,17,18
 383 161 383 161 389 266 c 1,19,20
 331 258 331 258 286 258 c 0,0,1
354 572 m 0,21,22
 334 585 334 585 281.5 585 c 128,-1,23
 229 585 229 585 211 560.5 c 128,-1,24
 193 536 193 536 193 484 c 128,-1,25
 193 432 193 432 209.5 411 c 128,-1,26
 226 390 226 390 282 390 c 0,27,28
 322 390 322 390 390 404 c 1,29,30
 389 549 389 549 354 572 c 0,21,22
EndSplineSet
EndChar

StartChar: colon
Encoding: 58 58 30
Width: 337
GlyphClass: 2
Flags: W
LayerCount: 2
Fore
SplineSet
81 0 m 1,0,-1
 81 137 l 1,1,-1
 256 137 l 1,2,-1
 256 0 l 1,3,-1
 81 0 l 1,0,-1
81 416 m 1,4,-1
 81 553 l 1,5,-1
 256 553 l 1,6,-1
 256 416 l 1,7,-1
 81 416 l 1,4,-1
EndSplineSet
EndChar

StartChar: semicolon
Encoding: 59 59 31
Width: 343
GlyphClass: 2
Flags: W
LayerCount: 2
Fore
SplineSet
105 -1 m 2,0,-1
 105 132 l 1,1,-1
 255 132 l 1,2,-1
 255 41 l 2,3,4
 255 -108 255 -108 163 -175 c 1,5,-1
 73 -131 l 1,6,7
 105 -84 105 -84 105 -1 c 2,0,-1
94 425 m 1,8,-1
 94 562 l 1,9,-1
 269 562 l 1,10,-1
 269 425 l 1,11,-1
 94 425 l 1,8,-1
EndSplineSet
EndChar

StartChar: less
Encoding: 60 60 32
Width: 670
GlyphClass: 2
Flags: W
LayerCount: 2
Fore
SplineSet
53 349 m 1,0,-1
 636 588 l 1,1,-1
 636 442 l 1,2,-1
 270 299 l 1,3,-1
 270 293 l 1,4,-1
 636 150 l 1,5,-1
 636 4 l 1,6,-1
 53 243 l 1,7,-1
 53 349 l 1,0,-1
EndSplineSet
EndChar

StartChar: equal
Encoding: 61 61 33
Width: 649
GlyphClass: 2
Flags: W
LayerCount: 2
Fore
SplineSet
30 371 m 1,0,-1
 30 504 l 1,1,-1
 619 504 l 1,2,-1
 619 371 l 1,3,-1
 30 371 l 1,0,-1
30 79 m 1,4,-1
 30 212 l 1,5,-1
 619 212 l 1,6,-1
 619 79 l 1,7,-1
 30 79 l 1,4,-1
EndSplineSet
EndChar

StartChar: greater
Encoding: 62 62 34
Width: 670
GlyphClass: 2
Flags: W
LayerCount: 2
Fore
SplineSet
53 588 m 1,0,-1
 636 349 l 1,1,-1
 636 243 l 1,2,-1
 53 4 l 1,3,-1
 53 150 l 1,4,-1
 419 293 l 1,5,-1
 419 299 l 1,6,-1
 53 442 l 1,7,-1
 53 588 l 1,0,-1
EndSplineSet
EndChar

StartChar: question
Encoding: 63 63 35
Width: 493
GlyphClass: 2
Flags: W
LayerCount: 2
Fore
SplineSet
121 203 m 1,0,-1
 121 222 l 2,1,2
 121 299 121 299 162 344 c 0,3,4
 184 368 184 368 199.5 380.5 c 128,-1,5
 215 393 215 393 245 414 c 0,6,7
 325 468 325 468 325 519 c 0,8,9
 325 550 325 550 306 564 c 128,-1,10
 287 578 287 578 250 578 c 0,11,12
 185 578 185 578 89 546 c 1,13,-1
 57 536 l 1,14,-1
 9 654 l 1,15,16
 50 678 50 678 119 697 c 128,-1,17
 188 716 188 716 243 716 c 0,18,19
 350 716 350 716 417.5 660.5 c 128,-1,20
 485 605 485 605 485 519 c 0,21,22
 485 445 485 445 440 398 c 0,23,24
 400 357 400 357 360.5 331 c 128,-1,25
 321 305 321 305 308 294 c 128,-1,26
 295 283 295 283 281 259 c 128,-1,27
 267 235 267 235 264 203 c 1,28,-1
 121 203 l 1,0,-1
106 0 m 1,29,-1
 106 134 l 1,30,-1
 281 134 l 1,31,-1
 281 0 l 1,32,-1
 106 0 l 1,29,-1
EndSplineSet
EndChar

StartChar: at
Encoding: 64 64 36
Width: 815
GlyphClass: 2
Flags: W
LayerCount: 2
Fore
SplineSet
565 107 m 0,0,1
 525 107 525 107 506 130 c 128,-1,2
 487 153 487 153 480 198 c 1,3,-1
 476 198 l 1,4,5
 424 107 424 107 356 107 c 0,6,7
 311 107 311 107 274 150 c 1,8,9
 231 203 231 203 231 327.5 c 128,-1,10
 231 452 231 452 272.5 500 c 128,-1,11
 314 548 314 548 403 548 c 0,12,13
 466 548 466 548 570 520 c 1,14,15
 568 373 568 373 568 300 c 128,-1,16
 568 227 568 227 569.5 212.5 c 128,-1,17
 571 198 571 198 579 198 c 0,18,19
 606 198 606 198 641 250 c 128,-1,20
 676 302 676 302 676 376 c 0,21,22
 676 485 676 485 608 548 c 128,-1,23
 540 611 540 611 417 611 c 128,-1,24
 294 611 294 611 215.5 537 c 128,-1,25
 137 463 137 463 137 324.5 c 128,-1,26
 137 186 137 186 215.5 106.5 c 128,-1,27
 294 27 294 27 408 27 c 0,28,29
 434 27 434 27 503 40 c 1,30,-1
 514 -44 l 1,31,32
 464 -61 464 -61 400 -61 c 128,-1,33
 336 -61 336 -61 272.5 -37 c 128,-1,34
 209 -13 209 -13 157.5 32.5 c 128,-1,35
 106 78 106 78 75 152 c 128,-1,36
 44 226 44 226 44 319 c 128,-1,37
 44 412 44 412 77 487.5 c 128,-1,38
 110 563 110 563 164 608 c 0,39,40
 275 701 275 701 418.5 701 c 128,-1,41
 562 701 562 701 664.5 614 c 128,-1,42
 767 527 767 527 767 380 c 0,43,44
 767 268 767 268 703 187.5 c 128,-1,45
 639 107 639 107 565 107 c 0,0,1
366 209 m 0,46,47
 401 209 401 209 433.5 286.5 c 128,-1,48
 466 364 466 364 466 444 c 1,49,50
 435 450 435 450 401 450 c 128,-1,51
 367 450 367 450 357 437 c 0,52,53
 340 414 340 414 340 333 c 0,54,55
 340 209 340 209 366 209 c 0,46,47
EndSplineSet
EndChar

StartChar: A
Encoding: 65 65 37
Width: 573
GlyphClass: 2
Flags: W
LayerCount: 2
Fore
SplineSet
148 0 m 1,0,-1
 -11 0 l 1,1,-1
 190 703 l 1,2,-1
 378 703 l 1,3,-1
 579 0 l 1,4,-1
 420 0 l 1,5,-1
 380 156 l 1,6,-1
 188 156 l 1,7,-1
 148 0 l 1,0,-1
350 288 m 1,8,-1
 287 559 l 1,9,-1
 281 559 l 1,10,-1
 218 288 l 1,11,-1
 350 288 l 1,8,-1
EndSplineSet
EndChar

StartChar: B
Encoding: 66 66 38
Width: 655
GlyphClass: 2
Flags: W
LayerCount: 2
Fore
SplineSet
337 716 m 0,0,1
 575 716 575 716 575 517 c 0,2,3
 575 462 575 462 551 426 c 128,-1,4
 527 390 527 390 493 373 c 1,5,-1
 493 367 l 1,6,7
 593 325 593 325 593 216 c 0,8,9
 593 85 593 85 514 32 c 1,10,11
 445 -13 445 -13 344 -13 c 128,-1,12
 243 -13 243 -13 83 6 c 1,13,-1
 88 329 l 1,14,-1
 83 702 l 1,15,16
 236 716 236 716 337 716 c 0,0,1
242 119 m 1,17,18
 302 113 302 113 349 113 c 128,-1,19
 396 113 396 113 413 136 c 128,-1,20
 430 159 430 159 430 211.5 c 128,-1,21
 430 264 430 264 405.5 284 c 128,-1,22
 381 304 381 304 333 304 c 2,23,-1
 241 304 l 1,24,-1
 242 119 l 1,17,18
240 426 m 1,25,-1
 341 426 l 2,26,27
 383 426 383 426 399 445 c 128,-1,28
 415 464 415 464 415 510 c 128,-1,29
 415 556 415 556 396.5 574.5 c 128,-1,30
 378 593 378 593 334 593 c 1,31,-1
 240 589 l 1,32,-1
 240 426 l 1,25,-1
EndSplineSet
EndChar

StartChar: C
Encoding: 67 67 39
Width: 618
GlyphClass: 2
Flags: W
LayerCount: 2
Fore
SplineSet
538 563 m 1,0,1
 414 578 414 578 348 578 c 128,-1,2
 282 578 282 578 259 560 c 0,3,4
 214 524 214 524 214 342 c 0,5,6
 214 259 214 259 228.5 206 c 128,-1,7
 243 153 243 153 264.5 137 c 128,-1,8
 286 121 286 121 328.5 121 c 128,-1,9
 371 121 371 121 422 134.5 c 128,-1,10
 473 148 473 148 538 174 c 1,11,-1
 583 56 l 1,12,13
 571 48 571 48 549 36.5 c 128,-1,14
 527 25 527 25 462 6 c 128,-1,15
 397 -13 397 -13 334 -13 c 0,16,17
 200 -13 200 -13 125 73 c 128,-1,18
 50 159 50 159 50 345 c 0,19,20
 50 521 50 521 106 608 c 0,21,22
 132 649 132 649 171.5 673.5 c 128,-1,23
 211 698 211 698 253.5 707 c 128,-1,24
 296 716 296 716 343 716 c 128,-1,25
 390 716 390 716 453.5 708.5 c 128,-1,26
 517 701 517 701 555 691 c 1,27,-1
 538 563 l 1,0,1
EndSplineSet
EndChar

StartChar: D
Encoding: 68 68 40
Width: 673
GlyphClass: 2
Flags: W
LayerCount: 2
Fore
SplineSet
322 -13 m 0,0,1
 254 -13 254 -13 83 0 c 1,2,-1
 83 702 l 1,3,4
 253 716 253 716 328.5 716 c 128,-1,5
 404 716 404 716 456.5 696.5 c 128,-1,6
 509 677 509 677 540 645.5 c 128,-1,7
 571 614 571 614 590 566 c 0,8,9
 623 486 623 486 623 360 c 0,10,11
 623 161 623 161 544 74 c 128,-1,12
 465 -13 465 -13 322 -13 c 0,0,1
239 127 m 1,13,14
 281 122 281 122 335 122 c 128,-1,15
 389 122 389 122 410 141 c 1,16,17
 456 179 456 179 456 356 c 128,-1,18
 456 533 456 533 413 565 c 0,19,20
 391 582 391 582 336 582 c 1,21,-1
 239 576 l 1,22,-1
 239 127 l 1,13,14
EndSplineSet
EndChar

StartChar: E
Encoding: 69 69 41
Width: 551
GlyphClass: 2
Flags: W
LayerCount: 2
Fore
SplineSet
83 0 m 1,0,-1
 83 703 l 1,1,-1
 505 703 l 1,2,-1
 505 569 l 1,3,-1
 239 572 l 1,4,-1
 235 422 l 1,5,-1
 480 422 l 1,6,-1
 480 290 l 1,7,-1
 235 290 l 1,8,-1
 239 132 l 1,9,-1
 505 134 l 1,10,-1
 505 0 l 1,11,-1
 83 0 l 1,0,-1
EndSplineSet
EndChar

StartChar: F
Encoding: 70 70 42
Width: 537
GlyphClass: 2
Flags: W
LayerCount: 2
Fore
SplineSet
473 419 m 1,0,-1
 473 287 l 1,1,-1
 235 287 l 1,2,-1
 240 0 l 1,3,-1
 83 0 l 1,4,-1
 83 703 l 1,5,-1
 505 703 l 1,6,-1
 505 567 l 1,7,-1
 238 570 l 1,8,-1
 235 419 l 1,9,-1
 473 419 l 1,0,-1
EndSplineSet
EndChar

StartChar: G
Encoding: 71 71 43
Width: 654
GlyphClass: 2
Flags: W
LayerCount: 2
Fore
SplineSet
256 559 m 0,0,1
 214 521 214 521 214 353.5 c 128,-1,2
 214 186 214 186 258 142 c 1,3,4
 284 118 284 118 343 118 c 128,-1,5
 402 118 402 118 430 124 c 1,6,-1
 430 275 l 1,7,-1
 328 282 l 1,8,-1
 328 395 l 1,9,-1
 583 395 l 1,10,-1
 583 33 l 1,11,12
 540 15 540 15 473.5 1 c 128,-1,13
 407 -13 407 -13 352 -13 c 128,-1,14
 297 -13 297 -13 255.5 -4.5 c 128,-1,15
 214 4 214 4 174.5 28.5 c 128,-1,16
 135 53 135 53 108 92 c 1,17,18
 50 180 50 180 50 354 c 0,19,20
 50 572 50 572 138 648 c 0,21,22
 183 687 183 687 236.5 701.5 c 128,-1,23
 290 716 290 716 383 716 c 128,-1,24
 476 716 476 716 582 690 c 1,25,-1
 564 563 l 1,26,27
 429 578 429 578 353.5 578 c 128,-1,28
 278 578 278 578 256 559 c 0,0,1
EndSplineSet
EndChar

StartChar: H
Encoding: 72 72 44
Width: 706
GlyphClass: 2
Flags: W
LayerCount: 2
Fore
SplineSet
83 0 m 1,0,-1
 83 703 l 1,1,-1
 240 703 l 1,2,-1
 237 424 l 1,3,-1
 469 424 l 1,4,-1
 466 703 l 1,5,-1
 623 703 l 1,6,-1
 623 0 l 1,7,-1
 466 0 l 1,8,-1
 469 290 l 1,9,-1
 237 290 l 1,10,-1
 240 0 l 1,11,-1
 83 0 l 1,0,-1
EndSplineSet
EndChar

StartChar: I
Encoding: 73 73 45
Width: 324
GlyphClass: 2
Flags: W
LayerCount: 2
Fore
SplineSet
238 390 m 1,0,-1
 241 0 l 1,1,-1
 83 0 l 1,2,-1
 87 324 l 1,3,-1
 83 703 l 1,4,-1
 241 703 l 1,5,-1
 238 390 l 1,0,-1
EndSplineSet
EndChar

StartChar: J
Encoding: 74 74 46
Width: 363
GlyphClass: 2
Flags: W
LayerCount: 2
Fore
SplineSet
280 703 m 1,0,-1
 280 247 l 2,1,2
 280 -13 280 -13 75 -13 c 0,3,4
 30 -13 30 -13 -21 -2 c 1,5,-1
 -6 131 l 1,6,7
 44 121 44 121 69.5 121 c 128,-1,8
 95 121 95 121 104 128 c 0,9,10
 123 144 123 144 123 245 c 2,11,-1
 123 703 l 1,12,-1
 280 703 l 1,0,-1
EndSplineSet
EndChar

StartChar: K
Encoding: 75 75 47
Width: 664
GlyphClass: 2
Flags: W
LayerCount: 2
Fore
SplineSet
494 0 m 1,0,-1
 243 369 l 1,1,-1
 469 703 l 1,2,-1
 660 703 l 1,3,-1
 408 374 l 1,4,-1
 408 368 l 1,5,-1
 689 0 l 1,6,-1
 494 0 l 1,0,-1
241 703 m 1,7,-1
 241 0 l 1,8,-1
 83 0 l 1,9,-1
 86 358 l 1,10,-1
 83 703 l 1,11,-1
 241 703 l 1,7,-1
EndSplineSet
EndChar

StartChar: L
Encoding: 76 76 48
Width: 483
GlyphClass: 2
Flags: W
LayerCount: 2
Fore
SplineSet
83 0 m 1,0,-1
 83 703 l 1,1,-1
 240 703 l 1,2,-1
 235 135 l 1,3,-1
 494 137 l 1,4,-1
 494 0 l 1,5,-1
 83 0 l 1,0,-1
EndSplineSet
EndChar

StartChar: M
Encoding: 77 77 49
Width: 843
GlyphClass: 2
Flags: W
LayerCount: 2
Fore
SplineSet
501 162 m 1,0,-1
 343 162 l 1,1,-1
 235 527 l 1,2,-1
 229 527 l 1,3,-1
 235 0 l 1,4,-1
 79 0 l 1,5,-1
 103 703 l 1,6,-1
 304 703 l 1,7,-1
 418 310 l 1,8,-1
 424 310 l 1,9,-1
 537 703 l 1,10,-1
 737 703 l 1,11,-1
 764 0 l 1,12,-1
 608 0 l 1,13,-1
 612 527 l 1,14,-1
 606 527 l 1,15,-1
 501 162 l 1,0,-1
EndSplineSet
EndChar

StartChar: N
Encoding: 78 78 50
Width: 716
GlyphClass: 2
Flags: W
LayerCount: 2
Fore
SplineSet
83 703 m 1,0,-1
 279 703 l 1,1,-1
 496 204 l 1,2,-1
 502 204 l 1,3,-1
 490 703 l 1,4,-1
 635 703 l 1,5,-1
 635 0 l 1,6,-1
 439 0 l 1,7,-1
 222 499 l 1,8,-1
 216 499 l 1,9,-1
 228 0 l 1,10,-1
 83 0 l 1,11,-1
 83 703 l 1,0,-1
EndSplineSet
EndChar

StartChar: O
Encoding: 79 79 51
Width: 700
GlyphClass: 2
Flags: W
LayerCount: 2
Fore
SplineSet
350 -13 m 128,-1,1
 284 -13 284 -13 233.5 3 c 128,-1,2
 183 19 183 19 140 58 c 0,3,4
 50 138 50 138 50 353 c 0,5,6
 50 595 50 595 174 673 c 0,7,8
 241 716 241 716 350 716 c 0,9,10
 521 716 521 716 592 608 c 0,11,12
 650 520 650 520 650 353 c 0,13,14
 650 138 650 138 560 58 c 0,15,16
 517 19 517 19 466.5 3 c 128,-1,0
 416 -13 416 -13 350 -13 c 128,-1,1
228 496.5 m 128,-1,18
 213 447 213 447 213 351.5 c 128,-1,19
 213 256 213 256 228.5 206 c 128,-1,20
 244 156 244 156 271.5 140.5 c 128,-1,21
 299 125 299 125 350 125 c 128,-1,22
 401 125 401 125 428 141 c 0,23,24
 487 175 487 175 487 351 c 0,25,26
 487 529 487 529 430 562 c 0,27,28
 402 578 402 578 350 578 c 128,-1,29
 298 578 298 578 270.5 562 c 128,-1,17
 243 546 243 546 228 496.5 c 128,-1,18
EndSplineSet
EndChar

StartChar: P
Encoding: 80 80 52
Width: 621
GlyphClass: 2
Flags: W
LayerCount: 2
Fore
SplineSet
83 702 m 1,0,1
 244 716 244 716 355 716 c 128,-1,2
 466 716 466 716 525 653.5 c 128,-1,3
 584 591 584 591 584 469 c 0,4,5
 584 321 584 321 505 262 c 0,6,7
 437 212 437 212 334 212 c 1,8,-1
 240 215 l 1,9,-1
 240 0 l 1,10,-1
 83 0 l 1,11,-1
 87 328 l 1,12,-1
 83 702 l 1,0,1
400 575 m 0,13,14
 386 589 386 589 334 589 c 128,-1,15
 282 589 282 589 240 584 c 1,16,-1
 240 351 l 1,17,18
 282 344 282 344 333 344 c 128,-1,19
 384 344 384 344 403 361.5 c 128,-1,20
 422 379 422 379 422 467 c 128,-1,21
 422 555 422 555 400 575 c 0,13,14
EndSplineSet
EndChar

StartChar: Q
Encoding: 81 81 53
Width: 723
GlyphClass: 2
Flags: W
LayerCount: 2
Fore
SplineSet
426 -6 m 1,0,1
 388 -13 388 -13 333.5 -13 c 128,-1,2
 279 -13 279 -13 229.5 3.5 c 128,-1,3
 180 20 180 20 138 59 c 128,-1,4
 96 98 96 98 73 172 c 128,-1,5
 50 246 50 246 50 353 c 128,-1,6
 50 460 50 460 73 534 c 128,-1,7
 96 608 96 608 139.5 646.5 c 128,-1,8
 183 685 183 685 233.5 700.5 c 128,-1,9
 284 716 284 716 350.5 716 c 128,-1,10
 417 716 417 716 467.5 700 c 128,-1,11
 518 684 518 684 561 646 c 0,12,13
 650 566 650 566 650 352 c 0,14,15
 650 167 650 167 564 68 c 1,16,-1
 564 62 l 1,17,-1
 696 31 l 1,18,-1
 654 -95 l 1,19,-1
 426 -6 l 1,0,1
228 496.5 m 128,-1,21
 213 447 213 447 213 351.5 c 128,-1,22
 213 256 213 256 228.5 206 c 128,-1,23
 244 156 244 156 271.5 140.5 c 128,-1,24
 299 125 299 125 350 125 c 128,-1,25
 401 125 401 125 428 140 c 0,26,27
 487 173 487 173 487 351 c 0,28,29
 487 528 487 528 430 562 c 0,30,31
 403 578 403 578 350.5 578 c 128,-1,32
 298 578 298 578 270.5 562 c 128,-1,20
 243 546 243 546 228 496.5 c 128,-1,21
EndSplineSet
EndChar

StartChar: R
Encoding: 82 82 54
Width: 695
GlyphClass: 2
Flags: W
LayerCount: 2
Fore
SplineSet
613 482 m 0,0,1
 613 323 613 323 470 272 c 1,2,-1
 470 266 l 1,3,-1
 641 0 l 1,4,-1
 459 0 l 1,5,-1
 330 250 l 1,6,-1
 240 252 l 1,7,-1
 240 0 l 1,8,-1
 83 0 l 1,9,-1
 87 326 l 1,10,-1
 83 702 l 1,11,12
 321 716 321 716 349 716 c 0,13,14
 613 716 613 716 613 482 c 0,0,1
240 382 m 1,15,16
 308 375 308 375 359.5 375 c 128,-1,17
 411 375 411 375 431 399.5 c 128,-1,18
 451 424 451 424 451 493.5 c 128,-1,19
 451 563 451 563 426 579 c 0,20,21
 408 591 408 591 346.5 591 c 128,-1,22
 285 591 285 591 240 585 c 1,23,-1
 240 382 l 1,15,16
EndSplineSet
EndChar

StartChar: S
Encoding: 83 83 55
Width: 570
GlyphClass: 2
Flags: W
LayerCount: 2
Fore
SplineSet
278 578 m 0,0,1
 245 578 245 578 227 565.5 c 128,-1,2
 209 553 209 553 209 523 c 128,-1,3
 209 493 209 493 234.5 473.5 c 128,-1,4
 260 454 260 454 291 439.5 c 128,-1,5
 322 425 322 425 346.5 414.5 c 128,-1,6
 371 404 371 404 384 397.5 c 128,-1,7
 397 391 397 391 419.5 379 c 128,-1,8
 442 367 442 367 454.5 356.5 c 128,-1,9
 467 346 467 346 483.5 329.5 c 128,-1,10
 500 313 500 313 508 296 c 0,11,12
 529 253 529 253 529 204 c 0,13,14
 529 107 529 107 459.5 47 c 128,-1,15
 390 -13 390 -13 278 -13 c 0,16,17
 221 -13 221 -13 160 2.5 c 128,-1,18
 99 18 99 18 66 34 c 2,19,-1
 33 49 l 1,20,21
 35 57 35 57 40 70 c 0,22,23
 46 88 46 88 72 174 c 1,24,25
 195 125 195 125 298 125 c 0,26,27
 327 125 327 125 348 138 c 128,-1,28
 369 151 369 151 369 198 c 0,29,30
 369 220 369 220 357 231.5 c 128,-1,31
 345 243 345 243 337 249.5 c 128,-1,32
 329 256 329 256 314 264 c 128,-1,33
 299 272 299 272 288 277 c 0,34,35
 265 288 265 288 204.5 316.5 c 128,-1,36
 144 345 144 345 117 367 c 0,37,38
 48 421 48 421 48 513 c 128,-1,39
 48 605 48 605 112.5 660.5 c 128,-1,40
 177 716 177 716 296 716 c 0,41,42
 339 716 339 716 391 708 c 128,-1,43
 443 700 443 700 504 683 c 1,44,-1
 479 555 l 1,45,46
 359 578 359 578 278 578 c 0,0,1
EndSplineSet
EndChar

StartChar: T
Encoding: 84 84 56
Width: 516
GlyphClass: 2
Flags: W
LayerCount: 2
Fore
SplineSet
-16 703 m 1,0,-1
 531 703 l 1,1,-1
 531 567 l 1,2,-1
 331 570 l 1,3,-1
 334 0 l 1,4,-1
 177 0 l 1,5,-1
 180 570 l 1,6,-1
 -16 567 l 1,7,-1
 -16 703 l 1,0,-1
EndSplineSet
EndChar

StartChar: U
Encoding: 85 85 57
Width: 702
GlyphClass: 2
Flags: W
LayerCount: 2
Fore
SplineSet
462 703 m 1,0,-1
 619 703 l 1,1,-1
 619 317 l 2,2,3
 619 131 619 131 553.5 59 c 128,-1,4
 488 -13 488 -13 351.5 -13 c 128,-1,5
 215 -13 215 -13 149 58 c 128,-1,6
 83 129 83 129 83 309 c 2,7,-1
 83 703 l 1,8,-1
 240 703 l 1,9,-1
 240 335 l 2,10,11
 240 241 240 241 250.5 196 c 128,-1,12
 261 151 261 151 283 137 c 128,-1,13
 305 123 305 123 351.5 123.5 c 128,-1,14
 398 124 398 124 419.5 137.5 c 128,-1,15
 441 151 441 151 451.5 195 c 128,-1,16
 462 239 462 239 462 335 c 2,17,-1
 462 703 l 1,0,-1
EndSplineSet
EndChar

StartChar: V
Encoding: 86 86 58
Width: 609
GlyphClass: 2
Flags: W
LayerCount: 2
Fore
SplineSet
6 703 m 1,0,-1
 171 703 l 1,1,-1
 296 147 l 1,2,-1
 302 147 l 1,3,-1
 427 703 l 1,4,-1
 593 703 l 1,5,-1
 394 0 l 1,6,-1
 202 0 l 1,7,-1
 6 703 l 1,0,-1
EndSplineSet
EndChar

StartChar: W
Encoding: 87 87 59
Width: 820
GlyphClass: 2
Flags: W
LayerCount: 2
Fore
SplineSet
309 536 m 1,0,-1
 493 536 l 1,1,-1
 571 163 l 1,2,-1
 577 163 l 1,3,-1
 630 703 l 1,4,-1
 786 703 l 1,5,-1
 682 0 l 1,6,-1
 486 0 l 1,7,-1
 404 395 l 1,8,-1
 398 395 l 1,9,-1
 316 0 l 1,10,-1
 120 0 l 1,11,-1
 16 703 l 1,12,-1
 172 703 l 1,13,-1
 225 163 l 1,14,-1
 231 163 l 1,15,-1
 309 536 l 1,0,-1
EndSplineSet
EndChar

StartChar: X
Encoding: 88 88 60
Width: 620
GlyphClass: 2
Flags: W
LayerCount: 2
Fore
SplineSet
-7 0 m 1,0,-1
 208 357 l 1,1,-1
 2 703 l 1,2,-1
 178 703 l 1,3,-1
 307 454 l 1,4,-1
 313 454 l 1,5,-1
 440 703 l 1,6,-1
 616 703 l 1,7,-1
 411 357 l 1,8,-1
 626 0 l 1,9,-1
 447 0 l 1,10,-1
 314 255 l 1,11,-1
 308 255 l 1,12,-1
 172 0 l 1,13,-1
 -7 0 l 1,0,-1
EndSplineSet
EndChar

StartChar: Y
Encoding: 89 89 61
Width: 580
GlyphClass: 2
Flags: W
LayerCount: 2
Fore
SplineSet
209 0 m 1,0,-1
 212 253 l 1,1,-1
 -4 703 l 1,2,-1
 163 703 l 1,3,-1
 286 381 l 1,4,-1
 292 381 l 1,5,-1
 415 703 l 1,6,-1
 582 703 l 1,7,-1
 366 253 l 1,8,-1
 368 0 l 1,9,-1
 209 0 l 1,0,-1
EndSplineSet
EndChar

StartChar: Z
Encoding: 90 90 62
Width: 579
GlyphClass: 2
Flags: W
LayerCount: 2
Fore
SplineSet
24 0 m 1,0,-1
 24 124 l 1,1,-1
 362 571 l 1,2,-1
 362 578 l 1,3,-1
 45 569 l 1,4,-1
 45 703 l 1,5,-1
 548 703 l 1,6,-1
 548 582 l 1,7,-1
 217 132 l 1,8,-1
 217 126 l 1,9,-1
 553 133 l 1,10,-1
 553 0 l 1,11,-1
 24 0 l 1,0,-1
EndSplineSet
EndChar

StartChar: bracketleft
Encoding: 91 91 63
Width: 342
GlyphClass: 2
Flags: W
LayerCount: 2
Fore
SplineSet
323 -124 m 1,0,-1
 84 -124 l 1,1,-1
 84 791 l 1,2,-1
 323 791 l 1,3,-1
 323 676 l 1,4,-1
 228 678 l 1,5,-1
 228 -11 l 1,6,-1
 323 -10 l 1,7,-1
 323 -124 l 1,0,-1
EndSplineSet
EndChar

StartChar: backslash
Encoding: 92 92 64
Width: 492
GlyphClass: 2
Flags: W
LayerCount: 2
Fore
SplineSet
508 -98 m 1,0,-1
 363 -98 l 1,1,-1
 196 281 l 1,2,-1
 0 703 l 1,3,-1
 146 703 l 1,4,-1
 307 333 l 1,5,-1
 508 -98 l 1,0,-1
EndSplineSet
EndChar

StartChar: bracketright
Encoding: 93 93 65
Width: 342
GlyphClass: 2
Flags: W
LayerCount: 2
Fore
SplineSet
19 791 m 1,0,-1
 258 791 l 1,1,-1
 258 -124 l 1,2,-1
 19 -124 l 1,3,-1
 19 -10 l 1,4,-1
 114 -11 l 1,5,-1
 114 678 l 1,6,-1
 19 676 l 1,7,-1
 19 791 l 1,0,-1
EndSplineSet
EndChar

StartChar: asciicircum
Encoding: 94 94 66
Width: 526
GlyphClass: 2
Flags: W
LayerCount: 2
Fore
SplineSet
181 312 m 1,0,-1
 36 324 l 1,1,-1
 189 706 l 1,2,-1
 337 706 l 1,3,-1
 490 324 l 1,4,-1
 345 312 l 1,5,-1
 266 577 l 1,6,-1
 260 577 l 1,7,-1
 181 312 l 1,0,-1
EndSplineSet
EndChar

StartChar: underscore
Encoding: 95 95 67
Width: 570
GlyphClass: 2
Flags: W
LayerCount: 2
Fore
SplineSet
4 -166 m 1,0,-1
 4 -68 l 1,1,-1
 566 -68 l 1,2,-1
 566 -166 l 1,3,-1
 4 -166 l 1,0,-1
EndSplineSet
EndChar

StartChar: grave
Encoding: 96 96 68
Width: 625
GlyphClass: 2
Flags: W
LayerCount: 2
Fore
SplineSet
148 704 m 1,0,-1
 174 812 l 1,1,-1
 472 729 l 1,2,-1
 453 646 l 1,3,-1
 148 704 l 1,0,-1
EndSplineSet
EndChar

StartChar: a
Encoding: 97 97 69
Width: 622
GlyphClass: 2
Flags: W
LayerCount: 2
Fore
SplineSet
99.5 38 m 128,-1,1
 51 89 51 89 51 186 c 128,-1,2
 51 283 51 283 119.5 327 c 128,-1,3
 188 371 188 371 319 371 c 2,4,-1
 394 371 l 1,5,6
 394 438 394 438 381 457.5 c 128,-1,7
 368 477 368 477 322.5 477 c 128,-1,8
 277 477 277 477 221.5 467 c 128,-1,9
 166 457 166 457 98 437 c 1,10,-1
 66 549 l 1,11,12
 107 568 107 568 183.5 584.5 c 128,-1,13
 260 601 260 601 320 601 c 0,14,15
 443 601 443 601 496 544.5 c 128,-1,16
 549 488 549 488 549 380 c 2,17,-1
 549 0 l 1,18,-1
 451 0 l 1,19,-1
 431 65 l 1,20,-1
 425 65 l 1,21,22
 413 56 413 56 393.5 43 c 128,-1,23
 374 30 374 30 320 8.5 c 128,-1,24
 266 -13 266 -13 222 -13 c 0,25,0
 148 -13 148 -13 99.5 38 c 128,-1,1
394 256 m 1,26,27
 359 261 359 261 300.5 261 c 128,-1,28
 242 261 242 261 225.5 246 c 128,-1,29
 209 231 209 231 209 189 c 128,-1,30
 209 147 209 147 222.5 130.5 c 128,-1,31
 236 114 236 114 264 114 c 0,32,33
 316 114 316 114 374 142 c 2,34,-1
 394 152 l 1,35,-1
 394 256 l 1,26,27
EndSplineSet
EndChar

StartChar: b
Encoding: 98 98 70
Width: 624
GlyphClass: 2
Flags: W
LayerCount: 2
Fore
SplineSet
74 761 m 1,0,-1
 229 761 l 1,1,-1
 229 586 l 1,2,3
 302 601 302 601 358 601 c 0,4,5
 576 601 576 601 576 302 c 0,6,7
 576 210 576 210 555.5 145.5 c 128,-1,8
 535 81 535 81 500 48 c 0,9,10
 434 -13 434 -13 338 -13 c 0,11,12
 287 -13 287 -13 209.5 0 c 128,-1,13
 132 13 132 13 74 31 c 1,14,-1
 74 761 l 1,0,-1
393 460 m 0,15,16
 379 474 379 474 345 474 c 0,17,18
 283 474 283 474 229 461 c 1,19,-1
 229 122 l 1,20,21
 281 112 281 112 323.5 112 c 128,-1,22
 366 112 366 112 381 124 c 0,23,24
 416 153 416 153 416 319 c 0,25,26
 416 438 416 438 393 460 c 0,15,16
EndSplineSet
EndChar

StartChar: c
Encoding: 99 99 71
Width: 543
GlyphClass: 2
Flags: W
LayerCount: 2
Fore
SplineSet
492 462 m 1,0,1
 388 478 388 478 327.5 478 c 128,-1,2
 267 478 267 478 245 456 c 0,3,4
 208 417 208 417 208 289.5 c 128,-1,5
 208 162 208 162 256 125 c 0,6,7
 276 110 276 110 306 110 c 0,8,9
 362 110 362 110 452 146 c 2,10,-1
 482 158 l 1,11,-1
 524 48 l 1,12,13
 515 41 515 41 498 31 c 128,-1,14
 481 21 481 21 426 4 c 128,-1,15
 371 -13 371 -13 314 -13 c 0,16,17
 191 -13 191 -13 119.5 62.5 c 128,-1,18
 48 138 48 138 48 296 c 0,19,20
 48 472 48 472 136 540 c 0,21,22
 214 601 214 601 340 601 c 0,23,24
 426 601 426 601 509 579 c 1,25,-1
 492 462 l 1,0,1
EndSplineSet
EndChar

StartChar: d
Encoding: 100 100 72
Width: 628
GlyphClass: 2
Flags: W
LayerCount: 2
Fore
SplineSet
554 761 m 1,0,-1
 554 0 l 1,1,-1
 454 0 l 1,2,-1
 438 57 l 1,3,-1
 432 57 l 1,4,5
 328 -13 328 -13 244.5 -13 c 128,-1,6
 161 -13 161 -13 104.5 63 c 128,-1,7
 48 139 48 139 48 290 c 0,8,9
 48 381 48 381 69.5 445 c 128,-1,10
 91 509 91 509 128 542 c 0,11,12
 194 601 194 601 285 601 c 0,13,14
 337 601 337 601 399 586 c 1,15,-1
 399 761 l 1,16,-1
 554 761 l 1,0,-1
399 455 m 1,17,18
 342 476 342 476 297 476 c 128,-1,19
 252 476 252 476 237 460 c 0,20,21
 208 429 208 429 208 291 c 128,-1,22
 208 153 208 153 236 130 c 0,23,24
 251 118 251 118 274 118 c 0,25,26
 321 118 321 118 399 151 c 1,27,-1
 399 455 l 1,17,18
EndSplineSet
EndChar

StartChar: e
Encoding: 101 101 73
Width: 604
GlyphClass: 2
Flags: W
LayerCount: 2
Fore
SplineSet
320 -13 m 0,0,1
 48 -13 48 -13 48 294 c 128,-1,2
 48 601 48 601 318 601 c 0,3,4
 439 601 439 601 500 536.5 c 128,-1,5
 561 472 561 472 561 323 c 2,6,-1
 561 240 l 1,7,-1
 209 240 l 1,8,9
 209 156 209 156 240 129 c 0,10,11
 261 110 261 110 299 110 c 0,12,13
 369 110 369 110 477 142 c 1,14,-1
 512 153 l 1,15,-1
 550 41 l 1,16,17
 505 20 505 20 438 3.5 c 128,-1,18
 371 -13 371 -13 320 -13 c 0,0,1
385 457 m 1,19,20
 367 479 367 479 313 479 c 128,-1,21
 259 479 259 479 236 453 c 128,-1,22
 213 427 213 427 210 352 c 1,23,-1
 403 356 l 1,24,25
 401 435 401 435 385 457 c 1,19,20
EndSplineSet
EndChar

StartChar: f
Encoding: 102 102 74
Width: 382
GlyphClass: 2
Flags: W
LayerCount: 2
Fore
SplineSet
383 559 m 1,0,-1
 383 440 l 1,1,-1
 251 440 l 1,2,-1
 251 0 l 1,3,-1
 96 0 l 1,4,-1
 96 443 l 1,5,-1
 28 443 l 1,6,-1
 28 540 l 1,7,-1
 97 554 l 1,8,9
 106 676 106 676 161.5 725 c 128,-1,10
 217 774 217 774 313 774 c 1,11,-1
 404 770 l 1,12,-1
 393 647 l 1,13,14
 346 651 346 651 311 651 c 128,-1,15
 276 651 276 651 264 635 c 128,-1,16
 252 619 252 619 251 559 c 1,17,-1
 383 559 l 1,0,-1
EndSplineSet
EndChar

StartChar: g
Encoding: 103 103 75
Width: 565
GlyphClass: 2
Flags: W
LayerCount: 2
Fore
SplineSet
517 377 m 0,0,1
 517 290 517 290 448.5 232.5 c 128,-1,2
 380 175 380 175 261 174 c 1,3,4
 259 156 259 156 259 153 c 128,-1,5
 259 150 259 150 269 146 c 128,-1,6
 279 142 279 142 309 132 c 0,7,8
 451 82 451 82 492.5 45.5 c 128,-1,9
 534 9 534 9 534 -35 c 0,10,11
 534 -104 534 -104 463 -141.5 c 128,-1,12
 392 -179 392 -179 277 -179 c 0,13,14
 222 -179 222 -179 162 -170.5 c 128,-1,15
 102 -162 102 -162 37 -145 c 1,16,-1
 54 -27 l 1,17,18
 240 -56 240 -56 315.5 -56 c 128,-1,19
 391 -56 391 -56 391 -40 c 0,20,21
 391 -29 391 -29 220 31 c 0,22,23
 145 58 145 58 137.5 64 c 128,-1,24
 130 70 130 70 130 78 c 0,25,26
 130 94 130 94 169 190 c 1,27,28
 25 240 25 240 25 386 c 0,29,30
 25 444 25 444 47 487 c 128,-1,31
 69 530 69 530 108 554 c 0,32,33
 184 601 184 601 300 601 c 1,34,-1
 554 589 l 1,35,-1
 554 499 l 1,36,-1
 492 489 l 1,37,38
 517 435 517 435 517 377 c 0,0,1
357.5 309 m 128,-1,40
 378 331 378 331 378 400 c 128,-1,41
 378 469 378 469 367 480 c 128,-1,42
 356 491 356 491 286.5 491 c 128,-1,43
 217 491 217 491 193.5 472.5 c 128,-1,44
 170 454 170 454 170 391.5 c 128,-1,45
 170 329 170 329 191.5 308 c 128,-1,46
 213 287 213 287 275 287 c 128,-1,39
 337 287 337 287 357.5 309 c 128,-1,40
EndSplineSet
EndChar

StartChar: h
Encoding: 104 104 76
Width: 627
GlyphClass: 2
Flags: W
LayerCount: 2
Fore
SplineSet
74 0 m 1,0,-1
 74 761 l 1,1,-1
 229 761 l 1,2,-1
 229 551 l 1,3,4
 333 603 333 603 414 603 c 128,-1,5
 495 603 495 603 528 545.5 c 128,-1,6
 561 488 561 488 561 385 c 2,7,-1
 561 0 l 1,8,-1
 406 0 l 1,9,-1
 406 358 l 2,10,11
 406 432 406 432 392 450 c 128,-1,12
 378 468 378 468 356 468 c 0,13,14
 317 468 317 468 229 432 c 1,15,-1
 229 0 l 1,16,-1
 74 0 l 1,0,-1
EndSplineSet
EndChar

StartChar: i
Encoding: 105 105 77
Width: 323
GlyphClass: 2
Flags: W
LayerCount: 2
Fore
SplineSet
239 0 m 1,0,-1
 84 0 l 1,1,-1
 84 588 l 1,2,-1
 239 588 l 1,3,-1
 239 0 l 1,0,-1
249 657 m 1,4,-1
 74 657 l 1,5,-1
 74 761 l 1,6,-1
 249 761 l 1,7,-1
 249 657 l 1,4,-1
EndSplineSet
EndChar

StartChar: j
Encoding: 106 106 78
Width: 346
GlyphClass: 2
Flags: W
LayerCount: 2
Fore
SplineSet
262 588 m 1,0,-1
 262 69 l 2,1,2
 262 -61 262 -61 207.5 -120 c 128,-1,3
 153 -179 153 -179 69 -179 c 0,4,5
 32 -179 32 -179 -38 -169 c 1,6,-1
 -22 -43 l 1,7,8
 32 -51 32 -51 62 -51 c 128,-1,9
 92 -51 92 -51 99.5 -30.5 c 128,-1,10
 107 -10 107 -10 107 70 c 2,11,-1
 107 588 l 1,12,-1
 262 588 l 1,0,-1
272 657 m 1,13,-1
 97 657 l 1,14,-1
 97 761 l 1,15,-1
 272 761 l 1,16,-1
 272 657 l 1,13,-1
EndSplineSet
EndChar

StartChar: k
Encoding: 107 107 79
Width: 600
GlyphClass: 2
Flags: W
LayerCount: 2
Fore
SplineSet
229 761 m 1,0,-1
 229 319 l 1,1,-1
 420 588 l 1,2,-1
 607 588 l 1,3,-1
 385 319 l 1,4,-1
 385 314 l 1,5,-1
 631 0 l 1,6,-1
 441 0 l 1,7,-1
 229 308 l 1,8,-1
 229 0 l 1,9,-1
 74 0 l 1,10,-1
 78 321 l 1,11,-1
 74 761 l 1,12,-1
 229 761 l 1,0,-1
EndSplineSet
EndChar

StartChar: l
Encoding: 108 108 80
Width: 303
GlyphClass: 2
Flags: W
LayerCount: 2
Fore
SplineSet
229 0 m 1,0,-1
 74 0 l 1,1,-1
 74 761 l 1,2,-1
 229 761 l 1,3,-1
 229 0 l 1,0,-1
EndSplineSet
EndChar

StartChar: m
Encoding: 109 109 81
Width: 956
GlyphClass: 2
Flags: W
LayerCount: 2
Fore
SplineSet
234 0 m 1,0,-1
 79 0 l 1,1,-1
 79 588 l 1,2,-1
 178 588 l 1,3,-1
 196 529 l 1,4,-1
 202 529 l 1,5,6
 239 551 239 551 260 562.5 c 128,-1,7
 281 574 281 574 324 588.5 c 128,-1,8
 367 603 367 603 405 603 c 0,9,10
 496 603 496 603 534 527 c 1,11,12
 570 550 570 550 593 563 c 128,-1,13
 616 576 616 576 656 589.5 c 128,-1,14
 696 603 696 603 733 603 c 0,15,16
 819 603 819 603 854.5 545.5 c 128,-1,17
 890 488 890 488 890 385 c 2,18,-1
 890 0 l 1,19,-1
 733 0 l 1,20,-1
 733 358 l 2,21,22
 733 435 733 435 719.5 451.5 c 128,-1,23
 706 468 706 468 677 468 c 0,24,25
 622 468 622 468 559 425 c 1,26,27
 561 393 561 393 561 375 c 2,28,-1
 561 0 l 1,29,-1
 406 0 l 1,30,-1
 406 358 l 2,31,32
 406 436 406 436 393 452 c 128,-1,33
 380 468 380 468 353 468 c 128,-1,34
 326 468 326 468 292 455.5 c 128,-1,35
 258 443 258 443 234 426 c 1,36,-1
 234 0 l 1,0,-1
EndSplineSet
EndChar

StartChar: n
Encoding: 110 110 82
Width: 632
GlyphClass: 2
Flags: W
LayerCount: 2
Fore
SplineSet
234 0 m 1,0,-1
 79 0 l 1,1,-1
 79 588 l 1,2,-1
 178 588 l 1,3,-1
 196 529 l 1,4,-1
 202 529 l 1,5,6
 324 601 324 601 413 601 c 128,-1,7
 502 601 502 601 534 545 c 128,-1,8
 566 489 566 489 566 385 c 2,9,-1
 566 0 l 1,10,-1
 411 0 l 1,11,-1
 411 356 l 2,12,13
 411 434 411 434 398 450 c 128,-1,14
 385 466 385 466 357 466 c 0,15,16
 295 466 295 466 234 424 c 1,17,-1
 234 0 l 1,0,-1
EndSplineSet
EndChar

StartChar: o
Encoding: 111 111 83
Width: 612
GlyphClass: 2
Flags: W
LayerCount: 2
Fore
SplineSet
307 601 m 128,-1,1
 447 601 447 601 505.5 523 c 128,-1,2
 564 445 564 445 564 294 c 128,-1,3
 564 143 564 143 505.5 65 c 128,-1,4
 447 -13 447 -13 307 -13 c 128,-1,5
 167 -13 167 -13 107.5 65.5 c 128,-1,6
 48 144 48 144 48 294 c 128,-1,7
 48 444 48 444 107.5 522.5 c 128,-1,0
 167 601 167 601 307 601 c 128,-1,1
385.5 445.5 m 128,-1,9
 365 483 365 483 306.5 483 c 128,-1,10
 248 483 248 483 227 445 c 128,-1,11
 206 407 206 407 206 294 c 128,-1,12
 206 181 206 181 227 143 c 128,-1,13
 248 105 248 105 306.5 105 c 128,-1,14
 365 105 365 105 385.5 142.5 c 128,-1,15
 406 180 406 180 406 294 c 128,-1,8
 406 408 406 408 385.5 445.5 c 128,-1,9
EndSplineSet
EndChar

StartChar: p
Encoding: 112 112 84
Width: 630
GlyphClass: 2
Flags: W
LayerCount: 2
Fore
SplineSet
229 -166 m 1,0,-1
 74 -166 l 1,1,-1
 74 588 l 1,2,-1
 173 588 l 1,3,-1
 191 528 l 1,4,-1
 196 528 l 1,5,6
 300 601 300 601 386.5 601 c 128,-1,7
 473 601 473 601 527.5 527.5 c 128,-1,8
 582 454 582 454 582 304 c 0,9,10
 582 95 582 95 472 24 c 0,11,12
 413 -13 413 -13 335 -13 c 0,13,14
 288 -13 288 -13 229 -4 c 1,15,-1
 229 -166 l 1,0,-1
402 448 m 0,16,17
 389 467 389 467 362 467 c 0,18,19
 309 467 309 467 249 438 c 1,20,-1
 229 429 l 1,21,-1
 229 127 l 1,22,23
 277 113 277 113 323 113 c 128,-1,24
 369 113 369 113 385 126 c 1,25,26
 421 149 421 149 421 308 c 0,27,28
 421 420 421 420 402 448 c 0,16,17
EndSplineSet
EndChar

StartChar: q
Encoding: 113 113 85
Width: 624
GlyphClass: 2
Flags: W
LayerCount: 2
Fore
SplineSet
550 -166 m 1,0,-1
 395 -166 l 1,1,-1
 395 9 l 1,2,3
 341 -13 341 -13 291 -13 c 128,-1,4
 241 -13 241 -13 210 -5 c 128,-1,5
 179 3 179 3 148.5 25.5 c 128,-1,6
 118 48 118 48 96 82 c 0,7,8
 48 160 48 160 48 312.5 c 128,-1,9
 48 465 48 465 109.5 533 c 128,-1,10
 171 601 171 601 297 601 c 0,11,12
 394 601 394 601 512 573 c 2,13,-1
 550 564 l 1,14,-1
 550 -166 l 1,0,-1
235 129 m 0,15,16
 248 116 248 116 281 116 c 0,17,18
 335 116 335 116 395 131 c 1,19,-1
 395 464 l 1,20,21
 340 476 340 476 294 476 c 128,-1,22
 248 476 248 476 232 460 c 0,23,24
 208 436 208 436 208 295.5 c 128,-1,25
 208 155 208 155 235 129 c 0,15,16
EndSplineSet
EndChar

StartChar: r
Encoding: 114 114 86
Width: 430
GlyphClass: 2
Flags: W
LayerCount: 2
Fore
SplineSet
286.5 580 m 128,-1,1
 329 601 329 601 366.5 601 c 128,-1,2
 404 601 404 601 426 590 c 1,3,-1
 414 456 l 1,4,5
 386 459 386 459 359 459 c 0,6,7
 292 459 292 459 234 423 c 1,8,-1
 234 0 l 1,9,-1
 79 0 l 1,10,-1
 79 588 l 1,11,-1
 175 588 l 1,12,-1
 195 526 l 1,13,-1
 201 526 l 1,14,15
 211 534 211 534 227.5 546.5 c 128,-1,0
 244 559 244 559 286.5 580 c 128,-1,1
EndSplineSet
EndChar

StartChar: s
Encoding: 115 115 87
Width: 537
GlyphClass: 2
Flags: W
LayerCount: 2
Fore
SplineSet
259 477 m 0,0,1
 221 477 221 477 209.5 467.5 c 128,-1,2
 198 458 198 458 198 439 c 128,-1,3
 198 420 198 420 215 405.5 c 128,-1,4
 232 391 232 391 249 384.5 c 128,-1,5
 266 378 266 378 288.5 371.5 c 128,-1,6
 311 365 311 365 355.5 352 c 128,-1,7
 400 339 400 339 426 325 c 0,8,9
 503 282 503 282 503 187.5 c 128,-1,10
 503 93 503 93 445 40 c 128,-1,11
 387 -13 387 -13 282 -13 c 0,12,13
 227 -13 227 -13 167 1.5 c 128,-1,14
 107 16 107 16 74 30 c 1,15,-1
 42 45 l 1,16,-1
 80 167 l 1,17,18
 207 113 207 113 288 113 c 0,19,20
 319 113 319 113 334 124 c 128,-1,21
 349 135 349 135 349 164 c 0,22,23
 349 182 349 182 343 190 c 128,-1,24
 337 198 337 198 333 202.5 c 128,-1,25
 329 207 329 207 321 211.5 c 128,-1,26
 313 216 313 216 307.5 218.5 c 128,-1,27
 302 221 302 221 291 225 c 128,-1,28
 280 229 280 229 274 231 c 128,-1,29
 268 233 268 233 254 237 c 128,-1,30
 240 241 240 241 222.5 246.5 c 128,-1,31
 205 252 205 252 196 255 c 128,-1,32
 187 258 187 258 160.5 268 c 128,-1,33
 134 278 134 278 123.5 285.5 c 128,-1,34
 113 293 113 293 94.5 307.5 c 128,-1,35
 76 322 76 322 68 338 c 0,36,37
 47 382 47 382 47 426 c 0,38,39
 47 508 47 508 102 554.5 c 128,-1,40
 157 601 157 601 266.5 601 c 128,-1,41
 376 601 376 601 478 567 c 1,42,-1
 455 447 l 1,43,44
 340 477 340 477 259 477 c 0,0,1
EndSplineSet
EndChar

StartChar: t
Encoding: 116 116 88
Width: 400
GlyphClass: 2
Flags: W
LayerCount: 2
Fore
SplineSet
248 559 m 1,0,-1
 368 559 l 1,1,-1
 368 440 l 1,2,-1
 246 440 l 1,3,-1
 246 193 l 2,4,5
 246 145 246 145 255 132 c 128,-1,6
 264 119 264 119 289 119 c 1,7,-1
 366 124 l 1,8,-1
 366 -2 l 1,9,10
 317 -13 317 -13 258 -13 c 0,11,12
 171 -13 171 -13 131 30.5 c 128,-1,13
 91 74 91 74 91 197 c 2,14,-1
 91 443 l 1,15,-1
 23 443 l 1,16,-1
 23 540 l 1,17,-1
 98 554 l 1,18,-1
 121 693 l 1,19,-1
 248 693 l 1,20,-1
 248 559 l 1,0,-1
EndSplineSet
EndChar

StartChar: u
Encoding: 117 117 89
Width: 632
GlyphClass: 2
Flags: W
LayerCount: 2
Fore
SplineSet
398 588 m 1,0,-1
 553 588 l 1,1,-1
 553 0 l 1,2,-1
 454 0 l 1,3,-1
 435 61 l 1,4,-1
 429 61 l 1,5,6
 393 39 393 39 369 26.5 c 128,-1,7
 345 14 345 14 305 0.5 c 128,-1,8
 265 -13 265 -13 230 -13 c 0,9,10
 137 -13 137 -13 101.5 44 c 128,-1,11
 66 101 66 101 66 205 c 2,12,-1
 66 588 l 1,13,-1
 221 588 l 1,14,-1
 221 220 l 2,15,16
 221 146 221 146 234 134 c 128,-1,17
 247 122 247 122 276 122 c 0,18,19
 337 122 337 122 398 164 c 1,20,-1
 398 588 l 1,0,-1
EndSplineSet
EndChar

StartChar: v
Encoding: 118 118 90
Width: 543
GlyphClass: 2
Flags: W
LayerCount: 2
Fore
SplineSet
535 588 m 1,0,-1
 364 0 l 1,1,-1
 180 0 l 1,2,-1
 9 588 l 1,3,-1
 170 588 l 1,4,-1
 269 132 l 1,5,-1
 275 132 l 1,6,-1
 374 588 l 1,7,-1
 535 588 l 1,0,-1
EndSplineSet
EndChar

StartChar: w
Encoding: 119 119 91
Width: 804
GlyphClass: 2
Flags: W
LayerCount: 2
Fore
SplineSet
789 588 m 1,0,-1
 673 0 l 1,1,-1
 477 0 l 1,2,-1
 408 395 l 1,3,-1
 402 395 l 1,4,-1
 333 0 l 1,5,-1
 137 0 l 1,6,-1
 20 588 l 1,7,-1
 176 588 l 1,8,-1
 237 114 l 1,9,-1
 243 114 l 1,10,-1
 312 507 l 1,11,-1
 498 507 l 1,12,-1
 568 114 l 1,13,-1
 574 114 l 1,14,-1
 633 588 l 1,15,-1
 789 588 l 1,0,-1
EndSplineSet
EndChar

StartChar: x
Encoding: 120 120 92
Width: 582
GlyphClass: 2
Flags: W
LayerCount: 2
Fore
SplineSet
379 309 m 1,0,-1
 570 0 l 1,1,-1
 396 0 l 1,2,-1
 290 217 l 1,3,-1
 284 217 l 1,4,-1
 178 0 l 1,5,-1
 4 0 l 1,6,-1
 195 309 l 1,7,-1
 13 588 l 1,8,-1
 183 588 l 1,9,-1
 284 395 l 1,10,-1
 290 395 l 1,11,-1
 391 588 l 1,12,-1
 561 588 l 1,13,-1
 379 309 l 1,0,-1
EndSplineSet
EndChar

StartChar: y
Encoding: 121 121 93
Width: 540
GlyphClass: 2
Flags: W
LayerCount: 2
Fore
SplineSet
117 -166 m 1,0,-1
 204 51 l 1,1,-1
 -4 588 l 1,2,-1
 168 588 l 1,3,-1
 271 195 l 1,4,-1
 277 195 l 1,5,-1
 382 588 l 1,6,-1
 541 588 l 1,7,-1
 334 31 l 1,8,-1
 278 -166 l 1,9,-1
 117 -166 l 1,0,-1
EndSplineSet
EndChar

StartChar: z
Encoding: 122 122 94
Width: 506
GlyphClass: 2
Flags: W
LayerCount: 2
Fore
SplineSet
11 0 m 1,0,-1
 11 104 l 1,1,-1
 291 466 l 1,2,-1
 291 471 l 1,3,-1
 25 463 l 1,4,-1
 25 588 l 1,5,-1
 479 588 l 1,6,-1
 479 484 l 1,7,-1
 202 121 l 1,8,-1
 202 115 l 1,9,-1
 486 125 l 1,10,-1
 486 0 l 1,11,-1
 11 0 l 1,0,-1
EndSplineSet
EndChar

StartChar: braceleft
Encoding: 123 123 95
Width: 464
GlyphClass: 2
Flags: W
LayerCount: 2
Fore
SplineSet
159 489 m 2,0,-1
 159 583 l 2,1,2
 159 791 159 791 359 791 c 0,3,4
 410 791 410 791 452 785 c 1,5,-1
 444 675 l 1,6,7
 376 680 376 680 355 680 c 128,-1,8
 334 680 334 680 324 662 c 128,-1,9
 314 644 314 644 314 581 c 2,10,-1
 314 488 l 2,11,12
 314 381 314 381 228 345 c 1,13,-1
 228 339 l 1,14,15
 314 300 314 300 314 193 c 2,16,-1
 314 92 l 2,17,18
 314 26 314 26 323 7 c 128,-1,19
 332 -12 332 -12 357 -12 c 1,20,-1
 444 -8 l 1,21,-1
 452 -119 l 1,22,23
 414 -123 414 -123 362 -123 c 0,24,25
 159 -123 159 -123 159 92 c 2,26,-1
 159 196 l 2,27,28
 159 248 159 248 136 264 c 128,-1,29
 113 280 113 280 34 291 c 1,30,-1
 34 394 l 1,31,32
 111 404 111 404 135 421 c 128,-1,33
 159 438 159 438 159 489 c 2,0,-1
EndSplineSet
EndChar

StartChar: bar
Encoding: 124 124 96
Width: 280
GlyphClass: 2
Flags: W
LayerCount: 2
Fore
SplineSet
199 -94 m 1,0,-1
 81 -94 l 1,1,-1
 81 774 l 1,2,-1
 199 774 l 1,3,-1
 199 -94 l 1,0,-1
EndSplineSet
EndChar

StartChar: braceright
Encoding: 125 125 97
Width: 464
GlyphClass: 2
Flags: W
LayerCount: 2
Fore
SplineSet
305 196 m 2,0,-1
 305 92 l 2,1,2
 305 -123 305 -123 102 -123 c 1,3,-1
 12 -119 l 1,4,-1
 20 -8 l 1,5,6
 77 -12 77 -12 104.5 -12 c 128,-1,7
 132 -12 132 -12 141 7 c 128,-1,8
 150 26 150 26 150 92 c 2,9,-1
 150 193 l 2,10,11
 150 300 150 300 236 339 c 1,12,-1
 236 345 l 1,13,14
 150 381 150 381 150 488 c 2,15,-1
 150 581 l 2,16,17
 150 644 150 644 140 662 c 128,-1,18
 130 680 130 680 103 680 c 1,19,-1
 20 675 l 1,20,-1
 12 785 l 1,21,22
 47 791 47 791 105 791 c 0,23,24
 305 791 305 791 305 583 c 2,25,-1
 305 489 l 2,26,27
 305 438 305 438 329 421 c 128,-1,28
 353 404 353 404 430 394 c 1,29,-1
 430 291 l 1,30,31
 351 280 351 280 328 264 c 128,-1,32
 305 248 305 248 305 196 c 2,0,-1
EndSplineSet
EndChar

StartChar: asciitilde
Encoding: 126 126 98
Width: 672
GlyphClass: 2
Flags: W
LayerCount: 2
Fore
SplineSet
467 190 m 0,0,1
 426 190 426 190 329.5 224.5 c 128,-1,2
 233 259 233 259 199.5 259 c 128,-1,3
 166 259 166 259 119 234 c 1,4,-1
 72 317 l 1,5,6
 90 336 90 336 101.5 346.5 c 128,-1,7
 113 357 113 357 142 370.5 c 128,-1,8
 171 384 171 384 207 384 c 128,-1,9
 243 384 243 384 340.5 349.5 c 128,-1,10
 438 315 438 315 470.5 315 c 128,-1,11
 503 315 503 315 553 341 c 1,12,-1
 599 258 l 1,13,14
 543 190 543 190 467 190 c 0,0,1
EndSplineSet
EndChar

StartChar: exclamdown
Encoding: 161 161 99
Width: 291
GlyphClass: 2
Flags: W
LayerCount: 2
Fore
SplineSet
79 385 m 1,0,-1
 214 385 l 1,1,-1
 231 -114 l 1,2,-1
 63 -114 l 1,3,-1
 79 385 l 1,0,-1
58 454 m 1,4,-1
 58 588 l 1,5,-1
 233 588 l 1,6,-1
 233 454 l 1,7,-1
 58 454 l 1,4,-1
EndSplineSet
EndChar

StartChar: cent
Encoding: 162 162 100
Width: 543
GlyphClass: 2
Flags: W
LayerCount: 2
Fore
SplineSet
375 -116 m 1,0,-1
 251 -116 l 1,1,-1
 251 -7 l 1,2,3
 48 31 48 31 48 291.5 c 128,-1,4
 48 552 48 552 251 593 c 1,5,-1
 251 693 l 1,6,-1
 375 693 l 1,7,-1
 375 600 l 1,8,9
 438 597 438 597 509 579 c 1,10,-1
 492 462 l 1,11,12
 388 478 388 478 328 478 c 128,-1,13
 268 478 268 478 245 457 c 0,14,15
 208 423 208 423 208 292.5 c 128,-1,16
 208 162 208 162 256 125 c 0,17,18
 276 110 276 110 306 110 c 0,19,20
 362 110 362 110 452 146 c 2,21,-1
 482 158 l 1,22,-1
 524 48 l 1,23,24
 464 5 464 5 375 -8 c 1,25,-1
 375 -116 l 1,0,-1
EndSplineSet
EndChar

StartChar: sterling
Encoding: 163 163 101
Width: 599
GlyphClass: 2
Flags: W
LayerCount: 2
Fore
SplineSet
50 325 m 1,0,-1
 50 441 l 1,1,-1
 143 441 l 1,2,3
 153 597 153 597 230 660 c 0,4,5
 298 716 298 716 407 716 c 0,6,7
 479 716 479 716 567 693 c 1,8,-1
 551 569 l 1,9,10
 451 583 451 583 398 583 c 128,-1,11
 345 583 345 583 330 570 c 0,12,13
 303 547 303 547 299 441 c 1,14,-1
 485 441 l 1,15,-1
 485 325 l 1,16,-1
 297 325 l 1,17,-1
 297 132 l 1,18,-1
 551 134 l 1,19,-1
 551 0 l 1,20,-1
 50 0 l 1,21,-1
 50 132 l 1,22,-1
 142 132 l 1,23,-1
 142 325 l 1,24,-1
 50 325 l 1,0,-1
EndSplineSet
EndChar

StartChar: currency
Encoding: 164 164 102
Width: 653
GlyphClass: 2
Flags: W
LayerCount: 2
Fore
SplineSet
465 135 m 1,0,1
 400 98 400 98 329.5 98 c 128,-1,2
 259 98 259 98 194 135 c 1,3,-1
 132 73 l 1,4,-1
 53 153 l 1,5,-1
 114 214 l 1,6,7
 78 274 78 274 78 349.5 c 128,-1,8
 78 425 78 425 114 485 c 1,9,-1
 53 547 l 1,10,-1
 133 626 l 1,11,-1
 195 564 l 1,12,13
 258 601 258 601 328 601 c 128,-1,14
 398 601 398 601 463 563 c 1,15,-1
 526 626 l 1,16,-1
 605 546 l 1,17,-1
 544 485 l 1,18,19
 581 426 581 426 581 350 c 128,-1,20
 581 274 581 274 545 214 c 1,21,-1
 606 153 l 1,22,-1
 526 74 l 1,23,-1
 465 135 l 1,0,1
424 450.5 m 128,-1,25
 389 484 389 484 329.5 484 c 128,-1,26
 270 484 270 484 234.5 450.5 c 128,-1,27
 199 417 199 417 199 349.5 c 128,-1,28
 199 282 199 282 234.5 248.5 c 128,-1,29
 270 215 270 215 333.5 215 c 128,-1,30
 397 215 397 215 428 247 c 128,-1,31
 459 279 459 279 459 348 c 128,-1,24
 459 417 459 417 424 450.5 c 128,-1,25
EndSplineSet
EndChar

StartChar: yen
Encoding: 165 165 103
Width: 595
GlyphClass: 2
Flags: W
LayerCount: 2
Fore
SplineSet
46 286 m 1,0,-1
 46 384 l 1,1,-1
 156 384 l 1,2,-1
 3 703 l 1,3,-1
 170 703 l 1,4,-1
 293 384 l 1,5,-1
 299 384 l 1,6,-1
 422 703 l 1,7,-1
 589 703 l 1,8,-1
 436 384 l 1,9,-1
 544 384 l 1,10,-1
 544 286 l 1,11,-1
 46 286 l 1,0,-1
46 129 m 1,12,-1
 46 227 l 1,13,-1
 544 227 l 1,14,-1
 544 129 l 1,15,-1
 374 129 l 1,16,-1
 375 0 l 1,17,-1
 216 0 l 1,18,-1
 217 129 l 1,19,-1
 46 129 l 1,12,-1
EndSplineSet
EndChar

StartChar: brokenbar
Encoding: 166 166 104
Width: 280
GlyphClass: 2
Flags: W
LayerCount: 2
Fore
SplineSet
199 403 m 1,0,-1
 81 403 l 1,1,-1
 81 774 l 1,2,-1
 199 774 l 1,3,-1
 199 403 l 1,0,-1
81 269 m 1,4,-1
 199 269 l 1,5,-1
 199 -94 l 1,6,-1
 81 -94 l 1,7,-1
 81 269 l 1,4,-1
EndSplineSet
EndChar

StartChar: section
Encoding: 167 167 105
Width: 584
GlyphClass: 2
Flags: W
LayerCount: 2
Fore
SplineSet
499 406 m 128,-1,1
 541 373 541 373 541 306 c 128,-1,2
 541 239 541 239 478 195 c 1,3,4
 507 158 507 158 507 104 c 128,-1,5
 507 50 507 50 486 12 c 128,-1,6
 465 -26 465 -26 430 -48 c 0,7,8
 361 -93 361 -93 268 -93 c 0,9,10
 215 -93 215 -93 156 -78 c 128,-1,11
 97 -63 97 -63 64 -48 c 1,12,-1
 32 -32 l 1,13,-1
 75 95 l 1,14,15
 212 38 212 38 296 38 c 0,16,17
 328 38 328 38 336 43 c 0,18,19
 356 56 356 56 356 80 c 0,20,21
 356 95 356 95 348 103 c 128,-1,22
 340 111 340 111 335 115.5 c 128,-1,23
 330 120 330 120 319.5 124.5 c 128,-1,24
 309 129 309 129 302 132.5 c 128,-1,25
 295 136 295 136 281 140.5 c 128,-1,26
 267 145 267 145 259 148 c 0,27,28
 223 159 223 159 197.5 166.5 c 128,-1,29
 172 174 172 174 147 184 c 128,-1,30
 122 194 122 194 94 212 c 1,31,32
 39 250 39 250 39 327 c 128,-1,33
 39 404 39 404 102 449 c 1,34,35
 60 488 60 488 60 548 c 0,36,37
 60 625 60 625 126 670 c 128,-1,38
 192 715 192 715 294.5 715 c 128,-1,39
 397 715 397 715 480 685 c 1,40,-1
 453 557 l 1,41,42
 355 585 355 585 296 585 c 128,-1,43
 237 585 237 585 224 576.5 c 128,-1,44
 211 568 211 568 211 551.5 c 128,-1,45
 211 535 211 535 215.5 527 c 128,-1,46
 220 519 220 519 230.5 512 c 128,-1,47
 241 505 241 505 251.5 499.5 c 128,-1,48
 262 494 262 494 280 488.5 c 128,-1,49
 298 483 298 483 312 480 c 0,50,51
 363 466 363 466 383 460 c 0,52,0
 457 439 457 439 499 406 c 128,-1,1
373 256 m 1,53,54
 387 270 387 270 387 289 c 128,-1,55
 387 308 387 308 369.5 319 c 128,-1,56
 352 330 352 330 296 350 c 128,-1,57
 240 370 240 370 207 380 c 1,58,59
 189 355 189 355 189 338.5 c 128,-1,60
 189 322 189 322 205 312 c 128,-1,61
 221 302 221 302 256 291 c 128,-1,62
 291 280 291 280 323 271 c 128,-1,63
 355 262 355 262 373 256 c 1,53,54
EndSplineSet
EndChar

StartChar: dieresis
Encoding: 168 168 106
Width: 618
GlyphClass: 2
Flags: W
LayerCount: 2
Fore
SplineSet
260 668 m 1,0,-1
 113 668 l 1,1,-1
 113 776 l 1,2,-1
 260 776 l 1,3,-1
 260 668 l 1,0,-1
505 668 m 1,4,-1
 358 668 l 1,5,-1
 358 776 l 1,6,-1
 505 776 l 1,7,-1
 505 668 l 1,4,-1
EndSplineSet
EndChar

StartChar: copyright
Encoding: 169 169 107
Width: 832
GlyphClass: 2
Flags: W
LayerCount: 2
Fore
SplineSet
152.5 55 m 128,-1,1
 50 159 50 159 50 319 c 128,-1,2
 50 479 50 479 155.5 584 c 128,-1,3
 261 689 261 689 418 689 c 128,-1,4
 575 689 575 689 678.5 585 c 128,-1,5
 782 481 782 481 782 320 c 128,-1,6
 782 159 782 159 678.5 55 c 128,-1,7
 575 -49 575 -49 415 -49 c 128,-1,0
 255 -49 255 -49 152.5 55 c 128,-1,1
217 523.5 m 128,-1,9
 142 448 142 448 142 319 c 128,-1,10
 142 190 142 190 214.5 115.5 c 128,-1,11
 287 41 287 41 415.5 41 c 128,-1,12
 544 41 544 41 617 116 c 128,-1,13
 690 191 690 191 690 320 c 128,-1,14
 690 449 690 449 617 524 c 128,-1,15
 544 599 544 599 418 599 c 128,-1,8
 292 599 292 599 217 523.5 c 128,-1,9
497.5 532 m 128,-1,17
 536 525 536 525 551 516 c 1,18,-1
 535 419 l 1,19,20
 469 430 469 430 433 430 c 128,-1,21
 397 430 397 430 385 418 c 0,22,23
 364 397 364 397 364 322.5 c 128,-1,24
 364 248 364 248 385 227 c 0,25,26
 395 217 395 217 416 217 c 0,27,28
 468 217 468 217 537 239 c 1,29,-1
 563 140 l 1,30,31
 533 124 533 124 498.5 116.5 c 128,-1,32
 464 109 464 109 425 109 c 0,33,34
 336 109 336 109 281.5 159.5 c 128,-1,35
 227 210 227 210 227 319 c 0,36,37
 227 451 227 451 290 498 c 0,38,39
 320 521 320 521 355 530 c 128,-1,40
 390 539 390 539 424.5 539 c 128,-1,16
 459 539 459 539 497.5 532 c 128,-1,17
EndSplineSet
EndChar

StartChar: ordfeminine
Encoding: 170 170 108
Width: 437
GlyphClass: 2
Flags: W
LayerCount: 2
Fore
SplineSet
192 555 m 2,0,-1
 266 555 l 1,1,2
 266 591 266 591 253.5 602 c 128,-1,3
 241 613 241 613 206 613 c 0,4,5
 147 613 147 613 66 588 c 1,6,-1
 40 683 l 1,7,8
 139 713 139 713 204 713 c 0,9,10
 381 713 381 713 381 557 c 2,11,-1
 381 298 l 1,12,-1
 297 298 l 1,13,-1
 278 336 l 1,14,-1
 274 336 l 1,15,16
 201 289 201 289 145 289 c 128,-1,17
 89 289 89 289 58 323.5 c 128,-1,18
 27 358 27 358 27 425.5 c 128,-1,19
 27 493 27 493 71.5 524 c 128,-1,20
 116 555 116 555 192 555 c 2,0,-1
266 462 m 1,21,22
 244 463 244 463 207.5 463 c 128,-1,23
 171 463 171 463 157 456 c 128,-1,24
 143 449 143 449 143 426 c 0,25,26
 143 389 143 389 178 389 c 0,27,28
 216 389 216 389 266 411 c 1,29,-1
 266 462 l 1,21,22
EndSplineSet
EndChar

StartChar: guillemotleft
Encoding: 171 171 109
Width: 585
GlyphClass: 2
Flags: W
LayerCount: 2
Fore
SplineSet
294 141 m 1,0,-1
 179 74 l 1,1,-1
 18 345 l 1,2,-1
 179 616 l 1,3,-1
 294 549 l 1,4,-1
 170 348 l 1,5,-1
 170 342 l 1,6,-1
 294 141 l 1,0,-1
568 145 m 1,7,-1
 454 78 l 1,8,-1
 295 345 l 1,9,-1
 454 612 l 1,10,-1
 568 545 l 1,11,-1
 447 348 l 1,12,-1
 447 342 l 1,13,-1
 568 145 l 1,7,-1
EndSplineSet
EndChar

StartChar: logicalnot
Encoding: 172 172 110
Width: 601
GlyphClass: 2
Flags: W
LayerCount: 2
Fore
SplineSet
578 119 m 1,0,-1
 441 119 l 1,1,-1
 441 226 l 1,2,-1
 6 226 l 1,3,-1
 6 359 l 1,4,-1
 578 359 l 1,5,-1
 578 119 l 1,0,-1
EndSplineSet
EndChar

StartChar: uni00AD
Encoding: 173 173 111
Width: 287
GlyphClass: 2
Flags: W
LayerCount: 2
Fore
SplineSet
17 261 m 1,0,-1
 17 393 l 1,1,-1
 275 393 l 1,2,-1
 275 261 l 1,3,-1
 17 261 l 1,0,-1
EndSplineSet
EndChar

StartChar: registered
Encoding: 174 174 112
Width: 832
GlyphClass: 2
Flags: W
LayerCount: 2
Fore
SplineSet
152.5 55 m 128,-1,1
 50 159 50 159 50 319 c 128,-1,2
 50 479 50 479 155.5 584 c 128,-1,3
 261 689 261 689 418 689 c 128,-1,4
 575 689 575 689 678.5 585 c 128,-1,5
 782 481 782 481 782 320 c 128,-1,6
 782 159 782 159 678.5 55 c 128,-1,7
 575 -49 575 -49 415 -49 c 128,-1,0
 255 -49 255 -49 152.5 55 c 128,-1,1
217 523.5 m 128,-1,9
 142 448 142 448 142 319 c 128,-1,10
 142 190 142 190 214.5 115.5 c 128,-1,11
 287 41 287 41 415.5 41 c 128,-1,12
 544 41 544 41 617 116 c 128,-1,13
 690 191 690 191 690 320 c 128,-1,14
 690 449 690 449 617 524 c 128,-1,15
 544 599 544 599 418 599 c 128,-1,8
 292 599 292 599 217 523.5 c 128,-1,9
366 120 m 1,16,-1
 248 120 l 1,17,-1
 251 309 l 1,18,-1
 249 522 l 1,19,20
 345 530 345 530 419 530 c 0,21,22
 586 530 586 530 586 395 c 0,23,24
 586 299 586 299 513 265 c 1,25,-1
 513 262 l 1,26,-1
 593 120 l 1,27,-1
 457 120 l 1,28,-1
 409 253 l 1,29,-1
 366 254 l 1,30,-1
 366 120 l 1,16,-1
366 350 m 1,31,32
 381 349 381 349 413 349 c 128,-1,33
 445 349 445 349 453 358.5 c 128,-1,34
 461 368 461 368 461 392 c 128,-1,35
 461 416 461 416 453 424.5 c 128,-1,36
 445 433 445 433 419.5 433 c 128,-1,37
 394 433 394 433 367 430 c 1,38,-1
 366 350 l 1,31,32
EndSplineSet
EndChar

StartChar: macron
Encoding: 175 175 113
Width: 596
GlyphClass: 2
Flags: W
LayerCount: 2
Fore
SplineSet
123 665 m 1,0,-1
 123 761 l 1,1,-1
 479 761 l 1,2,-1
 479 665 l 1,3,-1
 123 665 l 1,0,-1
EndSplineSet
EndChar

StartChar: degree
Encoding: 176 176 114
Width: 352
GlyphClass: 2
Flags: W
LayerCount: 2
Fore
SplineSet
55 688.5 m 128,-1,1
 104 730 104 730 175.5 730 c 128,-1,2
 247 730 247 730 296.5 688.5 c 128,-1,3
 346 647 346 647 346 560.5 c 128,-1,4
 346 474 346 474 296.5 432 c 128,-1,5
 247 390 247 390 176 390 c 128,-1,6
 105 390 105 390 55.5 432 c 128,-1,7
 6 474 6 474 6 560.5 c 128,-1,0
 6 647 6 647 55 688.5 c 128,-1,1
176 614 m 128,-1,9
 124 614 124 614 124 560 c 128,-1,10
 124 506 124 506 176 506 c 128,-1,11
 228 506 228 506 228 560 c 128,-1,8
 228 614 228 614 176 614 c 128,-1,9
EndSplineSet
EndChar

StartChar: plusminus
Encoding: 177 177 115
Width: 594
GlyphClass: 2
Flags: W
LayerCount: 2
Fore
SplineSet
30 132 m 1,0,-1
 564 132 l 1,1,-1
 564 0 l 1,2,-1
 30 0 l 1,3,-1
 30 132 l 1,0,-1
364 186 m 1,4,-1
 230 186 l 1,5,-1
 230 328 l 1,6,-1
 30 328 l 1,7,-1
 30 460 l 1,8,-1
 230 460 l 1,9,-1
 230 588 l 1,10,-1
 364 588 l 1,11,-1
 364 460 l 1,12,-1
 564 460 l 1,13,-1
 564 328 l 1,14,-1
 364 328 l 1,15,-1
 364 186 l 1,4,-1
EndSplineSet
EndChar

StartChar: twosuperior
Encoding: 178 178 116
Width: 412
GlyphClass: 2
Flags: W
LayerCount: 2
Fore
SplineSet
217 714 m 0,0,1
 272 714 272 714 310.5 681.5 c 128,-1,2
 349 649 349 649 349 593.5 c 128,-1,3
 349 538 349 538 277 453 c 1,4,-1
 229 400 l 1,5,-1
 362 404 l 1,6,-1
 362 298 l 1,7,-1
 58 298 l 1,8,-1
 58 376 l 1,9,10
 123 449 123 449 163 495 c 0,11,12
 229 569 229 569 229 591 c 0,13,14
 229 607 229 607 208 607 c 0,15,16
 163 607 163 607 85 563 c 1,17,-1
 41 665 l 1,18,19
 130 714 130 714 217 714 c 0,0,1
EndSplineSet
EndChar

StartChar: threesuperior
Encoding: 179 179 117
Width: 384
GlyphClass: 2
Flags: W
LayerCount: 2
Fore
SplineSet
190 398 m 0,0,1
 212 398 212 398 212 426 c 0,2,3
 212 461 212 461 177 461 c 2,4,-1
 94 461 l 1,5,-1
 94 550 l 1,6,7
 187 557 187 557 199 569 c 0,8,9
 204 574 204 574 204 587 c 128,-1,10
 204 600 204 600 200 604 c 128,-1,11
 196 608 196 608 165 608 c 128,-1,12
 134 608 134 608 64 599 c 1,13,-1
 52 701 l 1,14,15
 130 714 130 714 177 714 c 0,16,17
 326 714 326 714 326 597 c 0,18,19
 326 574 326 574 319 557 c 128,-1,20
 312 540 312 540 305 533 c 128,-1,21
 298 526 298 526 285 518 c 1,22,-1
 285 514 l 1,23,24
 338 488 338 488 338 427 c 0,25,26
 338 290 338 290 194 290 c 0,27,28
 124 290 124 290 32 318 c 1,29,-1
 59 419 l 1,30,31
 147 398 147 398 190 398 c 0,0,1
EndSplineSet
EndChar

StartChar: acute
Encoding: 180 180 118
Width: 625
GlyphClass: 2
Flags: W
LayerCount: 2
Fore
SplineSet
446 816 m 1,0,-1
 477 704 l 1,1,-1
 175 646 l 1,2,-1
 153 729 l 1,3,-1
 446 816 l 1,0,-1
EndSplineSet
EndChar

StartChar: mu
Encoding: 181 181 119
AltUni2: 0003bc.ffffffff.0
Width: 632
GlyphClass: 2
Flags: W
LayerCount: 2
Fore
SplineSet
308.5 0.5 m 128,-1,1
 270 -13 270 -13 244.5 -13 c 128,-1,2
 219 -13 219 -13 195 -5 c 1,3,-1
 190 -9 l 1,4,-1
 202 -166 l 1,5,-1
 66 -166 l 1,6,-1
 66 588 l 1,7,-1
 221 588 l 1,8,-1
 221 242 l 2,9,10
 221 146 221 146 234.5 134 c 128,-1,11
 248 122 248 122 276 122 c 0,12,13
 337 122 337 122 398 164 c 1,14,-1
 398 588 l 1,15,-1
 553 588 l 1,16,-1
 553 0 l 1,17,-1
 454 0 l 1,18,-1
 435 61 l 1,19,-1
 429 61 l 1,20,21
 389 38 389 38 368 26 c 128,-1,0
 347 14 347 14 308.5 0.5 c 128,-1,1
EndSplineSet
EndChar

StartChar: paragraph
Encoding: 182 182 120
Width: 735
GlyphClass: 2
Flags: W
LayerCount: 2
Fore
SplineSet
659 -166 m 1,0,-1
 504 -166 l 1,1,-1
 504 570 l 1,2,-1
 410 570 l 1,3,-1
 410 -166 l 1,4,-1
 256 -166 l 1,5,-1
 256 172 l 1,6,7
 143 179 143 179 85 240.5 c 128,-1,8
 27 302 27 302 27 442.5 c 128,-1,9
 27 583 27 583 93.5 643 c 128,-1,10
 160 703 160 703 290 703 c 2,11,-1
 659 703 l 1,12,-1
 659 -166 l 1,0,-1
EndSplineSet
EndChar

StartChar: periodcentered
Encoding: 183 183 121
Width: 353
GlyphClass: 2
Flags: W
LayerCount: 2
Fore
SplineSet
177 431 m 128,-1,1
 220 431 220 431 249 407.5 c 128,-1,2
 278 384 278 384 278 332 c 128,-1,3
 278 280 278 280 248.5 255 c 128,-1,4
 219 230 219 230 177 230 c 128,-1,5
 135 230 135 230 105 255 c 128,-1,6
 75 280 75 280 75 332 c 128,-1,7
 75 384 75 384 104.5 407.5 c 128,-1,0
 134 431 134 431 177 431 c 128,-1,1
EndSplineSet
EndChar

StartChar: cedilla
Encoding: 184 184 122
Width: 490
GlyphClass: 2
Flags: W
LayerCount: 2
Fore
SplineSet
363 40 m 1,0,1
 385 -26 385 -26 385 -72.5 c 128,-1,2
 385 -119 385 -119 353 -149 c 128,-1,3
 321 -179 321 -179 264 -179 c 0,4,5
 229 -179 229 -179 177 -170 c 1,6,-1
 177 -83 l 1,7,8
 222 -88 222 -88 250 -88 c 128,-1,9
 278 -88 278 -88 288 -82.5 c 128,-1,10
 298 -77 298 -77 298 -56 c 128,-1,11
 298 -35 298 -35 287 20 c 1,12,-1
 363 40 l 1,0,1
EndSplineSet
EndChar

StartChar: onesuperior
Encoding: 185 185 123
Width: 406
GlyphClass: 2
Flags: W
LayerCount: 2
Fore
SplineSet
65 298 m 1,0,-1
 65 404 l 1,1,-1
 164 404 l 1,2,-1
 164 581 l 1,3,-1
 160 581 l 1,4,-1
 86 527 l 1,5,-1
 27 613 l 1,6,-1
 189 713 l 1,7,-1
 283 706 l 1,8,-1
 283 404 l 1,9,-1
 368 404 l 1,10,-1
 368 298 l 1,11,-1
 65 298 l 1,0,-1
EndSplineSet
EndChar

StartChar: ordmasculine
Encoding: 186 186 124
Width: 378
GlyphClass: 2
Flags: W
LayerCount: 2
Fore
SplineSet
44 660 m 128,-1,1
 87 714 87 714 189.5 714 c 128,-1,2
 292 714 292 714 334.5 660 c 128,-1,3
 377 606 377 606 377 501.5 c 128,-1,4
 377 397 377 397 334.5 343 c 128,-1,5
 292 289 292 289 189.5 289 c 128,-1,6
 87 289 87 289 44 343.5 c 128,-1,7
 1 398 1 398 1 502 c 128,-1,0
 1 606 1 606 44 660 c 128,-1,1
237.5 587 m 128,-1,9
 224 608 224 608 189 608 c 128,-1,10
 154 608 154 608 141 587 c 128,-1,11
 128 566 128 566 128 501.5 c 128,-1,12
 128 437 128 437 141 416.5 c 128,-1,13
 154 396 154 396 188.5 396 c 128,-1,14
 223 396 223 396 237 417 c 128,-1,15
 251 438 251 438 251 502 c 128,-1,8
 251 566 251 566 237.5 587 c 128,-1,9
EndSplineSet
EndChar

StartChar: guillemotright
Encoding: 187 187 125
Width: 585
GlyphClass: 2
Flags: W
LayerCount: 2
Fore
SplineSet
406 74 m 1,0,-1
 291 141 l 1,1,-1
 415 342 l 1,2,-1
 415 348 l 1,3,-1
 291 549 l 1,4,-1
 406 616 l 1,5,-1
 567 345 l 1,6,-1
 406 74 l 1,0,-1
131 78 m 1,7,-1
 17 145 l 1,8,-1
 138 342 l 1,9,-1
 138 348 l 1,10,-1
 17 545 l 1,11,-1
 131 612 l 1,12,-1
 290 345 l 1,13,-1
 131 78 l 1,7,-1
EndSplineSet
EndChar

StartChar: onequarter
Encoding: 188 188 126
Width: 1031
GlyphClass: 2
Flags: W
LayerCount: 2
Fore
SplineSet
415 -9 m 1,0,-1
 270 -9 l 1,1,-1
 499 406 l 1,2,-1
 657 733 l 1,3,-1
 801 733 l 1,4,-1
 594 343 l 1,5,-1
 415 -9 l 1,0,-1
628 75 m 1,6,-1
 628 161 l 1,7,-1
 735 432 l 1,8,-1
 842 421 l 1,9,-1
 748 178 l 1,10,-1
 827 179 l 1,11,-1
 841 319 l 1,12,-1
 942 319 l 1,13,-1
 942 179 l 1,14,-1
 986 180 l 1,15,-1
 986 75 l 1,16,-1
 942 75 l 1,17,-1
 942 0 l 1,18,-1
 825 0 l 1,19,-1
 826 75 l 1,20,-1
 628 75 l 1,6,-1
65 298 m 1,21,-1
 65 404 l 1,22,-1
 164 404 l 1,23,-1
 164 581 l 1,24,-1
 160 581 l 1,25,-1
 86 527 l 1,26,-1
 27 613 l 1,27,-1
 189 713 l 1,28,-1
 283 706 l 1,29,-1
 283 404 l 1,30,-1
 368 404 l 1,31,-1
 368 298 l 1,32,-1
 65 298 l 1,21,-1
EndSplineSet
EndChar

StartChar: onehalf
Encoding: 189 189 127
Width: 1028
GlyphClass: 2
Flags: W
LayerCount: 2
Fore
SplineSet
412 -9 m 1,0,-1
 267 -9 l 1,1,-1
 496 406 l 1,2,-1
 654 733 l 1,3,-1
 798 733 l 1,4,-1
 591 343 l 1,5,-1
 412 -9 l 1,0,-1
65 298 m 1,6,-1
 65 404 l 1,7,-1
 164 404 l 1,8,-1
 164 581 l 1,9,-1
 160 581 l 1,10,-1
 86 527 l 1,11,-1
 27 613 l 1,12,-1
 189 713 l 1,13,-1
 283 706 l 1,14,-1
 283 404 l 1,15,-1
 368 404 l 1,16,-1
 368 298 l 1,17,-1
 65 298 l 1,6,-1
830 416 m 0,18,19
 885 416 885 416 923.5 383.5 c 128,-1,20
 962 351 962 351 962 295.5 c 128,-1,21
 962 240 962 240 890 155 c 1,22,-1
 842 102 l 1,23,-1
 975 106 l 1,24,-1
 975 0 l 1,25,-1
 671 0 l 1,26,-1
 671 78 l 1,27,28
 736 151 736 151 776 197 c 0,29,30
 842 271 842 271 842 293 c 0,31,32
 842 309 842 309 821 309 c 0,33,34
 776 309 776 309 698 265 c 1,35,-1
 654 367 l 1,36,37
 743 416 743 416 830 416 c 0,18,19
EndSplineSet
EndChar

StartChar: threequarters
Encoding: 190 190 128
Width: 953
GlyphClass: 2
Flags: W
LayerCount: 2
Fore
SplineSet
344 -9 m 1,0,-1
 199 -9 l 1,1,-1
 428 406 l 1,2,-1
 586 733 l 1,3,-1
 730 733 l 1,4,-1
 523 343 l 1,5,-1
 344 -9 l 1,0,-1
550 75 m 1,6,-1
 550 161 l 1,7,-1
 657 432 l 1,8,-1
 764 421 l 1,9,-1
 670 178 l 1,10,-1
 749 179 l 1,11,-1
 763 319 l 1,12,-1
 864 319 l 1,13,-1
 864 179 l 1,14,-1
 908 179 l 1,15,-1
 908 75 l 1,16,-1
 864 75 l 1,17,-1
 864 0 l 1,18,-1
 747 0 l 1,19,-1
 748 75 l 1,20,-1
 550 75 l 1,6,-1
188 398 m 0,21,22
 210 398 210 398 210 426 c 0,23,24
 210 461 210 461 175 461 c 2,25,-1
 92 461 l 1,26,-1
 92 550 l 1,27,28
 185 557 185 557 197 569 c 0,29,30
 202 574 202 574 202 587 c 128,-1,31
 202 600 202 600 198 604 c 128,-1,32
 194 608 194 608 163 608 c 128,-1,33
 132 608 132 608 62 599 c 1,34,-1
 50 701 l 1,35,36
 128 714 128 714 175 714 c 0,37,38
 324 714 324 714 324 597 c 0,39,40
 324 574 324 574 317 557 c 128,-1,41
 310 540 310 540 303 533 c 128,-1,42
 296 526 296 526 283 518 c 1,43,-1
 283 514 l 1,44,45
 336 488 336 488 336 427 c 0,46,47
 336 290 336 290 192 290 c 0,48,49
 122 290 122 290 30 318 c 1,50,-1
 57 419 l 1,51,52
 145 398 145 398 188 398 c 0,21,22
EndSplineSet
EndChar

StartChar: questiondown
Encoding: 191 191 129
Width: 493
GlyphClass: 2
Flags: W
LayerCount: 2
Fore
SplineSet
372 386 m 1,0,-1
 372 367 l 2,1,2
 372 288 372 288 331 244 c 0,3,4
 309 221 309 221 294 208.5 c 128,-1,5
 279 196 279 196 248 175 c 0,6,7
 168 121 168 121 168 70 c 0,8,9
 168 39 168 39 187 25 c 128,-1,10
 206 11 206 11 242 11 c 0,11,12
 308 11 308 11 404 42 c 1,13,-1
 436 53 l 1,14,-1
 484 -65 l 1,15,16
 443 -89 443 -89 374 -108 c 128,-1,17
 305 -127 305 -127 250 -127 c 0,18,19
 143 -127 143 -127 75.5 -71.5 c 128,-1,20
 8 -16 8 -16 8 70 c 0,21,22
 8 144 8 144 54 192 c 0,23,24
 93 232 93 232 132.5 258 c 128,-1,25
 172 284 172 284 185 295 c 128,-1,26
 198 306 198 306 212 330 c 128,-1,27
 226 354 226 354 229 386 c 1,28,-1
 372 386 l 1,0,-1
212 455 m 1,29,-1
 212 589 l 1,30,-1
 387 589 l 1,31,-1
 387 455 l 1,32,-1
 212 455 l 1,29,-1
EndSplineSet
EndChar

StartChar: Agrave
Encoding: 192 192 130
Width: 573
GlyphClass: 2
Flags: W
LayerCount: 2
Fore
SplineSet
148 0 m 1,0,-1
 -11 0 l 1,1,-1
 190 703 l 1,2,-1
 378 703 l 1,3,-1
 579 0 l 1,4,-1
 420 0 l 1,5,-1
 380 156 l 1,6,-1
 188 156 l 1,7,-1
 148 0 l 1,0,-1
350 288 m 1,8,-1
 287 559 l 1,9,-1
 281 559 l 1,10,-1
 218 288 l 1,11,-1
 350 288 l 1,8,-1
123 799 m 1,12,-1
 148 909 l 1,13,-1
 447 835 l 1,14,-1
 430 752 l 1,15,-1
 123 799 l 1,12,-1
EndSplineSet
EndChar

StartChar: Aacute
Encoding: 193 193 131
Width: 573
GlyphClass: 2
Flags: W
LayerCount: 2
Fore
SplineSet
148 0 m 1,0,-1
 -11 0 l 1,1,-1
 190 703 l 1,2,-1
 378 703 l 1,3,-1
 579 0 l 1,4,-1
 420 0 l 1,5,-1
 380 156 l 1,6,-1
 188 156 l 1,7,-1
 148 0 l 1,0,-1
350 288 m 1,8,-1
 287 559 l 1,9,-1
 281 559 l 1,10,-1
 218 288 l 1,11,-1
 350 288 l 1,8,-1
430 910 m 1,12,-1
 458 800 l 1,13,-1
 156 750 l 1,14,-1
 136 833 l 1,15,-1
 430 910 l 1,12,-1
EndSplineSet
EndChar

StartChar: Acircumflex
Encoding: 194 194 132
Width: 573
GlyphClass: 2
Flags: W
LayerCount: 2
Fore
SplineSet
148 0 m 1,0,-1
 -11 0 l 1,1,-1
 190 703 l 1,2,-1
 378 703 l 1,3,-1
 579 0 l 1,4,-1
 420 0 l 1,5,-1
 380 156 l 1,6,-1
 188 156 l 1,7,-1
 148 0 l 1,0,-1
350 288 m 1,8,-1
 287 559 l 1,9,-1
 281 559 l 1,10,-1
 218 288 l 1,11,-1
 350 288 l 1,8,-1
488 805 m 1,12,-1
 455 744 l 1,13,-1
 288 803 l 1,14,-1
 281 803 l 1,15,-1
 114 744 l 1,16,-1
 81 805 l 1,17,-1
 248 905 l 1,18,-1
 321 905 l 1,19,-1
 488 805 l 1,12,-1
EndSplineSet
EndChar

StartChar: Atilde
Encoding: 195 195 133
Width: 573
GlyphClass: 2
Flags: W
LayerCount: 2
Fore
SplineSet
148 0 m 1,0,-1
 -11 0 l 1,1,-1
 190 703 l 1,2,-1
 378 703 l 1,3,-1
 579 0 l 1,4,-1
 420 0 l 1,5,-1
 380 156 l 1,6,-1
 188 156 l 1,7,-1
 148 0 l 1,0,-1
350 288 m 1,8,-1
 287 559 l 1,9,-1
 281 559 l 1,10,-1
 218 288 l 1,11,-1
 350 288 l 1,8,-1
178 886 m 0,12,13
 212 886 212 886 292 864.5 c 128,-1,14
 372 843 372 843 380.5 843 c 128,-1,15
 389 843 389 843 397 853 c 128,-1,16
 405 863 405 863 413 883 c 1,17,-1
 488 871 l 1,18,19
 485 746 485 746 393 746 c 0,20,21
 360 746 360 746 279 768.5 c 128,-1,22
 198 791 198 791 190 791 c 0,23,24
 175 791 175 791 162 760 c 1,25,-1
 157 750 l 1,26,-1
 81 760 l 1,27,28
 84 886 84 886 178 886 c 0,12,13
EndSplineSet
EndChar

StartChar: Adieresis
Encoding: 196 196 134
Width: 573
GlyphClass: 2
Flags: W
LayerCount: 2
Fore
SplineSet
148 0 m 1,0,-1
 -11 0 l 1,1,-1
 190 703 l 1,2,-1
 378 703 l 1,3,-1
 579 0 l 1,4,-1
 420 0 l 1,5,-1
 380 156 l 1,6,-1
 188 156 l 1,7,-1
 148 0 l 1,0,-1
350 288 m 1,8,-1
 287 559 l 1,9,-1
 281 559 l 1,10,-1
 218 288 l 1,11,-1
 350 288 l 1,8,-1
235 766 m 1,12,-1
 88 766 l 1,13,-1
 88 874 l 1,14,-1
 235 874 l 1,15,-1
 235 766 l 1,12,-1
480 766 m 1,16,-1
 333 766 l 1,17,-1
 333 874 l 1,18,-1
 480 874 l 1,19,-1
 480 766 l 1,16,-1
EndSplineSet
EndChar

StartChar: Aring
Encoding: 197 197 135
Width: 573
GlyphClass: 2
Flags: W
LayerCount: 2
Fore
SplineSet
148 0 m 1,0,-1
 -11 0 l 1,1,-1
 190 703 l 1,2,-1
 378 703 l 1,3,-1
 579 0 l 1,4,-1
 420 0 l 1,5,-1
 380 156 l 1,6,-1
 188 156 l 1,7,-1
 148 0 l 1,0,-1
350 288 m 1,8,-1
 287 559 l 1,9,-1
 281 559 l 1,10,-1
 218 288 l 1,11,-1
 350 288 l 1,8,-1
285 922 m 0,12,13
 391 922 391 922 391 827 c 0,14,15
 391 777 391 777 361 755 c 128,-1,16
 331 733 331 733 285.5 733 c 128,-1,17
 240 733 240 733 209 755 c 128,-1,18
 178 777 178 777 178 827.5 c 128,-1,19
 178 878 178 878 208.5 900 c 128,-1,20
 239 922 239 922 285 922 c 0,12,13
285 857 m 128,-1,22
 265 857 265 857 257 851 c 128,-1,23
 249 845 249 845 249 827.5 c 128,-1,24
 249 810 249 810 257.5 803.5 c 128,-1,25
 266 797 266 797 285 797 c 128,-1,26
 304 797 304 797 312 803.5 c 128,-1,27
 320 810 320 810 320 827.5 c 128,-1,28
 320 845 320 845 312.5 851 c 128,-1,21
 305 857 305 857 285 857 c 128,-1,22
EndSplineSet
EndChar

StartChar: AE
Encoding: 198 198 136
Width: 849
GlyphClass: 2
Flags: W
LayerCount: 2
Fore
SplineSet
381 0 m 1,0,-1
 381 156 l 1,1,-1
 210 156 l 1,2,-1
 142 0 l 1,3,-1
 -17 0 l 1,4,-1
 301 703 l 1,5,-1
 803 703 l 1,6,-1
 803 567 l 1,7,-1
 537 570 l 1,8,-1
 533 422 l 1,9,-1
 778 422 l 1,10,-1
 778 290 l 1,11,-1
 533 290 l 1,12,-1
 537 132 l 1,13,-1
 803 134 l 1,14,-1
 803 0 l 1,15,-1
 381 0 l 1,0,-1
381 288 m 1,16,-1
 381 549 l 1,17,-1
 363 549 l 1,18,-1
 251 288 l 1,19,-1
 381 288 l 1,16,-1
EndSplineSet
EndChar

StartChar: Ccedilla
Encoding: 199 199 137
Width: 618
GlyphClass: 2
Flags: W
LayerCount: 2
Fore
SplineSet
538 563 m 1,0,1
 414 578 414 578 348 578 c 128,-1,2
 282 578 282 578 259 560 c 0,3,4
 214 524 214 524 214 342 c 0,5,6
 214 259 214 259 228.5 206 c 128,-1,7
 243 153 243 153 264.5 137 c 128,-1,8
 286 121 286 121 328.5 121 c 128,-1,9
 371 121 371 121 422 134.5 c 128,-1,10
 473 148 473 148 538 174 c 1,11,-1
 583 56 l 1,12,13
 513 12 513 12 415 -5 c 1,14,15
 423 -35 423 -35 423 -68 c 0,16,17
 423 -119 423 -119 391 -149 c 128,-1,18
 359 -179 359 -179 302 -179 c 0,19,20
 267 -179 267 -179 215 -170 c 1,21,-1
 215 -83 l 1,22,23
 260 -88 260 -88 288 -88 c 128,-1,24
 316 -88 316 -88 326 -82.5 c 128,-1,25
 336 -77 336 -77 336 -56 c 128,-1,26
 336 -35 336 -35 331 -13 c 1,27,28
 50 -11 50 -11 50 345 c 0,29,30
 50 521 50 521 106 608 c 0,31,32
 132 649 132 649 171.5 673.5 c 128,-1,33
 211 698 211 698 253.5 707 c 128,-1,34
 296 716 296 716 343 716 c 128,-1,35
 390 716 390 716 453.5 708.5 c 128,-1,36
 517 701 517 701 555 691 c 1,37,-1
 538 563 l 1,0,1
EndSplineSet
EndChar

StartChar: Egrave
Encoding: 200 200 138
Width: 551
GlyphClass: 2
Flags: W
LayerCount: 2
Fore
SplineSet
83 0 m 1,0,-1
 83 703 l 1,1,-1
 505 703 l 1,2,-1
 505 567 l 1,3,-1
 239 570 l 1,4,-1
 235 422 l 1,5,-1
 480 422 l 1,6,-1
 480 290 l 1,7,-1
 235 290 l 1,8,-1
 239 132 l 1,9,-1
 505 134 l 1,10,-1
 505 0 l 1,11,-1
 83 0 l 1,0,-1
122 799 m 1,12,-1
 147 909 l 1,13,-1
 446 835 l 1,14,-1
 429 752 l 1,15,-1
 122 799 l 1,12,-1
EndSplineSet
EndChar

StartChar: Eacute
Encoding: 201 201 139
Width: 551
GlyphClass: 2
Flags: W
LayerCount: 2
Fore
SplineSet
83 0 m 1,0,-1
 83 703 l 1,1,-1
 505 703 l 1,2,-1
 505 567 l 1,3,-1
 239 570 l 1,4,-1
 235 422 l 1,5,-1
 480 422 l 1,6,-1
 480 290 l 1,7,-1
 235 290 l 1,8,-1
 239 132 l 1,9,-1
 505 134 l 1,10,-1
 505 0 l 1,11,-1
 83 0 l 1,0,-1
397 910 m 1,12,-1
 425 800 l 1,13,-1
 123 750 l 1,14,-1
 103 833 l 1,15,-1
 397 910 l 1,12,-1
EndSplineSet
EndChar

StartChar: Ecircumflex
Encoding: 202 202 140
Width: 551
GlyphClass: 2
Flags: W
LayerCount: 2
Fore
SplineSet
83 0 m 1,0,-1
 83 703 l 1,1,-1
 505 703 l 1,2,-1
 505 567 l 1,3,-1
 239 570 l 1,4,-1
 235 422 l 1,5,-1
 480 422 l 1,6,-1
 480 290 l 1,7,-1
 235 290 l 1,8,-1
 239 132 l 1,9,-1
 505 134 l 1,10,-1
 505 0 l 1,11,-1
 83 0 l 1,0,-1
485 805 m 1,12,-1
 452 744 l 1,13,-1
 285 803 l 1,14,-1
 278 803 l 1,15,-1
 111 744 l 1,16,-1
 78 805 l 1,17,-1
 245 905 l 1,18,-1
 318 905 l 1,19,-1
 485 805 l 1,12,-1
EndSplineSet
EndChar

StartChar: Edieresis
Encoding: 203 203 141
Width: 551
GlyphClass: 2
Flags: W
LayerCount: 2
Fore
SplineSet
83 0 m 1,0,-1
 83 703 l 1,1,-1
 505 703 l 1,2,-1
 505 567 l 1,3,-1
 239 570 l 1,4,-1
 235 422 l 1,5,-1
 480 422 l 1,6,-1
 480 290 l 1,7,-1
 235 290 l 1,8,-1
 239 132 l 1,9,-1
 505 134 l 1,10,-1
 505 0 l 1,11,-1
 83 0 l 1,0,-1
246 766 m 1,12,-1
 99 766 l 1,13,-1
 99 874 l 1,14,-1
 246 874 l 1,15,-1
 246 766 l 1,12,-1
491 766 m 1,16,-1
 344 766 l 1,17,-1
 344 874 l 1,18,-1
 491 874 l 1,19,-1
 491 766 l 1,16,-1
EndSplineSet
EndChar

StartChar: Igrave
Encoding: 204 204 142
Width: 324
GlyphClass: 2
Flags: W
LayerCount: 2
Fore
SplineSet
-21 799 m 1,0,-1
 5 909 l 1,1,-1
 289 834 l 1,2,-1
 271 751 l 1,3,-1
 -21 799 l 1,0,-1
238 390 m 1,4,-1
 241 0 l 1,5,-1
 83 0 l 1,6,-1
 87 324 l 1,7,-1
 83 703 l 1,8,-1
 241 703 l 1,9,-1
 238 390 l 1,4,-1
EndSplineSet
EndChar

StartChar: Iacute
Encoding: 205 205 143
Width: 324
GlyphClass: 2
Flags: W
LayerCount: 2
Fore
SplineSet
313 910 m 1,0,-1
 339 800 l 1,1,-1
 47 750 l 1,2,-1
 29 833 l 1,3,-1
 313 910 l 1,0,-1
238 390 m 1,4,-1
 241 0 l 1,5,-1
 83 0 l 1,6,-1
 87 324 l 1,7,-1
 83 703 l 1,8,-1
 241 703 l 1,9,-1
 238 390 l 1,4,-1
EndSplineSet
EndChar

StartChar: Icircumflex
Encoding: 206 206 144
Width: 324
GlyphClass: 2
Flags: W
LayerCount: 2
Fore
SplineSet
347 815 m 1,0,-1
 314 750 l 1,1,-1
 165 803 l 1,2,-1
 158 803 l 1,3,-1
 8 750 l 1,4,-1
 -25 815 l 1,5,-1
 125 905 l 1,6,-1
 198 905 l 1,7,-1
 347 815 l 1,0,-1
238 390 m 1,8,-1
 241 0 l 1,9,-1
 83 0 l 1,10,-1
 87 324 l 1,11,-1
 83 703 l 1,12,-1
 241 703 l 1,13,-1
 238 390 l 1,8,-1
EndSplineSet
EndChar

StartChar: Idieresis
Encoding: 207 207 145
Width: 324
GlyphClass: 2
Flags: W
LayerCount: 2
Fore
SplineSet
124 766 m 1,0,-1
 -19 766 l 1,1,-1
 -19 874 l 1,2,-1
 124 874 l 1,3,-1
 124 766 l 1,0,-1
343 766 m 1,4,-1
 200 766 l 1,5,-1
 200 874 l 1,6,-1
 343 874 l 1,7,-1
 343 766 l 1,4,-1
238 390 m 1,8,-1
 241 0 l 1,9,-1
 83 0 l 1,10,-1
 87 324 l 1,11,-1
 83 703 l 1,12,-1
 241 703 l 1,13,-1
 238 390 l 1,8,-1
EndSplineSet
EndChar

StartChar: Eth
Encoding: 208 208 146
Width: 686
GlyphClass: 2
Flags: W
LayerCount: 2
Fore
SplineSet
30 299 m 1,0,-1
 30 415 l 1,1,-1
 96 415 l 1,2,-1
 96 702 l 1,3,4
 266 716 266 716 341.5 716 c 128,-1,5
 417 716 417 716 469.5 696.5 c 128,-1,6
 522 677 522 677 553 645.5 c 128,-1,7
 584 614 584 614 604 566 c 0,8,9
 636 486 636 486 636 360 c 0,10,11
 636 161 636 161 557 74 c 128,-1,12
 478 -13 478 -13 335 -13 c 0,13,14
 267 -13 267 -13 96 0 c 1,15,-1
 96 299 l 1,16,-1
 30 299 l 1,0,-1
252 415 m 1,17,-1
 374 415 l 1,18,-1
 374 299 l 1,19,-1
 252 299 l 1,20,-1
 252 125 l 1,21,22
 294 120 294 120 348 120 c 128,-1,23
 402 120 402 120 423 139 c 1,24,25
 469 177 469 177 469 354.5 c 128,-1,26
 469 532 469 532 426 564 c 0,27,28
 404 581 404 581 349 581 c 1,29,-1
 252 575 l 1,30,-1
 252 415 l 1,17,-1
EndSplineSet
EndChar

StartChar: Ntilde
Encoding: 209 209 147
Width: 716
GlyphClass: 2
Flags: W
LayerCount: 2
Fore
SplineSet
83 703 m 1,0,-1
 279 703 l 1,1,-1
 496 204 l 1,2,-1
 502 204 l 1,3,-1
 490 703 l 1,4,-1
 635 703 l 1,5,-1
 635 0 l 1,6,-1
 439 0 l 1,7,-1
 222 499 l 1,8,-1
 216 499 l 1,9,-1
 228 0 l 1,10,-1
 83 0 l 1,11,-1
 83 703 l 1,0,-1
250 886 m 0,12,13
 284 886 284 886 364 864.5 c 128,-1,14
 444 843 444 843 452.5 843 c 128,-1,15
 461 843 461 843 469 853 c 128,-1,16
 477 863 477 863 485 883 c 1,17,-1
 560 871 l 1,18,19
 557 746 557 746 465 746 c 0,20,21
 432 746 432 746 351 768.5 c 128,-1,22
 270 791 270 791 262 791 c 0,23,24
 247 791 247 791 234 760 c 1,25,-1
 229 750 l 1,26,-1
 153 760 l 1,27,28
 156 886 156 886 250 886 c 0,12,13
EndSplineSet
EndChar

StartChar: Ograve
Encoding: 210 210 148
Width: 700
GlyphClass: 2
Flags: W
LayerCount: 2
Fore
SplineSet
350 -13 m 128,-1,1
 284 -13 284 -13 233.5 3 c 128,-1,2
 183 19 183 19 140 58 c 0,3,4
 50 138 50 138 50 353 c 0,5,6
 50 595 50 595 174 673 c 0,7,8
 241 716 241 716 350 716 c 0,9,10
 521 716 521 716 592 608 c 0,11,12
 650 520 650 520 650 353 c 0,13,14
 650 138 650 138 560 58 c 0,15,16
 517 19 517 19 466.5 3 c 128,-1,0
 416 -13 416 -13 350 -13 c 128,-1,1
228 496.5 m 128,-1,18
 213 447 213 447 213 351.5 c 128,-1,19
 213 256 213 256 228.5 206 c 128,-1,20
 244 156 244 156 271.5 140.5 c 128,-1,21
 299 125 299 125 350 125 c 128,-1,22
 401 125 401 125 428 141 c 0,23,24
 487 175 487 175 487 351 c 0,25,26
 487 529 487 529 430 562 c 0,27,28
 402 578 402 578 350 578 c 128,-1,29
 298 578 298 578 270.5 562 c 128,-1,17
 243 546 243 546 228 496.5 c 128,-1,18
200 799 m 1,30,-1
 225 909 l 1,31,-1
 524 835 l 1,32,-1
 507 752 l 1,33,-1
 200 799 l 1,30,-1
EndSplineSet
EndChar

StartChar: Oacute
Encoding: 211 211 149
Width: 700
GlyphClass: 2
Flags: W
LayerCount: 2
Fore
SplineSet
350 -13 m 128,-1,1
 284 -13 284 -13 233.5 3 c 128,-1,2
 183 19 183 19 140 58 c 0,3,4
 50 138 50 138 50 353 c 0,5,6
 50 595 50 595 174 673 c 0,7,8
 241 716 241 716 350 716 c 0,9,10
 521 716 521 716 592 608 c 0,11,12
 650 520 650 520 650 353 c 0,13,14
 650 138 650 138 560 58 c 0,15,16
 517 19 517 19 466.5 3 c 128,-1,0
 416 -13 416 -13 350 -13 c 128,-1,1
228 496.5 m 128,-1,18
 213 447 213 447 213 351.5 c 128,-1,19
 213 256 213 256 228.5 206 c 128,-1,20
 244 156 244 156 271.5 140.5 c 128,-1,21
 299 125 299 125 350 125 c 128,-1,22
 401 125 401 125 428 141 c 0,23,24
 487 175 487 175 487 351 c 0,25,26
 487 529 487 529 430 562 c 0,27,28
 402 578 402 578 350 578 c 128,-1,29
 298 578 298 578 270.5 562 c 128,-1,17
 243 546 243 546 228 496.5 c 128,-1,18
472 910 m 1,30,-1
 500 800 l 1,31,-1
 198 750 l 1,32,-1
 178 833 l 1,33,-1
 472 910 l 1,30,-1
EndSplineSet
EndChar

StartChar: Ocircumflex
Encoding: 212 212 150
Width: 700
GlyphClass: 2
Flags: W
LayerCount: 2
Fore
SplineSet
350 -13 m 128,-1,1
 284 -13 284 -13 233.5 3 c 128,-1,2
 183 19 183 19 140 58 c 0,3,4
 50 138 50 138 50 353 c 0,5,6
 50 595 50 595 174 673 c 0,7,8
 241 716 241 716 350 716 c 0,9,10
 521 716 521 716 592 608 c 0,11,12
 650 520 650 520 650 353 c 0,13,14
 650 138 650 138 560 58 c 0,15,16
 517 19 517 19 466.5 3 c 128,-1,0
 416 -13 416 -13 350 -13 c 128,-1,1
228 496.5 m 128,-1,18
 213 447 213 447 213 351.5 c 128,-1,19
 213 256 213 256 228.5 206 c 128,-1,20
 244 156 244 156 271.5 140.5 c 128,-1,21
 299 125 299 125 350 125 c 128,-1,22
 401 125 401 125 428 141 c 0,23,24
 487 175 487 175 487 351 c 0,25,26
 487 529 487 529 430 562 c 0,27,28
 402 578 402 578 350 578 c 128,-1,29
 298 578 298 578 270.5 562 c 128,-1,17
 243 546 243 546 228 496.5 c 128,-1,18
553 805 m 1,30,-1
 520 744 l 1,31,-1
 353 803 l 1,32,-1
 346 803 l 1,33,-1
 179 744 l 1,34,-1
 146 805 l 1,35,-1
 313 905 l 1,36,-1
 386 905 l 1,37,-1
 553 805 l 1,30,-1
EndSplineSet
EndChar

StartChar: Otilde
Encoding: 213 213 151
Width: 700
GlyphClass: 2
Flags: W
LayerCount: 2
Fore
SplineSet
350 -13 m 128,-1,1
 284 -13 284 -13 233.5 3 c 128,-1,2
 183 19 183 19 140 58 c 0,3,4
 50 138 50 138 50 353 c 0,5,6
 50 595 50 595 174 673 c 0,7,8
 241 716 241 716 350 716 c 0,9,10
 521 716 521 716 592 608 c 0,11,12
 650 520 650 520 650 353 c 0,13,14
 650 138 650 138 560 58 c 0,15,16
 517 19 517 19 466.5 3 c 128,-1,0
 416 -13 416 -13 350 -13 c 128,-1,1
228 496.5 m 128,-1,18
 213 447 213 447 213 351.5 c 128,-1,19
 213 256 213 256 228.5 206 c 128,-1,20
 244 156 244 156 271.5 140.5 c 128,-1,21
 299 125 299 125 350 125 c 128,-1,22
 401 125 401 125 428 141 c 0,23,24
 487 175 487 175 487 351 c 0,25,26
 487 529 487 529 430 562 c 0,27,28
 402 578 402 578 350 578 c 128,-1,29
 298 578 298 578 270.5 562 c 128,-1,17
 243 546 243 546 228 496.5 c 128,-1,18
243 886 m 0,30,31
 277 886 277 886 357 864.5 c 128,-1,32
 437 843 437 843 445.5 843 c 128,-1,33
 454 843 454 843 462 853 c 128,-1,34
 470 863 470 863 478 883 c 1,35,-1
 553 871 l 1,36,37
 550 746 550 746 458 746 c 0,38,39
 424 746 424 746 343.5 768.5 c 128,-1,40
 263 791 263 791 255 791 c 0,41,42
 240 791 240 791 226 760 c 1,43,-1
 222 750 l 1,44,-1
 146 760 l 1,45,46
 149 886 149 886 243 886 c 0,30,31
EndSplineSet
EndChar

StartChar: Odieresis
Encoding: 214 214 152
Width: 700
GlyphClass: 2
Flags: W
LayerCount: 2
Fore
SplineSet
350 -13 m 128,-1,1
 284 -13 284 -13 233.5 3 c 128,-1,2
 183 19 183 19 140 58 c 0,3,4
 50 138 50 138 50 353 c 0,5,6
 50 595 50 595 174 673 c 0,7,8
 241 716 241 716 350 716 c 0,9,10
 521 716 521 716 592 608 c 0,11,12
 650 520 650 520 650 353 c 0,13,14
 650 138 650 138 560 58 c 0,15,16
 517 19 517 19 466.5 3 c 128,-1,0
 416 -13 416 -13 350 -13 c 128,-1,1
228 496.5 m 128,-1,18
 213 447 213 447 213 351.5 c 128,-1,19
 213 256 213 256 228.5 206 c 128,-1,20
 244 156 244 156 271.5 140.5 c 128,-1,21
 299 125 299 125 350 125 c 128,-1,22
 401 125 401 125 428 141 c 0,23,24
 487 175 487 175 487 351 c 0,25,26
 487 529 487 529 430 562 c 0,27,28
 402 578 402 578 350 578 c 128,-1,29
 298 578 298 578 270.5 562 c 128,-1,17
 243 546 243 546 228 496.5 c 128,-1,18
301 766 m 1,30,-1
 154 766 l 1,31,-1
 154 874 l 1,32,-1
 301 874 l 1,33,-1
 301 766 l 1,30,-1
546 766 m 1,34,-1
 399 766 l 1,35,-1
 399 874 l 1,36,-1
 546 874 l 1,37,-1
 546 766 l 1,34,-1
EndSplineSet
EndChar

StartChar: multiply
Encoding: 215 215 153
Width: 591
GlyphClass: 2
Flags: W
LayerCount: 2
Fore
SplineSet
556 122 m 1,0,-1
 463 30 l 1,1,-1
 295 198 l 1,2,-1
 126 29 l 1,3,-1
 33 122 l 1,4,-1
 202 291 l 1,5,-1
 32 460 l 1,6,-1
 125 553 l 1,7,-1
 295 383 l 1,8,-1
 466 555 l 1,9,-1
 559 462 l 1,10,-1
 387 291 l 1,11,-1
 556 122 l 1,0,-1
EndSplineSet
EndChar

StartChar: Oslash
Encoding: 216 216 154
Width: 700
GlyphClass: 2
Flags: W
LayerCount: 2
Fore
SplineSet
50 353 m 0,0,1
 50 595 50 595 174 673 c 0,2,3
 241 716 241 716 350 716 c 0,4,5
 404 716 404 716 452 704 c 1,6,-1
 463 729 l 1,7,-1
 579 729 l 1,8,-1
 545 659 l 1,9,10
 650 574 650 574 650 353 c 0,11,12
 650 138 650 138 560 58 c 0,13,14
 517 19 517 19 466.5 3 c 128,-1,15
 416 -13 416 -13 351.5 -13 c 128,-1,16
 287 -13 287 -13 239 1 c 1,17,-1
 221 -39 l 1,18,-1
 104 -39 l 1,19,-1
 147 50 l 1,20,21
 50 139 50 139 50 353 c 0,0,1
298 130 m 1,22,23
 317 125 317 125 359 125 c 128,-1,24
 401 125 401 125 428 141 c 0,25,26
 487 175 487 175 487 351 c 0,27,28
 487 453 487 453 471 502 c 1,29,-1
 388 328 l 1,30,-1
 298 130 l 1,22,23
228 496.5 m 128,-1,32
 213 447 213 447 213 354.5 c 128,-1,33
 213 262 213 262 225 212 c 1,34,-1
 297 359 l 1,35,-1
 394 575 l 1,36,37
 375 578 375 578 336.5 578 c 128,-1,38
 298 578 298 578 270.5 562 c 128,-1,31
 243 546 243 546 228 496.5 c 128,-1,32
EndSplineSet
EndChar

StartChar: Ugrave
Encoding: 217 217 155
Width: 702
GlyphClass: 2
Flags: W
LayerCount: 2
Fore
SplineSet
462 703 m 1,0,-1
 619 703 l 1,1,-1
 619 317 l 2,2,3
 619 131 619 131 553.5 59 c 128,-1,4
 488 -13 488 -13 351.5 -13 c 128,-1,5
 215 -13 215 -13 149 58 c 128,-1,6
 83 129 83 129 83 309 c 2,7,-1
 83 703 l 1,8,-1
 240 703 l 1,9,-1
 240 335 l 2,10,11
 240 241 240 241 250.5 196 c 128,-1,12
 261 151 261 151 283 137 c 128,-1,13
 305 123 305 123 351.5 123.5 c 128,-1,14
 398 124 398 124 419.5 137.5 c 128,-1,15
 441 151 441 151 451.5 195 c 128,-1,16
 462 239 462 239 462 335 c 2,17,-1
 462 703 l 1,0,-1
199 799 m 1,18,-1
 224 909 l 1,19,-1
 523 835 l 1,20,-1
 506 752 l 1,21,-1
 199 799 l 1,18,-1
EndSplineSet
EndChar

StartChar: Uacute
Encoding: 218 218 156
Width: 702
GlyphClass: 2
Flags: W
LayerCount: 2
Fore
SplineSet
462 703 m 1,0,-1
 619 703 l 1,1,-1
 619 317 l 2,2,3
 619 131 619 131 553.5 59 c 128,-1,4
 488 -13 488 -13 351.5 -13 c 128,-1,5
 215 -13 215 -13 149 58 c 128,-1,6
 83 129 83 129 83 309 c 2,7,-1
 83 703 l 1,8,-1
 240 703 l 1,9,-1
 240 335 l 2,10,11
 240 241 240 241 250.5 196 c 128,-1,12
 261 151 261 151 283 137 c 128,-1,13
 305 123 305 123 351.5 123.5 c 128,-1,14
 398 124 398 124 419.5 137.5 c 128,-1,15
 441 151 441 151 451.5 195 c 128,-1,16
 462 239 462 239 462 335 c 2,17,-1
 462 703 l 1,0,-1
473 910 m 1,18,-1
 501 800 l 1,19,-1
 199 750 l 1,20,-1
 179 833 l 1,21,-1
 473 910 l 1,18,-1
EndSplineSet
EndChar

StartChar: Ucircumflex
Encoding: 219 219 157
Width: 702
GlyphClass: 2
Flags: W
LayerCount: 2
Fore
SplineSet
462 703 m 1,0,-1
 619 703 l 1,1,-1
 619 317 l 2,2,3
 619 131 619 131 553.5 59 c 128,-1,4
 488 -13 488 -13 351.5 -13 c 128,-1,5
 215 -13 215 -13 149 58 c 128,-1,6
 83 129 83 129 83 309 c 2,7,-1
 83 703 l 1,8,-1
 240 703 l 1,9,-1
 240 335 l 2,10,11
 240 241 240 241 250.5 196 c 128,-1,12
 261 151 261 151 283 137 c 128,-1,13
 305 123 305 123 351.5 123.5 c 128,-1,14
 398 124 398 124 419.5 137.5 c 128,-1,15
 441 151 441 151 451.5 195 c 128,-1,16
 462 239 462 239 462 335 c 2,17,-1
 462 703 l 1,0,-1
554 805 m 1,18,-1
 521 744 l 1,19,-1
 354 803 l 1,20,-1
 347 803 l 1,21,-1
 180 744 l 1,22,-1
 147 805 l 1,23,-1
 314 905 l 1,24,-1
 387 905 l 1,25,-1
 554 805 l 1,18,-1
EndSplineSet
EndChar

StartChar: Udieresis
Encoding: 220 220 158
Width: 702
GlyphClass: 2
Flags: W
LayerCount: 2
Fore
SplineSet
462 703 m 1,0,-1
 619 703 l 1,1,-1
 619 317 l 2,2,3
 619 131 619 131 553.5 59 c 128,-1,4
 488 -13 488 -13 351.5 -13 c 128,-1,5
 215 -13 215 -13 149 58 c 128,-1,6
 83 129 83 129 83 309 c 2,7,-1
 83 703 l 1,8,-1
 240 703 l 1,9,-1
 240 335 l 2,10,11
 240 241 240 241 250.5 196 c 128,-1,12
 261 151 261 151 283 137 c 128,-1,13
 305 123 305 123 351.5 123.5 c 128,-1,14
 398 124 398 124 419.5 137.5 c 128,-1,15
 441 151 441 151 451.5 195 c 128,-1,16
 462 239 462 239 462 335 c 2,17,-1
 462 703 l 1,0,-1
302 766 m 1,18,-1
 155 766 l 1,19,-1
 155 874 l 1,20,-1
 302 874 l 1,21,-1
 302 766 l 1,18,-1
547 766 m 1,22,-1
 400 766 l 1,23,-1
 400 874 l 1,24,-1
 547 874 l 1,25,-1
 547 766 l 1,22,-1
EndSplineSet
EndChar

StartChar: Yacute
Encoding: 221 221 159
Width: 580
GlyphClass: 2
Flags: W
LayerCount: 2
Fore
SplineSet
209 0 m 1,0,-1
 212 253 l 1,1,-1
 -4 703 l 1,2,-1
 163 703 l 1,3,-1
 286 381 l 1,4,-1
 292 381 l 1,5,-1
 415 703 l 1,6,-1
 582 703 l 1,7,-1
 366 253 l 1,8,-1
 368 0 l 1,9,-1
 209 0 l 1,0,-1
417 910 m 1,10,-1
 445 800 l 1,11,-1
 143 750 l 1,12,-1
 123 833 l 1,13,-1
 417 910 l 1,10,-1
EndSplineSet
EndChar

StartChar: Thorn
Encoding: 222 222 160
Width: 631
GlyphClass: 2
Flags: W
LayerCount: 2
Fore
SplineSet
238 703 m 1,0,-1
 238 620 l 1,1,2
 318 624 318 624 357 624 c 0,3,4
 469 624 469 624 529.5 561.5 c 128,-1,5
 590 499 590 499 590 377 c 0,6,7
 590 229 590 229 509 170 c 0,8,9
 439 120 439 120 334 120 c 1,10,-1
 238 123 l 1,11,-1
 238 0 l 1,12,-1
 81 0 l 1,13,-1
 85 366 l 1,14,-1
 81 703 l 1,15,-1
 238 703 l 1,0,-1
405 483 m 1,16,17
 391 497 391 497 336 497 c 128,-1,18
 281 497 281 497 238 492 c 1,19,-1
 238 259 l 1,20,21
 286 252 286 252 337.5 252 c 128,-1,22
 389 252 389 252 408.5 269 c 128,-1,23
 428 286 428 286 428 374.5 c 128,-1,24
 428 463 428 463 405 483 c 1,16,17
EndSplineSet
EndChar

StartChar: germandbls
Encoding: 223 223 161
Width: 671
GlyphClass: 2
Flags: W
LayerCount: 2
Fore
SplineSet
239 0 m 1,0,-1
 83 0 l 1,1,-1
 83 455 l 2,2,3
 83 523 83 523 104 575 c 128,-1,4
 125 627 125 627 161 657 c 0,5,6
 232 716 232 716 332.5 716 c 128,-1,7
 433 716 433 716 506 665 c 128,-1,8
 579 614 579 614 579 514 c 0,9,10
 579 464 579 464 554.5 426.5 c 128,-1,11
 530 389 530 389 498 373 c 1,12,-1
 498 367 l 1,13,14
 609 325 609 325 609 203 c 0,15,16
 609 144 609 144 589 100 c 128,-1,17
 569 56 569 56 535 32 c 0,18,19
 469 -13 469 -13 385 -13 c 1,20,-1
 310 -7 l 1,21,-1
 323 114 l 1,22,23
 343 113 343 113 377.5 113 c 128,-1,24
 412 113 412 113 429 136 c 128,-1,25
 446 159 446 159 446 210.5 c 128,-1,26
 446 262 446 262 421.5 283 c 128,-1,27
 397 304 397 304 349 304 c 2,28,-1
 329 304 l 1,29,-1
 329 422 l 1,30,31
 389 426 389 426 409 444.5 c 128,-1,32
 429 463 429 463 429 506 c 0,33,34
 429 593 429 593 331 593 c 0,35,36
 239 593 239 593 239 467 c 2,37,-1
 239 0 l 1,0,-1
EndSplineSet
EndChar

StartChar: agrave
Encoding: 224 224 162
Width: 622
GlyphClass: 2
Flags: W
LayerCount: 2
Fore
SplineSet
99.5 38 m 128,-1,1
 51 89 51 89 51 186 c 128,-1,2
 51 283 51 283 119.5 327 c 128,-1,3
 188 371 188 371 319 371 c 2,4,-1
 394 371 l 1,5,6
 394 438 394 438 381 457.5 c 128,-1,7
 368 477 368 477 322.5 477 c 128,-1,8
 277 477 277 477 221.5 467 c 128,-1,9
 166 457 166 457 98 437 c 1,10,-1
 66 549 l 1,11,12
 107 568 107 568 183.5 584.5 c 128,-1,13
 260 601 260 601 320 601 c 0,14,15
 443 601 443 601 496 544.5 c 128,-1,16
 549 488 549 488 549 380 c 2,17,-1
 549 0 l 1,18,-1
 451 0 l 1,19,-1
 431 65 l 1,20,-1
 425 65 l 1,21,22
 413 56 413 56 393.5 43 c 128,-1,23
 374 30 374 30 320 8.5 c 128,-1,24
 266 -13 266 -13 222 -13 c 0,25,0
 148 -13 148 -13 99.5 38 c 128,-1,1
394 256 m 1,26,27
 359 261 359 261 300.5 261 c 128,-1,28
 242 261 242 261 225.5 246 c 128,-1,29
 209 231 209 231 209 189 c 128,-1,30
 209 147 209 147 222.5 130.5 c 128,-1,31
 236 114 236 114 264 114 c 0,32,33
 316 114 316 114 374 142 c 2,34,-1
 394 152 l 1,35,-1
 394 256 l 1,26,27
144 704 m 1,36,-1
 170 812 l 1,37,-1
 468 729 l 1,38,-1
 449 646 l 1,39,-1
 144 704 l 1,36,-1
EndSplineSet
EndChar

StartChar: aacute
Encoding: 225 225 163
Width: 622
GlyphClass: 2
Flags: W
LayerCount: 2
Fore
SplineSet
99.5 38 m 128,-1,1
 51 89 51 89 51 186 c 128,-1,2
 51 283 51 283 119.5 327 c 128,-1,3
 188 371 188 371 319 371 c 2,4,-1
 394 371 l 1,5,6
 394 438 394 438 381 457.5 c 128,-1,7
 368 477 368 477 322.5 477 c 128,-1,8
 277 477 277 477 221.5 467 c 128,-1,9
 166 457 166 457 98 437 c 1,10,-1
 66 549 l 1,11,12
 107 568 107 568 183.5 584.5 c 128,-1,13
 260 601 260 601 320 601 c 0,14,15
 443 601 443 601 496 544.5 c 128,-1,16
 549 488 549 488 549 380 c 2,17,-1
 549 0 l 1,18,-1
 451 0 l 1,19,-1
 431 65 l 1,20,-1
 425 65 l 1,21,22
 413 56 413 56 393.5 43 c 128,-1,23
 374 30 374 30 320 8.5 c 128,-1,24
 266 -13 266 -13 222 -13 c 0,25,0
 148 -13 148 -13 99.5 38 c 128,-1,1
394 256 m 1,26,27
 359 261 359 261 300.5 261 c 128,-1,28
 242 261 242 261 225.5 246 c 128,-1,29
 209 231 209 231 209 189 c 128,-1,30
 209 147 209 147 222.5 130.5 c 128,-1,31
 236 114 236 114 264 114 c 0,32,33
 316 114 316 114 374 142 c 2,34,-1
 394 152 l 1,35,-1
 394 256 l 1,26,27
445 816 m 1,36,-1
 476 704 l 1,37,-1
 174 646 l 1,38,-1
 152 729 l 1,39,-1
 445 816 l 1,36,-1
EndSplineSet
EndChar

StartChar: acircumflex
Encoding: 226 226 164
Width: 622
GlyphClass: 2
Flags: W
LayerCount: 2
Fore
SplineSet
99.5 38 m 128,-1,1
 51 89 51 89 51 186 c 128,-1,2
 51 283 51 283 119.5 327 c 128,-1,3
 188 371 188 371 319 371 c 2,4,-1
 394 371 l 1,5,6
 394 438 394 438 381 457.5 c 128,-1,7
 368 477 368 477 322.5 477 c 128,-1,8
 277 477 277 477 221.5 467 c 128,-1,9
 166 457 166 457 98 437 c 1,10,-1
 66 549 l 1,11,12
 107 568 107 568 183.5 584.5 c 128,-1,13
 260 601 260 601 320 601 c 0,14,15
 443 601 443 601 496 544.5 c 128,-1,16
 549 488 549 488 549 380 c 2,17,-1
 549 0 l 1,18,-1
 451 0 l 1,19,-1
 431 65 l 1,20,-1
 425 65 l 1,21,22
 413 56 413 56 393.5 43 c 128,-1,23
 374 30 374 30 320 8.5 c 128,-1,24
 266 -13 266 -13 222 -13 c 0,25,0
 148 -13 148 -13 99.5 38 c 128,-1,1
394 256 m 1,26,27
 359 261 359 261 300.5 261 c 128,-1,28
 242 261 242 261 225.5 246 c 128,-1,29
 209 231 209 231 209 189 c 128,-1,30
 209 147 209 147 222.5 130.5 c 128,-1,31
 236 114 236 114 264 114 c 0,32,33
 316 114 316 114 374 142 c 2,34,-1
 394 152 l 1,35,-1
 394 256 l 1,26,27
514 702 m 1,36,-1
 481 641 l 1,37,-1
 314 705 l 1,38,-1
 307 705 l 1,39,-1
 140 641 l 1,40,-1
 107 702 l 1,41,-1
 274 807 l 1,42,-1
 347 807 l 1,43,-1
 514 702 l 1,36,-1
EndSplineSet
EndChar

StartChar: atilde
Encoding: 227 227 165
Width: 622
GlyphClass: 2
Flags: W
LayerCount: 2
Fore
SplineSet
99.5 38 m 128,-1,1
 51 89 51 89 51 186 c 128,-1,2
 51 283 51 283 119.5 327 c 128,-1,3
 188 371 188 371 319 371 c 2,4,-1
 394 371 l 1,5,6
 394 438 394 438 381 457.5 c 128,-1,7
 368 477 368 477 322.5 477 c 128,-1,8
 277 477 277 477 221.5 467 c 128,-1,9
 166 457 166 457 98 437 c 1,10,-1
 66 549 l 1,11,12
 107 568 107 568 183.5 584.5 c 128,-1,13
 260 601 260 601 320 601 c 0,14,15
 443 601 443 601 496 544.5 c 128,-1,16
 549 488 549 488 549 380 c 2,17,-1
 549 0 l 1,18,-1
 451 0 l 1,19,-1
 431 65 l 1,20,-1
 425 65 l 1,21,22
 413 56 413 56 393.5 43 c 128,-1,23
 374 30 374 30 320 8.5 c 128,-1,24
 266 -13 266 -13 222 -13 c 0,25,0
 148 -13 148 -13 99.5 38 c 128,-1,1
394 256 m 1,26,27
 359 261 359 261 300.5 261 c 128,-1,28
 242 261 242 261 225.5 246 c 128,-1,29
 209 231 209 231 209 189 c 128,-1,30
 209 147 209 147 222.5 130.5 c 128,-1,31
 236 114 236 114 264 114 c 0,32,33
 316 114 316 114 374 142 c 2,34,-1
 394 152 l 1,35,-1
 394 256 l 1,26,27
191 798 m 0,36,37
 225 798 225 798 305 776.5 c 128,-1,38
 385 755 385 755 393.5 755 c 128,-1,39
 402 755 402 755 410 765 c 128,-1,40
 418 775 418 775 426 795 c 1,41,-1
 501 783 l 1,42,43
 498 656 498 656 406 656 c 0,44,45
 372 656 372 656 292 678.5 c 128,-1,46
 212 701 212 701 204 701 c 0,47,48
 188 701 188 701 174 670 c 1,49,-1
 170 660 l 1,50,-1
 94 670 l 1,51,52
 97 798 97 798 191 798 c 0,36,37
EndSplineSet
EndChar

StartChar: adieresis
Encoding: 228 228 166
Width: 622
GlyphClass: 2
Flags: W
LayerCount: 2
Fore
SplineSet
99.5 38 m 128,-1,1
 51 89 51 89 51 186 c 128,-1,2
 51 283 51 283 119.5 327 c 128,-1,3
 188 371 188 371 319 371 c 2,4,-1
 394 371 l 1,5,6
 394 438 394 438 381 457.5 c 128,-1,7
 368 477 368 477 322.5 477 c 128,-1,8
 277 477 277 477 221.5 467 c 128,-1,9
 166 457 166 457 98 437 c 1,10,-1
 66 549 l 1,11,12
 107 568 107 568 183.5 584.5 c 128,-1,13
 260 601 260 601 320 601 c 0,14,15
 443 601 443 601 496 544.5 c 128,-1,16
 549 488 549 488 549 380 c 2,17,-1
 549 0 l 1,18,-1
 451 0 l 1,19,-1
 431 65 l 1,20,-1
 425 65 l 1,21,22
 413 56 413 56 393.5 43 c 128,-1,23
 374 30 374 30 320 8.5 c 128,-1,24
 266 -13 266 -13 222 -13 c 0,25,0
 148 -13 148 -13 99.5 38 c 128,-1,1
394 256 m 1,26,27
 359 261 359 261 300.5 261 c 128,-1,28
 242 261 242 261 225.5 246 c 128,-1,29
 209 231 209 231 209 189 c 128,-1,30
 209 147 209 147 222.5 130.5 c 128,-1,31
 236 114 236 114 264 114 c 0,32,33
 316 114 316 114 374 142 c 2,34,-1
 394 152 l 1,35,-1
 394 256 l 1,26,27
255 668 m 1,36,-1
 108 668 l 1,37,-1
 108 776 l 1,38,-1
 255 776 l 1,39,-1
 255 668 l 1,36,-1
500 668 m 1,40,-1
 353 668 l 1,41,-1
 353 776 l 1,42,-1
 500 776 l 1,43,-1
 500 668 l 1,40,-1
EndSplineSet
EndChar

StartChar: aring
Encoding: 229 229 167
Width: 622
GlyphClass: 2
Flags: W
LayerCount: 2
Fore
SplineSet
99.5 38 m 128,-1,1
 51 89 51 89 51 186 c 128,-1,2
 51 283 51 283 119.5 327 c 128,-1,3
 188 371 188 371 319 371 c 2,4,-1
 394 371 l 1,5,6
 394 438 394 438 381 457.5 c 128,-1,7
 368 477 368 477 322.5 477 c 128,-1,8
 277 477 277 477 221.5 467 c 128,-1,9
 166 457 166 457 98 437 c 1,10,-1
 66 549 l 1,11,12
 107 568 107 568 183.5 584.5 c 128,-1,13
 260 601 260 601 320 601 c 0,14,15
 443 601 443 601 496 544.5 c 128,-1,16
 549 488 549 488 549 380 c 2,17,-1
 549 0 l 1,18,-1
 451 0 l 1,19,-1
 431 65 l 1,20,-1
 425 65 l 1,21,22
 413 56 413 56 393.5 43 c 128,-1,23
 374 30 374 30 320 8.5 c 128,-1,24
 266 -13 266 -13 222 -13 c 0,25,0
 148 -13 148 -13 99.5 38 c 128,-1,1
394 256 m 1,26,27
 359 261 359 261 300.5 261 c 128,-1,28
 242 261 242 261 225.5 246 c 128,-1,29
 209 231 209 231 209 189 c 128,-1,30
 209 147 209 147 222.5 130.5 c 128,-1,31
 236 114 236 114 264 114 c 0,32,33
 316 114 316 114 374 142 c 2,34,-1
 394 152 l 1,35,-1
 394 256 l 1,26,27
310 830 m 0,36,37
 415 830 415 830 415 733 c 0,38,39
 415 681 415 681 385 659 c 128,-1,40
 355 637 355 637 310 637 c 128,-1,41
 265 637 265 637 234.5 659 c 128,-1,42
 204 681 204 681 204 733.5 c 128,-1,43
 204 786 204 786 234.5 808 c 128,-1,44
 265 830 265 830 310 830 c 0,36,37
310 771 m 128,-1,46
 287 771 287 771 277.5 763.5 c 128,-1,47
 268 756 268 756 268 733.5 c 128,-1,48
 268 711 268 711 278 702.5 c 128,-1,49
 288 694 288 694 310 694 c 128,-1,50
 332 694 332 694 341.5 702.5 c 128,-1,51
 351 711 351 711 351 733.5 c 128,-1,52
 351 756 351 756 342 763.5 c 128,-1,45
 333 771 333 771 310 771 c 128,-1,46
EndSplineSet
EndChar

StartChar: ae
Encoding: 230 230 168
Width: 952
GlyphClass: 2
Flags: W
LayerCount: 2
Fore
SplineSet
104 38 m 128,-1,1
 56 89 56 89 56 186 c 128,-1,2
 56 283 56 283 125 325.5 c 128,-1,3
 194 368 194 368 324 368 c 2,4,-1
 399 368 l 1,5,6
 399 442 399 442 386 458 c 1,7,8
 373 477 373 477 328 477 c 128,-1,9
 283 477 283 477 227 467 c 128,-1,10
 171 457 171 457 103 437 c 1,11,-1
 71 549 l 1,12,13
 113 568 113 568 189.5 584.5 c 128,-1,14
 266 601 266 601 330 601 c 0,15,16
 436 601 436 601 491 552 c 1,17,-1
 495 552 l 1,18,19
 561 601 561 601 674 601 c 128,-1,20
 787 601 787 601 848 537.5 c 128,-1,21
 909 474 909 474 909 326 c 2,22,-1
 909 243 l 1,23,-1
 557 243 l 1,24,25
 558 154 558 154 588 129 c 1,26,27
 609 110 609 110 647 110 c 0,28,29
 717 110 717 110 825 142 c 1,30,-1
 860 153 l 1,31,-1
 898 41 l 1,32,33
 853 20 853 20 786 3.5 c 128,-1,34
 719 -13 719 -13 668 -13 c 0,35,36
 521 -13 521 -13 456 76 c 1,37,-1
 452 76 l 1,38,39
 413 51 413 51 390 37 c 128,-1,40
 367 23 367 23 318.5 5 c 128,-1,41
 270 -13 270 -13 231 -13 c 0,42,0
 152 -13 152 -13 104 38 c 128,-1,1
399 253 m 1,43,44
 363 258 363 258 305 258 c 128,-1,45
 247 258 247 258 230.5 243 c 128,-1,46
 214 228 214 228 214 188 c 128,-1,47
 214 148 214 148 227 131 c 128,-1,48
 240 114 240 114 268 114 c 128,-1,49
 296 114 296 114 328.5 123.5 c 128,-1,50
 361 133 361 133 399 152 c 1,51,-1
 399 253 l 1,43,44
733 457 m 0,52,53
 715 479 715 479 661 479 c 128,-1,54
 607 479 607 479 584 453 c 128,-1,55
 561 427 561 427 558 355 c 1,56,-1
 751 359 l 1,57,58
 750 435 750 435 733 457 c 0,52,53
EndSplineSet
EndChar

StartChar: ccedilla
Encoding: 231 231 169
Width: 543
GlyphClass: 2
Flags: W
LayerCount: 2
Fore
SplineSet
492 462 m 1,0,1
 388 478 388 478 327.5 478 c 128,-1,2
 267 478 267 478 245 456 c 0,3,4
 208 417 208 417 208 289.5 c 128,-1,5
 208 162 208 162 256 125 c 0,6,7
 276 110 276 110 306 110 c 0,8,9
 362 110 362 110 452 146 c 2,10,-1
 482 158 l 1,11,-1
 524 48 l 1,12,13
 476 13 476 13 399 -4 c 1,14,15
 407 -40 407 -40 407 -68 c 0,16,17
 407 -119 407 -119 375 -149 c 128,-1,18
 343 -179 343 -179 286 -179 c 0,19,20
 251 -179 251 -179 199 -170 c 1,21,-1
 199 -83 l 1,22,23
 244 -88 244 -88 272 -88 c 128,-1,24
 300 -88 300 -88 310 -82.5 c 128,-1,25
 320 -77 320 -77 320 -56 c 128,-1,26
 320 -35 320 -35 315 -13 c 1,27,-1
 314 -13 l 2,28,29
 191 -13 191 -13 119.5 62.5 c 128,-1,30
 48 138 48 138 48 296 c 0,31,32
 48 472 48 472 136 540 c 0,33,34
 214 601 214 601 340 601 c 0,35,36
 426 601 426 601 509 579 c 1,37,-1
 492 462 l 1,0,1
EndSplineSet
EndChar

StartChar: egrave
Encoding: 232 232 170
Width: 604
GlyphClass: 2
Flags: W
LayerCount: 2
Fore
SplineSet
320 -13 m 0,0,1
 48 -13 48 -13 48 294 c 128,-1,2
 48 601 48 601 318 601 c 0,3,4
 439 601 439 601 500 536.5 c 128,-1,5
 561 472 561 472 561 323 c 2,6,-1
 561 240 l 1,7,-1
 209 240 l 1,8,9
 209 156 209 156 240 129 c 0,10,11
 261 110 261 110 299 110 c 0,12,13
 369 110 369 110 477 142 c 1,14,-1
 512 153 l 1,15,-1
 550 41 l 1,16,17
 505 20 505 20 438 3.5 c 128,-1,18
 371 -13 371 -13 320 -13 c 0,0,1
385 457 m 1,19,20
 367 479 367 479 313 479 c 128,-1,21
 259 479 259 479 236 453 c 128,-1,22
 213 427 213 427 210 352 c 1,23,-1
 403 356 l 1,24,25
 401 435 401 435 385 457 c 1,19,20
148 704 m 1,26,-1
 174 812 l 1,27,-1
 472 729 l 1,28,-1
 453 646 l 1,29,-1
 148 704 l 1,26,-1
EndSplineSet
EndChar

StartChar: eacute
Encoding: 233 233 171
Width: 604
GlyphClass: 2
Flags: W
LayerCount: 2
Fore
SplineSet
320 -13 m 0,0,1
 48 -13 48 -13 48 294 c 128,-1,2
 48 601 48 601 318 601 c 0,3,4
 439 601 439 601 500 536.5 c 128,-1,5
 561 472 561 472 561 323 c 2,6,-1
 561 240 l 1,7,-1
 209 240 l 1,8,9
 209 156 209 156 240 129 c 0,10,11
 261 110 261 110 299 110 c 0,12,13
 369 110 369 110 477 142 c 1,14,-1
 512 153 l 1,15,-1
 550 41 l 1,16,17
 505 20 505 20 438 3.5 c 128,-1,18
 371 -13 371 -13 320 -13 c 0,0,1
385 457 m 1,19,20
 367 479 367 479 313 479 c 128,-1,21
 259 479 259 479 236 453 c 128,-1,22
 213 427 213 427 210 352 c 1,23,-1
 403 356 l 1,24,25
 401 435 401 435 385 457 c 1,19,20
451 816 m 1,26,-1
 482 704 l 1,27,-1
 180 646 l 1,28,-1
 158 729 l 1,29,-1
 451 816 l 1,26,-1
EndSplineSet
EndChar

StartChar: ecircumflex
Encoding: 234 234 172
Width: 604
GlyphClass: 2
Flags: W
LayerCount: 2
Fore
SplineSet
320 -13 m 0,0,1
 48 -13 48 -13 48 294 c 128,-1,2
 48 601 48 601 318 601 c 0,3,4
 439 601 439 601 500 536.5 c 128,-1,5
 561 472 561 472 561 323 c 2,6,-1
 561 240 l 1,7,-1
 209 240 l 1,8,9
 209 156 209 156 240 129 c 0,10,11
 261 110 261 110 299 110 c 0,12,13
 369 110 369 110 477 142 c 1,14,-1
 512 153 l 1,15,-1
 550 41 l 1,16,17
 505 20 505 20 438 3.5 c 128,-1,18
 371 -13 371 -13 320 -13 c 0,0,1
385 457 m 1,19,20
 367 479 367 479 313 479 c 128,-1,21
 259 479 259 479 236 453 c 128,-1,22
 213 427 213 427 210 352 c 1,23,-1
 403 356 l 1,24,25
 401 435 401 435 385 457 c 1,19,20
519 702 m 1,26,-1
 486 641 l 1,27,-1
 319 705 l 1,28,-1
 312 705 l 1,29,-1
 145 641 l 1,30,-1
 112 702 l 1,31,-1
 279 807 l 1,32,-1
 352 807 l 1,33,-1
 519 702 l 1,26,-1
EndSplineSet
EndChar

StartChar: edieresis
Encoding: 235 235 173
Width: 604
GlyphClass: 2
Flags: W
LayerCount: 2
Fore
SplineSet
320 -13 m 0,0,1
 48 -13 48 -13 48 294 c 128,-1,2
 48 601 48 601 318 601 c 0,3,4
 439 601 439 601 500 536.5 c 128,-1,5
 561 472 561 472 561 323 c 2,6,-1
 561 240 l 1,7,-1
 209 240 l 1,8,9
 209 156 209 156 240 129 c 0,10,11
 261 110 261 110 299 110 c 0,12,13
 369 110 369 110 477 142 c 1,14,-1
 512 153 l 1,15,-1
 550 41 l 1,16,17
 505 20 505 20 438 3.5 c 128,-1,18
 371 -13 371 -13 320 -13 c 0,0,1
385 457 m 1,19,20
 367 479 367 479 313 479 c 128,-1,21
 259 479 259 479 236 453 c 128,-1,22
 213 427 213 427 210 352 c 1,23,-1
 403 356 l 1,24,25
 401 435 401 435 385 457 c 1,19,20
259 668 m 1,26,-1
 112 668 l 1,27,-1
 112 776 l 1,28,-1
 259 776 l 1,29,-1
 259 668 l 1,26,-1
504 668 m 1,30,-1
 357 668 l 1,31,-1
 357 776 l 1,32,-1
 504 776 l 1,33,-1
 504 668 l 1,30,-1
EndSplineSet
EndChar

StartChar: igrave
Encoding: 236 236 174
Width: 323
GlyphClass: 2
Flags: W
LayerCount: 2
Fore
SplineSet
-14 703 m 1,0,-1
 12 811 l 1,1,-1
 290 729 l 1,2,-1
 271 646 l 1,3,-1
 -14 703 l 1,0,-1
239 0 m 1,4,-1
 84 0 l 1,5,-1
 84 588 l 1,6,-1
 239 588 l 1,7,-1
 239 0 l 1,4,-1
EndSplineSet
EndChar

StartChar: iacute
Encoding: 237 237 175
Width: 323
GlyphClass: 2
Flags: W
LayerCount: 2
Fore
SplineSet
295 816 m 1,0,-1
 326 704 l 1,1,-1
 44 646 l 1,2,-1
 22 729 l 1,3,-1
 295 816 l 1,0,-1
239 0 m 1,4,-1
 84 0 l 1,5,-1
 84 588 l 1,6,-1
 239 588 l 1,7,-1
 239 0 l 1,4,-1
EndSplineSet
EndChar

StartChar: icircumflex
Encoding: 238 238 176
Width: 323
GlyphClass: 2
Flags: W
LayerCount: 2
Fore
SplineSet
345 706 m 1,0,-1
 312 644 l 1,1,-1
 165 705 l 1,2,-1
 158 705 l 1,3,-1
 11 644 l 1,4,-1
 -22 706 l 1,5,-1
 125 807 l 1,6,-1
 198 807 l 1,7,-1
 345 706 l 1,0,-1
239 0 m 1,8,-1
 84 0 l 1,9,-1
 84 588 l 1,10,-1
 239 588 l 1,11,-1
 239 0 l 1,8,-1
EndSplineSet
EndChar

StartChar: idieresis
Encoding: 239 239 177
Width: 323
GlyphClass: 2
Flags: W
LayerCount: 2
Fore
SplineSet
132 668 m 1,0,-1
 -15 668 l 1,1,-1
 -15 776 l 1,2,-1
 132 776 l 1,3,-1
 132 668 l 1,0,-1
337 668 m 1,4,-1
 190 668 l 1,5,-1
 190 776 l 1,6,-1
 337 776 l 1,7,-1
 337 668 l 1,4,-1
239 0 m 1,8,-1
 84 0 l 1,9,-1
 84 588 l 1,10,-1
 239 588 l 1,11,-1
 239 0 l 1,8,-1
EndSplineSet
EndChar

StartChar: eth
Encoding: 240 240 178
Width: 625
GlyphClass: 2
Flags: W
LayerCount: 2
Fore
SplineSet
292 522 m 0,0,1
 375 522 375 522 438 481 c 1,2,-1
 444 484 l 1,3,4
 425 538 425 538 375 594 c 1,5,-1
 245 549 l 1,6,-1
 237 639 l 1,7,-1
 305 663 l 1,8,-1
 253 705 l 1,9,-1
 342 774 l 1,10,11
 394 746 394 746 435 711 c 1,12,-1
 532 746 l 1,13,-1
 539 652 l 1,14,-1
 497 637 l 1,15,16
 570 528 570 528 570 317 c 0,17,18
 570 157 570 157 510.5 72 c 128,-1,19
 451 -13 451 -13 313.5 -13 c 128,-1,20
 176 -13 176 -13 115 61 c 128,-1,21
 54 135 54 135 54 254 c 128,-1,22
 54 373 54 373 112 447.5 c 128,-1,23
 170 522 170 522 292 522 c 0,0,1
313 404 m 128,-1,25
 256 404 256 404 234 371 c 128,-1,26
 212 338 212 338 212 254 c 128,-1,27
 212 170 212 170 233.5 137.5 c 128,-1,28
 255 105 255 105 312.5 105 c 128,-1,29
 370 105 370 105 391 137.5 c 128,-1,30
 412 170 412 170 412 254.5 c 128,-1,31
 412 339 412 339 391 371.5 c 128,-1,24
 370 404 370 404 313 404 c 128,-1,25
EndSplineSet
EndChar

StartChar: ntilde
Encoding: 241 241 179
Width: 632
GlyphClass: 2
Flags: W
LayerCount: 2
Fore
SplineSet
234 0 m 1,0,-1
 79 0 l 1,1,-1
 79 588 l 1,2,-1
 178 588 l 1,3,-1
 196 529 l 1,4,-1
 202 529 l 1,5,6
 324 601 324 601 413 601 c 128,-1,7
 502 601 502 601 534 545 c 128,-1,8
 566 489 566 489 566 385 c 2,9,-1
 566 0 l 1,10,-1
 411 0 l 1,11,-1
 411 356 l 2,12,13
 411 434 411 434 398 450 c 128,-1,14
 385 466 385 466 357 466 c 0,15,16
 295 466 295 466 234 424 c 1,17,-1
 234 0 l 1,0,-1
224 788 m 0,18,19
 258 788 258 788 338 766.5 c 128,-1,20
 418 745 418 745 426.5 745 c 128,-1,21
 435 745 435 745 443 755 c 128,-1,22
 451 765 451 765 459 785 c 1,23,-1
 534 773 l 1,24,25
 531 646 531 646 439 646 c 0,26,27
 406 646 406 646 325 668.5 c 128,-1,28
 244 691 244 691 236 691 c 0,29,30
 221 691 221 691 208 660 c 1,31,-1
 203 650 l 1,32,-1
 127 660 l 1,33,34
 130 788 130 788 224 788 c 0,18,19
EndSplineSet
EndChar

StartChar: ograve
Encoding: 242 242 180
Width: 612
GlyphClass: 2
Flags: W
LayerCount: 2
Fore
SplineSet
307 601 m 128,-1,1
 447 601 447 601 505.5 523 c 128,-1,2
 564 445 564 445 564 294 c 128,-1,3
 564 143 564 143 505.5 65 c 128,-1,4
 447 -13 447 -13 307 -13 c 128,-1,5
 167 -13 167 -13 107.5 65.5 c 128,-1,6
 48 144 48 144 48 294 c 128,-1,7
 48 444 48 444 107.5 522.5 c 128,-1,0
 167 601 167 601 307 601 c 128,-1,1
385.5 445.5 m 128,-1,9
 365 483 365 483 306.5 483 c 128,-1,10
 248 483 248 483 227 445 c 128,-1,11
 206 407 206 407 206 294 c 128,-1,12
 206 181 206 181 227 143 c 128,-1,13
 248 105 248 105 306.5 105 c 128,-1,14
 365 105 365 105 385.5 142.5 c 128,-1,15
 406 180 406 180 406 294 c 128,-1,8
 406 408 406 408 385.5 445.5 c 128,-1,9
140 704 m 1,16,-1
 166 812 l 1,17,-1
 464 729 l 1,18,-1
 445 646 l 1,19,-1
 140 704 l 1,16,-1
EndSplineSet
EndChar

StartChar: oacute
Encoding: 243 243 181
Width: 612
GlyphClass: 2
Flags: W
LayerCount: 2
Fore
SplineSet
307 601 m 128,-1,1
 447 601 447 601 505.5 523 c 128,-1,2
 564 445 564 445 564 294 c 128,-1,3
 564 143 564 143 505.5 65 c 128,-1,4
 447 -13 447 -13 307 -13 c 128,-1,5
 167 -13 167 -13 107.5 65.5 c 128,-1,6
 48 144 48 144 48 294 c 128,-1,7
 48 444 48 444 107.5 522.5 c 128,-1,0
 167 601 167 601 307 601 c 128,-1,1
385.5 445.5 m 128,-1,9
 365 483 365 483 306.5 483 c 128,-1,10
 248 483 248 483 227 445 c 128,-1,11
 206 407 206 407 206 294 c 128,-1,12
 206 181 206 181 227 143 c 128,-1,13
 248 105 248 105 306.5 105 c 128,-1,14
 365 105 365 105 385.5 142.5 c 128,-1,15
 406 180 406 180 406 294 c 128,-1,8
 406 408 406 408 385.5 445.5 c 128,-1,9
442 816 m 1,16,-1
 473 704 l 1,17,-1
 171 646 l 1,18,-1
 149 729 l 1,19,-1
 442 816 l 1,16,-1
EndSplineSet
EndChar

StartChar: ocircumflex
Encoding: 244 244 182
Width: 612
GlyphClass: 2
Flags: W
LayerCount: 2
Fore
SplineSet
307 601 m 128,-1,1
 447 601 447 601 505.5 523 c 128,-1,2
 564 445 564 445 564 294 c 128,-1,3
 564 143 564 143 505.5 65 c 128,-1,4
 447 -13 447 -13 307 -13 c 128,-1,5
 167 -13 167 -13 107.5 65.5 c 128,-1,6
 48 144 48 144 48 294 c 128,-1,7
 48 444 48 444 107.5 522.5 c 128,-1,0
 167 601 167 601 307 601 c 128,-1,1
385.5 445.5 m 128,-1,9
 365 483 365 483 306.5 483 c 128,-1,10
 248 483 248 483 227 445 c 128,-1,11
 206 407 206 407 206 294 c 128,-1,12
 206 181 206 181 227 143 c 128,-1,13
 248 105 248 105 306.5 105 c 128,-1,14
 365 105 365 105 385.5 142.5 c 128,-1,15
 406 180 406 180 406 294 c 128,-1,8
 406 408 406 408 385.5 445.5 c 128,-1,9
512 702 m 1,16,-1
 479 641 l 1,17,-1
 312 705 l 1,18,-1
 305 705 l 1,19,-1
 138 641 l 1,20,-1
 105 702 l 1,21,-1
 272 807 l 1,22,-1
 345 807 l 1,23,-1
 512 702 l 1,16,-1
EndSplineSet
EndChar

StartChar: otilde
Encoding: 245 245 183
Width: 612
GlyphClass: 2
Flags: W
LayerCount: 2
Fore
SplineSet
307 601 m 128,-1,1
 447 601 447 601 505.5 523 c 128,-1,2
 564 445 564 445 564 294 c 128,-1,3
 564 143 564 143 505.5 65 c 128,-1,4
 447 -13 447 -13 307 -13 c 128,-1,5
 167 -13 167 -13 107.5 65.5 c 128,-1,6
 48 144 48 144 48 294 c 128,-1,7
 48 444 48 444 107.5 522.5 c 128,-1,0
 167 601 167 601 307 601 c 128,-1,1
385.5 445.5 m 128,-1,9
 365 483 365 483 306.5 483 c 128,-1,10
 248 483 248 483 227 445 c 128,-1,11
 206 407 206 407 206 294 c 128,-1,12
 206 181 206 181 227 143 c 128,-1,13
 248 105 248 105 306.5 105 c 128,-1,14
 365 105 365 105 385.5 142.5 c 128,-1,15
 406 180 406 180 406 294 c 128,-1,8
 406 408 406 408 385.5 445.5 c 128,-1,9
203 798 m 0,16,17
 237 798 237 798 317 776.5 c 128,-1,18
 397 755 397 755 405.5 755 c 128,-1,19
 414 755 414 755 422 765 c 128,-1,20
 430 775 430 775 438 795 c 1,21,-1
 513 783 l 1,22,23
 510 656 510 656 418 656 c 0,24,25
 384 656 384 656 304 678.5 c 128,-1,26
 224 701 224 701 216 701 c 0,27,28
 200 701 200 701 186 670 c 1,29,-1
 182 660 l 1,30,-1
 106 670 l 1,31,32
 109 798 109 798 203 798 c 0,16,17
EndSplineSet
EndChar

StartChar: odieresis
Encoding: 246 246 184
Width: 612
GlyphClass: 2
Flags: W
LayerCount: 2
Fore
SplineSet
307 601 m 128,-1,1
 447 601 447 601 505.5 523 c 128,-1,2
 564 445 564 445 564 294 c 128,-1,3
 564 143 564 143 505.5 65 c 128,-1,4
 447 -13 447 -13 307 -13 c 128,-1,5
 167 -13 167 -13 107.5 65.5 c 128,-1,6
 48 144 48 144 48 294 c 128,-1,7
 48 444 48 444 107.5 522.5 c 128,-1,0
 167 601 167 601 307 601 c 128,-1,1
385.5 445.5 m 128,-1,9
 365 483 365 483 306.5 483 c 128,-1,10
 248 483 248 483 227 445 c 128,-1,11
 206 407 206 407 206 294 c 128,-1,12
 206 181 206 181 227 143 c 128,-1,13
 248 105 248 105 306.5 105 c 128,-1,14
 365 105 365 105 385.5 142.5 c 128,-1,15
 406 180 406 180 406 294 c 128,-1,8
 406 408 406 408 385.5 445.5 c 128,-1,9
259 668 m 1,16,-1
 112 668 l 1,17,-1
 112 776 l 1,18,-1
 259 776 l 1,19,-1
 259 668 l 1,16,-1
504 668 m 1,20,-1
 357 668 l 1,21,-1
 357 776 l 1,22,-1
 504 776 l 1,23,-1
 504 668 l 1,20,-1
EndSplineSet
EndChar

StartChar: divide
Encoding: 247 247 185
Width: 647
GlyphClass: 2
Flags: W
LayerCount: 2
Fore
SplineSet
30 227 m 1,0,-1
 30 360 l 1,1,-1
 617 360 l 1,2,-1
 617 227 l 1,3,-1
 30 227 l 1,0,-1
234 0 m 1,4,-1
 234 134 l 1,5,-1
 409 134 l 1,6,-1
 409 0 l 1,7,-1
 234 0 l 1,4,-1
234 454 m 1,8,-1
 234 588 l 1,9,-1
 409 588 l 1,10,-1
 409 454 l 1,11,-1
 234 454 l 1,8,-1
EndSplineSet
EndChar

StartChar: oslash
Encoding: 248 248 186
Width: 612
GlyphClass: 2
Flags: W
LayerCount: 2
Fore
SplineSet
307 601 m 0,0,1
 357 601 357 601 399 590 c 1,2,-1
 416 628 l 1,3,-1
 520 628 l 1,4,-1
 481 548 l 1,5,6
 564 476 564 476 564 294 c 0,7,8
 564 143 564 143 505.5 65 c 128,-1,9
 447 -13 447 -13 307 -13 c 0,10,11
 264 -13 264 -13 222 -3 c 1,12,-1
 206 -39 l 1,13,-1
 101 -39 l 1,14,-1
 137 36 l 1,15,16
 48 106 48 106 48 294 c 0,17,18
 48 444 48 444 107.5 522.5 c 128,-1,19
 167 601 167 601 307 601 c 0,0,1
307 483 m 0,20,21
 248 483 248 483 227 445 c 128,-1,22
 206 407 206 407 206 317.5 c 128,-1,23
 206 228 206 228 212 189 c 1,24,-1
 280 327 l 1,25,-1
 348 477 l 1,26,27
 330 483 330 483 307 483 c 0,20,21
307 105 m 0,28,29
 365 105 365 105 385.5 142.5 c 128,-1,30
 406 180 406 180 406 294 c 0,31,32
 406 344 406 344 401 384 c 1,33,-1
 359 296 l 1,34,-1
 273 108 l 1,35,36
 283 105 283 105 307 105 c 0,28,29
EndSplineSet
EndChar

StartChar: ugrave
Encoding: 249 249 187
Width: 632
GlyphClass: 2
Flags: W
LayerCount: 2
Fore
SplineSet
398 588 m 1,0,-1
 553 588 l 1,1,-1
 553 0 l 1,2,-1
 454 0 l 1,3,-1
 435 61 l 1,4,-1
 429 61 l 1,5,6
 393 39 393 39 369 26.5 c 128,-1,7
 345 14 345 14 305 0.5 c 128,-1,8
 265 -13 265 -13 230 -13 c 0,9,10
 137 -13 137 -13 101.5 44 c 128,-1,11
 66 101 66 101 66 205 c 2,12,-1
 66 588 l 1,13,-1
 221 588 l 1,14,-1
 221 220 l 2,15,16
 221 146 221 146 234 134 c 128,-1,17
 247 122 247 122 276 122 c 0,18,19
 337 122 337 122 398 164 c 1,20,-1
 398 588 l 1,0,-1
127 704 m 1,21,-1
 153 812 l 1,22,-1
 451 729 l 1,23,-1
 432 646 l 1,24,-1
 127 704 l 1,21,-1
EndSplineSet
EndChar

StartChar: uacute
Encoding: 250 250 188
Width: 632
GlyphClass: 2
Flags: W
LayerCount: 2
Fore
SplineSet
398 588 m 1,0,-1
 553 588 l 1,1,-1
 553 0 l 1,2,-1
 454 0 l 1,3,-1
 435 61 l 1,4,-1
 429 61 l 1,5,6
 393 39 393 39 369 26.5 c 128,-1,7
 345 14 345 14 305 0.5 c 128,-1,8
 265 -13 265 -13 230 -13 c 0,9,10
 137 -13 137 -13 101.5 44 c 128,-1,11
 66 101 66 101 66 205 c 2,12,-1
 66 588 l 1,13,-1
 221 588 l 1,14,-1
 221 220 l 2,15,16
 221 146 221 146 234 134 c 128,-1,17
 247 122 247 122 276 122 c 0,18,19
 337 122 337 122 398 164 c 1,20,-1
 398 588 l 1,0,-1
459 816 m 1,21,-1
 490 704 l 1,22,-1
 188 646 l 1,23,-1
 166 729 l 1,24,-1
 459 816 l 1,21,-1
EndSplineSet
EndChar

StartChar: ucircumflex
Encoding: 251 251 189
Width: 632
GlyphClass: 2
Flags: W
LayerCount: 2
Fore
SplineSet
398 588 m 1,0,-1
 553 588 l 1,1,-1
 553 0 l 1,2,-1
 454 0 l 1,3,-1
 435 61 l 1,4,-1
 429 61 l 1,5,6
 393 39 393 39 369 26.5 c 128,-1,7
 345 14 345 14 305 0.5 c 128,-1,8
 265 -13 265 -13 230 -13 c 0,9,10
 137 -13 137 -13 101.5 44 c 128,-1,11
 66 101 66 101 66 205 c 2,12,-1
 66 588 l 1,13,-1
 221 588 l 1,14,-1
 221 220 l 2,15,16
 221 146 221 146 234 134 c 128,-1,17
 247 122 247 122 276 122 c 0,18,19
 337 122 337 122 398 164 c 1,20,-1
 398 588 l 1,0,-1
516 702 m 1,21,-1
 483 641 l 1,22,-1
 316 705 l 1,23,-1
 309 705 l 1,24,-1
 142 641 l 1,25,-1
 109 702 l 1,26,-1
 276 807 l 1,27,-1
 349 807 l 1,28,-1
 516 702 l 1,21,-1
EndSplineSet
EndChar

StartChar: udieresis
Encoding: 252 252 190
Width: 632
GlyphClass: 2
Flags: W
LayerCount: 2
Fore
SplineSet
398 588 m 1,0,-1
 553 588 l 1,1,-1
 553 0 l 1,2,-1
 454 0 l 1,3,-1
 435 61 l 1,4,-1
 429 61 l 1,5,6
 393 39 393 39 369 26.5 c 128,-1,7
 345 14 345 14 305 0.5 c 128,-1,8
 265 -13 265 -13 230 -13 c 0,9,10
 137 -13 137 -13 101.5 44 c 128,-1,11
 66 101 66 101 66 205 c 2,12,-1
 66 588 l 1,13,-1
 221 588 l 1,14,-1
 221 220 l 2,15,16
 221 146 221 146 234 134 c 128,-1,17
 247 122 247 122 276 122 c 0,18,19
 337 122 337 122 398 164 c 1,20,-1
 398 588 l 1,0,-1
260 668 m 1,21,-1
 113 668 l 1,22,-1
 113 776 l 1,23,-1
 260 776 l 1,24,-1
 260 668 l 1,21,-1
505 668 m 1,25,-1
 358 668 l 1,26,-1
 358 776 l 1,27,-1
 505 776 l 1,28,-1
 505 668 l 1,25,-1
EndSplineSet
EndChar

StartChar: yacute
Encoding: 253 253 191
Width: 540
GlyphClass: 2
Flags: W
LayerCount: 2
Fore
SplineSet
117 -166 m 1,0,-1
 204 51 l 1,1,-1
 -4 588 l 1,2,-1
 168 588 l 1,3,-1
 271 195 l 1,4,-1
 277 195 l 1,5,-1
 382 588 l 1,6,-1
 541 588 l 1,7,-1
 334 31 l 1,8,-1
 278 -166 l 1,9,-1
 117 -166 l 1,0,-1
430 816 m 1,10,-1
 461 704 l 1,11,-1
 159 646 l 1,12,-1
 137 729 l 1,13,-1
 430 816 l 1,10,-1
EndSplineSet
EndChar

StartChar: thorn
Encoding: 254 254 192
Width: 629
GlyphClass: 2
Flags: W
LayerCount: 2
Fore
SplineSet
399 461 m 0,0,1
 384 474 384 474 350 474 c 0,2,3
 288 474 288 474 234 461 c 1,4,-1
 234 122 l 1,5,6
 282 112 282 112 327 112 c 128,-1,7
 372 112 372 112 386 124 c 0,8,9
 421 153 421 153 421 296.5 c 128,-1,10
 421 440 421 440 399 461 c 0,0,1
79 -166 m 1,11,-1
 79 761 l 1,12,-1
 234 761 l 1,13,-1
 234 586 l 1,14,15
 311 601 311 601 357 601 c 0,16,17
 581 601 581 601 581 303 c 0,18,19
 581 -13 581 -13 337 -13 c 0,20,21
 301 -13 301 -13 234 -3 c 1,22,-1
 234 -166 l 1,23,-1
 79 -166 l 1,11,-1
EndSplineSet
EndChar

StartChar: ydieresis
Encoding: 255 255 193
Width: 540
GlyphClass: 2
Flags: W
LayerCount: 2
Fore
SplineSet
117 -166 m 1,0,-1
 204 51 l 1,1,-1
 -4 588 l 1,2,-1
 168 588 l 1,3,-1
 271 195 l 1,4,-1
 277 195 l 1,5,-1
 382 588 l 1,6,-1
 541 588 l 1,7,-1
 334 31 l 1,8,-1
 278 -166 l 1,9,-1
 117 -166 l 1,0,-1
224 668 m 1,10,-1
 77 668 l 1,11,-1
 77 776 l 1,12,-1
 224 776 l 1,13,-1
 224 668 l 1,10,-1
469 668 m 1,14,-1
 322 668 l 1,15,-1
 322 776 l 1,16,-1
 469 776 l 1,17,-1
 469 668 l 1,14,-1
EndSplineSet
EndChar

StartChar: hbar
Encoding: 295 295 194
Width: 636
GlyphClass: 2
Flags: W
LayerCount: 2
Fore
SplineSet
-6 633 m 1,0,-1
 -6 731 l 1,1,-1
 75 731 l 1,2,-1
 75 761 l 1,3,-1
 232 761 l 1,4,-1
 232 731 l 1,5,-1
 422 731 l 1,6,-1
 422 633 l 1,7,-1
 232 633 l 1,8,-1
 232 551 l 1,9,10
 336 603 336 603 413 603 c 0,11,12
 503 603 503 603 536 540 c 1,13,14
 566 485 566 485 566 385 c 2,15,-1
 566 0 l 1,16,-1
 417 0 l 1,17,-1
 417 358 l 2,18,19
 417 430 417 430 400 453 c 0,20,21
 388 468 388 468 365 468 c 0,22,23
 324 468 324 468 232 432 c 1,24,-1
 232 0 l 1,25,-1
 75 0 l 1,26,-1
 75 633 l 1,27,-1
 -6 633 l 1,0,-1
EndSplineSet
EndChar

StartChar: Itilde
Encoding: 296 296 195
Width: 324
GlyphClass: 2
Flags: W
LayerCount: 2
Fore
SplineSet
64 886 m 0,0,1
 93 886 93 886 162.5 864.5 c 128,-1,2
 232 843 232 843 240 843 c 0,3,4
 254 843 254 843 264 873 c 1,5,-1
 268 883 l 1,6,-1
 343 871 l 1,7,8
 340 746 340 746 260 746 c 0,9,10
 232 746 232 746 162.5 768.5 c 128,-1,11
 93 791 93 791 86 791 c 0,12,13
 72 791 72 791 56 750 c 1,14,-1
 -20 760 l 1,15,16
 -17 886 -17 886 64 886 c 0,0,1
238 390 m 1,17,-1
 241 0 l 1,18,-1
 83 0 l 1,19,-1
 87 324 l 1,20,-1
 83 703 l 1,21,-1
 241 703 l 1,22,-1
 238 390 l 1,17,-1
EndSplineSet
EndChar

StartChar: itilde
Encoding: 297 297 196
Width: 323
GlyphClass: 2
Flags: W
LayerCount: 2
Fore
SplineSet
80 798 m 0,0,1
 108 798 108 798 165.5 776.5 c 128,-1,2
 223 755 223 755 232 755 c 0,3,4
 249 755 249 755 261 785 c 2,5,-1
 265 795 l 1,6,-1
 340 783 l 1,7,8
 337 656 337 656 245 656 c 0,9,10
 218 656 218 656 160 678.5 c 128,-1,11
 102 701 102 701 93 701 c 0,12,13
 77 701 77 701 64 670 c 1,14,-1
 59 660 l 1,15,-1
 -17 670 l 1,16,17
 -14 798 -14 798 80 798 c 0,0,1
239 0 m 1,18,-1
 84 0 l 1,19,-1
 84 588 l 1,20,-1
 239 588 l 1,21,-1
 239 0 l 1,18,-1
EndSplineSet
EndChar

StartChar: dotlessi
Encoding: 305 305 197
Width: 323
GlyphClass: 2
Flags: W
LayerCount: 2
Fore
SplineSet
239 0 m 1,0,-1
 84 0 l 1,1,-1
 84 588 l 1,2,-1
 239 588 l 1,3,-1
 239 0 l 1,0,-1
EndSplineSet
EndChar

StartChar: IJ
Encoding: 306 306 198
Width: 695
GlyphClass: 2
Flags: W
LayerCount: 2
Fore
SplineSet
238 390 m 1,0,-1
 241 0 l 1,1,-1
 83 0 l 1,2,-1
 87 324 l 1,3,-1
 83 703 l 1,4,-1
 241 703 l 1,5,-1
 238 390 l 1,0,-1
612 703 m 1,6,-1
 612 247 l 2,7,8
 612 -13 612 -13 407 -13 c 0,9,10
 367 -13 367 -13 311 -3 c 1,11,-1
 326 130 l 1,12,13
 371 121 371 121 399 121 c 128,-1,14
 427 121 427 121 436 128 c 0,15,16
 455 144 455 144 455 245 c 2,17,-1
 455 703 l 1,18,-1
 612 703 l 1,6,-1
EndSplineSet
EndChar

StartChar: ij
Encoding: 307 307 199
Width: 655
GlyphClass: 2
Flags: W
LayerCount: 2
Fore
SplineSet
241 0 m 1,0,-1
 86 0 l 1,1,-1
 86 588 l 1,2,-1
 241 588 l 1,3,-1
 241 0 l 1,0,-1
571 582 m 1,4,-1
 571 69 l 2,5,6
 571 -63 571 -63 516.5 -121 c 128,-1,7
 462 -179 462 -179 371 -179 c 1,8,-1
 271 -169 l 1,9,-1
 287 -43 l 1,10,11
 341 -51 341 -51 371 -51 c 128,-1,12
 401 -51 401 -51 408.5 -30.5 c 128,-1,13
 416 -10 416 -10 416 70 c 2,14,-1
 416 582 l 1,15,-1
 571 582 l 1,4,-1
249 657 m 1,16,-1
 74 657 l 1,17,-1
 74 761 l 1,18,-1
 249 761 l 1,19,-1
 249 657 l 1,16,-1
581 657 m 1,20,-1
 406 657 l 1,21,-1
 406 761 l 1,22,-1
 581 761 l 1,23,-1
 581 657 l 1,20,-1
EndSplineSet
EndChar

StartChar: Jcircumflex
Encoding: 308 308 200
Width: 363
GlyphClass: 2
Flags: W
LayerCount: 2
Fore
SplineSet
378 815 m 1,0,-1
 345 750 l 1,1,-1
 196 803 l 1,2,-1
 189 803 l 1,3,-1
 39 750 l 1,4,-1
 6 815 l 1,5,-1
 156 905 l 1,6,-1
 229 905 l 1,7,-1
 378 815 l 1,0,-1
280 703 m 1,8,-1
 280 247 l 2,9,10
 280 -13 280 -13 75 -13 c 0,11,12
 35 -13 35 -13 -21 -3 c 1,13,-1
 -6 130 l 1,14,15
 39 121 39 121 67 121 c 128,-1,16
 95 121 95 121 104 128 c 0,17,18
 123 144 123 144 123 245 c 2,19,-1
 123 703 l 1,20,-1
 280 703 l 1,8,-1
EndSplineSet
EndChar

StartChar: jcircumflex
Encoding: 309 309 201
Width: 346
GlyphClass: 2
Flags: W
LayerCount: 2
Fore
SplineSet
363 706 m 1,0,-1
 330 644 l 1,1,-1
 183 705 l 1,2,-1
 176 705 l 1,3,-1
 29 644 l 1,4,-1
 -4 706 l 1,5,-1
 143 807 l 1,6,-1
 216 807 l 1,7,-1
 363 706 l 1,0,-1
262 588 m 1,8,-1
 262 69 l 2,9,10
 262 -61 262 -61 207.5 -120 c 128,-1,11
 153 -179 153 -179 69 -179 c 0,12,13
 32 -179 32 -179 -38 -169 c 1,14,-1
 -22 -43 l 1,15,16
 32 -51 32 -51 62 -51 c 128,-1,17
 92 -51 92 -51 99.5 -30.5 c 128,-1,18
 107 -10 107 -10 107 70 c 2,19,-1
 107 588 l 1,20,-1
 262 588 l 1,8,-1
EndSplineSet
EndChar

StartChar: kcommaaccent
Encoding: 311 311 202
Width: 594
GlyphClass: 2
Flags: W
LayerCount: 2
Fore
SplineSet
243 -136 m 2,0,-1
 243 -55 l 1,1,-1
 373 -55 l 1,2,-1
 373 -88 l 2,3,4
 373 -224 373 -224 282 -295 c 1,5,-1
 215 -263 l 1,6,7
 243 -219 243 -219 243 -136 c 2,0,-1
223 761 m 1,8,-1
 223 319 l 1,9,-1
 414 588 l 1,10,-1
 601 588 l 1,11,-1
 379 319 l 1,12,-1
 379 314 l 1,13,-1
 625 0 l 1,14,-1
 435 0 l 1,15,-1
 223 308 l 1,16,-1
 223 0 l 1,17,-1
 68 0 l 1,18,-1
 72 321 l 1,19,-1
 68 761 l 1,20,-1
 223 761 l 1,8,-1
EndSplineSet
EndChar

StartChar: kgreenlandic
Encoding: 312 312 203
Width: 605
GlyphClass: 2
Flags: W
LayerCount: 2
Fore
SplineSet
234 0 m 1,0,-1
 79 0 l 1,1,-1
 83 321 l 1,2,-1
 79 588 l 1,3,-1
 182 588 l 1,4,-1
 234 476 l 1,5,-1
 234 319 l 1,6,-1
 425 588 l 1,7,-1
 612 588 l 1,8,-1
 390 319 l 1,9,-1
 390 314 l 1,10,-1
 636 0 l 1,11,-1
 446 0 l 1,12,-1
 234 308 l 1,13,-1
 234 0 l 1,0,-1
EndSplineSet
EndChar

StartChar: Ldotaccent
Encoding: 319 319 204
Width: 483
GlyphClass: 2
Flags: W
LayerCount: 2
Fore
SplineSet
83 0 m 1,0,-1
 83 703 l 1,1,-1
 240 703 l 1,2,-1
 235 135 l 1,3,-1
 494 137 l 1,4,-1
 494 0 l 1,5,-1
 83 0 l 1,0,-1
325 350 m 1,6,-1
 325 484 l 1,7,-1
 494 484 l 1,8,-1
 494 350 l 1,9,-1
 325 350 l 1,6,-1
EndSplineSet
EndChar

StartChar: ldot
Encoding: 320 320 205
Width: 471
GlyphClass: 2
Flags: W
LayerCount: 2
Fore
SplineSet
223 0 m 1,0,-1
 68 0 l 1,1,-1
 68 761 l 1,2,-1
 223 761 l 1,3,-1
 223 0 l 1,0,-1
305 340 m 1,4,-1
 305 484 l 1,5,-1
 468 484 l 1,6,-1
 468 340 l 1,7,-1
 305 340 l 1,4,-1
EndSplineSet
EndChar

StartChar: Lslash
Encoding: 321 321 206
Width: 485
GlyphClass: 2
Flags: W
LayerCount: 2
Fore
SplineSet
85 703 m 1,0,-1
 242 703 l 1,1,-1
 240 451 l 1,2,-1
 387 535 l 1,3,-1
 387 426 l 1,4,-1
 239 342 l 1,5,-1
 237 135 l 1,6,-1
 496 137 l 1,7,-1
 496 0 l 1,8,-1
 85 0 l 1,9,-1
 85 256 l 1,10,-1
 14 216 l 1,11,-1
 14 324 l 1,12,-1
 85 364 l 1,13,-1
 85 703 l 1,0,-1
EndSplineSet
EndChar

StartChar: lslash
Encoding: 322 322 207
Width: 365
GlyphClass: 2
Flags: W
LayerCount: 2
Fore
SplineSet
105 761 m 1,0,-1
 260 761 l 1,1,-1
 260 509 l 1,2,-1
 358 569 l 1,3,-1
 358 454 l 1,4,-1
 260 395 l 1,5,-1
 260 0 l 1,6,-1
 105 0 l 1,7,-1
 105 302 l 1,8,-1
 7 243 l 1,9,-1
 7 357 l 1,10,-1
 105 416 l 1,11,-1
 105 761 l 1,0,-1
EndSplineSet
EndChar

StartChar: Nacute
Encoding: 323 323 208
Width: 716
GlyphClass: 2
Flags: W
LayerCount: 2
Fore
SplineSet
83 703 m 1,0,-1
 279 703 l 1,1,-1
 496 204 l 1,2,-1
 502 204 l 1,3,-1
 490 703 l 1,4,-1
 635 703 l 1,5,-1
 635 0 l 1,6,-1
 439 0 l 1,7,-1
 222 499 l 1,8,-1
 216 499 l 1,9,-1
 228 0 l 1,10,-1
 83 0 l 1,11,-1
 83 703 l 1,0,-1
500 910 m 1,12,-1
 528 800 l 1,13,-1
 226 750 l 1,14,-1
 206 833 l 1,15,-1
 500 910 l 1,12,-1
EndSplineSet
EndChar

StartChar: nacute
Encoding: 324 324 209
Width: 632
GlyphClass: 2
Flags: W
LayerCount: 2
Fore
SplineSet
234 0 m 1,0,-1
 79 0 l 1,1,-1
 79 588 l 1,2,-1
 178 588 l 1,3,-1
 196 529 l 1,4,-1
 202 529 l 1,5,6
 324 601 324 601 413 601 c 128,-1,7
 502 601 502 601 534 545 c 128,-1,8
 566 489 566 489 566 385 c 2,9,-1
 566 0 l 1,10,-1
 411 0 l 1,11,-1
 411 356 l 2,12,13
 411 434 411 434 398 450 c 128,-1,14
 385 466 385 466 357 466 c 0,15,16
 295 466 295 466 234 424 c 1,17,-1
 234 0 l 1,0,-1
490 816 m 1,18,-1
 521 704 l 1,19,-1
 219 646 l 1,20,-1
 197 729 l 1,21,-1
 490 816 l 1,18,-1
EndSplineSet
EndChar

StartChar: OE
Encoding: 338 338 210
Width: 970
GlyphClass: 2
Flags: W
LayerCount: 2
Fore
SplineSet
502 0 m 1,0,-1
 502 25 l 1,1,-1
 498 25 l 1,2,3
 429 -13 429 -13 356.5 -13 c 128,-1,4
 284 -13 284 -13 233.5 3 c 128,-1,5
 183 19 183 19 140 58 c 0,6,7
 50 138 50 138 50 353 c 0,8,9
 50 595 50 595 174 673 c 0,10,11
 241 716 241 716 350 716 c 0,12,13
 430 716 430 716 498 679 c 1,14,-1
 502 679 l 1,15,-1
 502 703 l 1,16,-1
 924 703 l 1,17,-1
 924 567 l 1,18,-1
 658 570 l 1,19,-1
 654 422 l 1,20,-1
 899 422 l 1,21,-1
 899 290 l 1,22,-1
 654 290 l 1,23,-1
 658 132 l 1,24,-1
 924 134 l 1,25,-1
 924 0 l 1,26,-1
 502 0 l 1,0,-1
228 496.5 m 128,-1,28
 213 447 213 447 213 351.5 c 128,-1,29
 213 256 213 256 228.5 206 c 128,-1,30
 244 156 244 156 271.5 140.5 c 128,-1,31
 299 125 299 125 350 125 c 128,-1,32
 401 125 401 125 428 141 c 0,33,34
 487 175 487 175 487 351 c 0,35,36
 487 529 487 529 430 562 c 0,37,38
 402 578 402 578 350 578 c 128,-1,39
 298 578 298 578 270.5 562 c 128,-1,27
 243 546 243 546 228 496.5 c 128,-1,28
EndSplineSet
EndChar

StartChar: oe
Encoding: 339 339 211
Width: 966
GlyphClass: 2
Flags: W
LayerCount: 2
Fore
SplineSet
682 -13 m 0,0,1
 560 -13 560 -13 493 50 c 1,2,-1
 489 50 l 1,3,4
 428 -13 428 -13 307 -13 c 0,5,6
 167 -13 167 -13 107.5 65.5 c 128,-1,7
 48 144 48 144 48 294 c 128,-1,8
 48 444 48 444 107.5 522.5 c 128,-1,9
 167 601 167 601 307 601 c 0,10,11
 426 601 426 601 489 538 c 1,12,-1
 493 538 l 1,13,14
 560 601 560 601 680.5 601 c 128,-1,15
 801 601 801 601 862 536.5 c 128,-1,16
 923 472 923 472 923 323 c 2,17,-1
 923 240 l 1,18,-1
 571 240 l 1,19,-1
 571 236 l 1,20,21
 574 153 574 153 602 129 c 0,22,23
 623 110 623 110 661 110 c 0,24,25
 731 110 731 110 839 142 c 1,26,-1
 874 153 l 1,27,-1
 912 41 l 1,28,29
 867 20 867 20 800 3.5 c 128,-1,30
 733 -13 733 -13 682 -13 c 0,0,1
385.5 445.5 m 128,-1,32
 365 483 365 483 306.5 483 c 128,-1,33
 248 483 248 483 227 445 c 128,-1,34
 206 407 206 407 206 294 c 128,-1,35
 206 181 206 181 227 143 c 128,-1,36
 248 105 248 105 306.5 105 c 128,-1,37
 365 105 365 105 385.5 142.5 c 128,-1,38
 406 180 406 180 406 294 c 128,-1,31
 406 408 406 408 385.5 445.5 c 128,-1,32
747 457 m 1,39,40
 729 479 729 479 675 479 c 128,-1,41
 621 479 621 479 598 453 c 128,-1,42
 575 427 575 427 572 352 c 1,43,-1
 765 356 l 1,44,45
 763 435 763 435 747 457 c 1,39,40
EndSplineSet
EndChar

StartChar: Racute
Encoding: 340 340 212
Width: 695
GlyphClass: 2
Flags: W
LayerCount: 2
Fore
SplineSet
613 482 m 0,0,1
 613 323 613 323 470 272 c 1,2,-1
 470 266 l 1,3,-1
 641 0 l 1,4,-1
 459 0 l 1,5,-1
 330 250 l 1,6,-1
 240 252 l 1,7,-1
 240 0 l 1,8,-1
 83 0 l 1,9,-1
 87 326 l 1,10,-1
 83 702 l 1,11,12
 321 716 321 716 349 716 c 0,13,14
 613 716 613 716 613 482 c 0,0,1
240 382 m 1,15,16
 308 375 308 375 359.5 375 c 128,-1,17
 411 375 411 375 431 399.5 c 128,-1,18
 451 424 451 424 451 493.5 c 128,-1,19
 451 563 451 563 426 579 c 0,20,21
 408 591 408 591 346.5 591 c 128,-1,22
 285 591 285 591 240 585 c 1,23,-1
 240 382 l 1,15,16
469 910 m 1,24,-1
 497 800 l 1,25,-1
 195 750 l 1,26,-1
 175 833 l 1,27,-1
 469 910 l 1,24,-1
EndSplineSet
EndChar

StartChar: Rcommaaccent
Encoding: 342 342 213
Width: 695
GlyphClass: 2
Flags: W
LayerCount: 2
Fore
SplineSet
270 -136 m 2,0,-1
 270 -55 l 1,1,-1
 400 -55 l 1,2,-1
 400 -88 l 2,3,4
 400 -224 400 -224 309 -295 c 1,5,-1
 242 -263 l 1,6,7
 270 -219 270 -219 270 -136 c 2,0,-1
613 482 m 0,8,9
 613 323 613 323 470 272 c 1,10,-1
 470 266 l 1,11,-1
 641 0 l 1,12,-1
 459 0 l 1,13,-1
 330 250 l 1,14,-1
 240 252 l 1,15,-1
 240 0 l 1,16,-1
 83 0 l 1,17,-1
 87 326 l 1,18,-1
 83 702 l 1,19,20
 321 716 321 716 349 716 c 0,21,22
 613 716 613 716 613 482 c 0,8,9
240 382 m 1,23,24
 308 375 308 375 359.5 375 c 128,-1,25
 411 375 411 375 431 399.5 c 128,-1,26
 451 424 451 424 451 493.5 c 128,-1,27
 451 563 451 563 426 579 c 0,28,29
 408 591 408 591 346.5 591 c 128,-1,30
 285 591 285 591 240 585 c 1,31,-1
 240 382 l 1,23,24
EndSplineSet
EndChar

StartChar: rcommaaccent
Encoding: 343 343 214
Width: 430
GlyphClass: 2
Flags: W
LayerCount: 2
Fore
SplineSet
90 -136 m 2,0,-1
 90 -55 l 1,1,-1
 220 -55 l 1,2,-1
 220 -88 l 2,3,4
 220 -224 220 -224 129 -295 c 1,5,-1
 62 -263 l 1,6,7
 90 -219 90 -219 90 -136 c 2,0,-1
286.5 580 m 128,-1,9
 329 601 329 601 366.5 601 c 128,-1,10
 404 601 404 601 426 590 c 1,11,-1
 414 456 l 1,12,13
 386 459 386 459 359 459 c 0,14,15
 292 459 292 459 234 423 c 1,16,-1
 234 0 l 1,17,-1
 79 0 l 1,18,-1
 79 588 l 1,19,-1
 175 588 l 1,20,-1
 195 526 l 1,21,-1
 201 526 l 1,22,23
 211 534 211 534 227.5 546.5 c 128,-1,8
 244 559 244 559 286.5 580 c 128,-1,9
EndSplineSet
EndChar

StartChar: Rcaron
Encoding: 344 344 215
Width: 695
GlyphClass: 2
Flags: W
LayerCount: 2
Fore
SplineSet
613 482 m 0,0,1
 613 323 613 323 470 272 c 1,2,-1
 470 266 l 1,3,-1
 641 0 l 1,4,-1
 459 0 l 1,5,-1
 330 250 l 1,6,-1
 240 252 l 1,7,-1
 240 0 l 1,8,-1
 83 0 l 1,9,-1
 87 326 l 1,10,-1
 83 702 l 1,11,12
 321 716 321 716 349 716 c 0,13,14
 613 716 613 716 613 482 c 0,0,1
240 382 m 1,15,16
 308 375 308 375 359.5 375 c 128,-1,17
 411 375 411 375 431 399.5 c 128,-1,18
 451 424 451 424 451 493.5 c 128,-1,19
 451 563 451 563 426 579 c 0,20,21
 408 591 408 591 346.5 591 c 128,-1,22
 285 591 285 591 240 585 c 1,23,-1
 240 382 l 1,15,16
123 854 m 1,24,-1
 156 915 l 1,25,-1
 323 856 l 1,26,-1
 330 856 l 1,27,-1
 497 915 l 1,28,-1
 530 854 l 1,29,-1
 363 754 l 1,30,-1
 290 754 l 1,31,-1
 123 854 l 1,24,-1
EndSplineSet
EndChar

StartChar: rcaron
Encoding: 345 345 216
Width: 430
GlyphClass: 2
Flags: W
LayerCount: 2
Fore
SplineSet
39 763 m 1,0,-1
 72 824 l 1,1,-1
 239 760 l 1,2,-1
 246 760 l 1,3,-1
 413 824 l 1,4,-1
 446 763 l 1,5,-1
 279 658 l 1,6,-1
 206 658 l 1,7,-1
 39 763 l 1,0,-1
286.5 580 m 128,-1,9
 329 601 329 601 366.5 601 c 128,-1,10
 404 601 404 601 426 590 c 1,11,-1
 414 456 l 1,12,13
 386 459 386 459 359 459 c 0,14,15
 292 459 292 459 234 423 c 1,16,-1
 234 0 l 1,17,-1
 79 0 l 1,18,-1
 79 588 l 1,19,-1
 175 588 l 1,20,-1
 195 526 l 1,21,-1
 201 526 l 1,22,23
 211 534 211 534 227.5 546.5 c 128,-1,8
 244 559 244 559 286.5 580 c 128,-1,9
EndSplineSet
EndChar

StartChar: dotlessj
Encoding: 567 567 217
Width: 346
GlyphClass: 2
Flags: W
LayerCount: 2
Fore
SplineSet
262 588 m 1,0,-1
 262 69 l 2,1,2
 262 -61 262 -61 207.5 -120 c 128,-1,3
 153 -179 153 -179 69 -179 c 0,4,5
 32 -179 32 -179 -38 -169 c 1,6,-1
 -22 -43 l 1,7,8
 32 -51 32 -51 62 -51 c 128,-1,9
 92 -51 92 -51 99.5 -30.5 c 128,-1,10
 107 -10 107 -10 107 70 c 2,11,-1
 107 588 l 1,12,-1
 262 588 l 1,0,-1
EndSplineSet
EndChar

StartChar: circumflex
Encoding: 710 710 218
Width: 571
GlyphClass: 2
Flags: W
LayerCount: 2
Fore
SplineSet
490 702 m 1,0,-1
 457 641 l 1,1,-1
 290 705 l 1,2,-1
 283 705 l 1,3,-1
 116 641 l 1,4,-1
 83 702 l 1,5,-1
 250 807 l 1,6,-1
 323 807 l 1,7,-1
 490 702 l 1,0,-1
EndSplineSet
EndChar

StartChar: caron
Encoding: 711 711 219
Width: 191
GlyphClass: 2
Flags: W
LayerCount: 2
Fore
SplineSet
-107 763 m 1,0,-1
 -74 824 l 1,1,-1
 93 760 l 1,2,-1
 100 760 l 1,3,-1
 267 824 l 1,4,-1
 300 763 l 1,5,-1
 133 658 l 1,6,-1
 60 658 l 1,7,-1
 -107 763 l 1,0,-1
EndSplineSet
EndChar

StartChar: ring
Encoding: 730 730 220
Width: 158
GlyphClass: 2
Flags: W
LayerCount: 2
Fore
SplineSet
78 830 m 0,0,1
 183 830 183 830 183 733 c 0,2,3
 183 681 183 681 153 659 c 128,-1,4
 123 637 123 637 78 637 c 128,-1,5
 33 637 33 637 2.5 659 c 128,-1,6
 -28 681 -28 681 -28 733.5 c 128,-1,7
 -28 786 -28 786 2.5 808 c 128,-1,8
 33 830 33 830 78 830 c 0,0,1
78 771 m 128,-1,10
 55 771 55 771 45.5 763.5 c 128,-1,11
 36 756 36 756 36 733.5 c 128,-1,12
 36 711 36 711 46 702.5 c 128,-1,13
 56 694 56 694 78 694 c 128,-1,14
 100 694 100 694 109.5 702.5 c 128,-1,15
 119 711 119 711 119 733.5 c 128,-1,16
 119 756 119 756 110 763.5 c 128,-1,9
 101 771 101 771 78 771 c 128,-1,10
EndSplineSet
EndChar

StartChar: tilde
Encoding: 732 732 221
Width: 553
GlyphClass: 2
Flags: W
LayerCount: 2
Fore
SplineSet
170 798 m 0,0,1
 204 798 204 798 284 776.5 c 128,-1,2
 364 755 364 755 372.5 755 c 128,-1,3
 381 755 381 755 389 765 c 128,-1,4
 397 775 397 775 405 795 c 1,5,-1
 480 783 l 1,6,7
 477 656 477 656 385 656 c 0,8,9
 352 656 352 656 271 678.5 c 128,-1,10
 190 701 190 701 182 701 c 0,11,12
 167 701 167 701 154 670 c 1,13,-1
 149 660 l 1,14,-1
 73 670 l 1,15,16
 76 798 76 798 170 798 c 0,0,1
EndSplineSet
EndChar

StartChar: dotaccentcmb
Encoding: 775 775 222
Width: 244
GlyphClass: 2
Flags: W
LayerCount: 2
Fore
SplineSet
195 668 m 1,0,-1
 48 668 l 1,1,-1
 48 776 l 1,2,-1
 195 776 l 1,3,-1
 195 668 l 1,0,-1
EndSplineSet
EndChar

StartChar: endash
Encoding: 8211 8211 223
Width: 594
GlyphClass: 2
Flags: W
LayerCount: 2
Fore
SplineSet
566 393 m 1,0,-1
 566 261 l 1,1,-1
 28 261 l 1,2,-1
 29 393 l 1,3,-1
 566 393 l 1,0,-1
EndSplineSet
EndChar

StartChar: emdash
Encoding: 8212 8212 224
Width: 842
GlyphClass: 2
Flags: W
LayerCount: 2
Fore
SplineSet
48 261 m 1,0,-1
 48 393 l 1,1,-1
 794 393 l 1,2,-1
 794 261 l 1,3,-1
 48 261 l 1,0,-1
EndSplineSet
EndChar

StartChar: quoteleft
Encoding: 8216 8216 225
Width: 235
GlyphClass: 2
Flags: W
LayerCount: 2
Fore
SplineSet
44 520 m 0,0,1
 44 663 44 663 120 746 c 1,2,-1
 198 700 l 1,3,4
 174 652 174 652 174 568 c 1,5,-1
 180 445 l 1,6,-1
 49 445 l 1,7,8
 44 484 44 484 44 520 c 0,0,1
EndSplineSet
EndChar

StartChar: quoteright
Encoding: 8217 8217 226
Width: 235
GlyphClass: 2
Flags: W
LayerCount: 2
Fore
SplineSet
198 657 m 0,0,1
 198 514 198 514 122 431 c 1,2,-1
 44 477 l 1,3,4
 68 525 68 525 68 609 c 1,5,-1
 62 732 l 1,6,-1
 193 732 l 1,7,8
 198 693 198 693 198 657 c 0,0,1
EndSplineSet
EndChar

StartChar: quotesinglbase
Encoding: 8218 8218 227
Width: 239
GlyphClass: 2
Flags: W
LayerCount: 2
Fore
SplineSet
195 57 m 0,0,1
 195 -21 195 -21 174 -78.5 c 128,-1,2
 153 -136 153 -136 121 -167 c 1,3,-1
 44 -121 l 1,4,5
 68 -76 68 -76 68 9 c 1,6,-1
 62 132 l 1,7,-1
 190 132 l 1,8,9
 195 93 195 93 195 57 c 0,0,1
EndSplineSet
EndChar

StartChar: quotedblleft
Encoding: 8220 8220 228
Width: 456
GlyphClass: 2
Flags: W
LayerCount: 2
Fore
SplineSet
265 516 m 0,0,1
 265 646 265 646 346 731 c 1,2,-1
 418 692 l 1,3,4
 395 649 395 649 395 564 c 1,5,-1
 401 446 l 1,6,-1
 269 446 l 1,7,8
 265 480 265 480 265 516 c 0,0,1
37 521 m 0,9,10
 37 598 37 598 59 657 c 128,-1,11
 81 716 81 716 111 749 c 1,12,-1
 191 707 l 1,13,14
 167 659 167 659 167 569 c 1,15,-1
 173 446 l 1,16,-1
 42 446 l 1,17,18
 37 485 37 485 37 521 c 0,9,10
EndSplineSet
EndChar

StartChar: quotedblright
Encoding: 8221 8221 229
Width: 456
GlyphClass: 2
Flags: W
LayerCount: 2
Fore
SplineSet
191 662 m 0,0,1
 191 532 191 532 110 447 c 1,2,-1
 38 486 l 1,3,4
 61 529 61 529 61 614 c 1,5,-1
 55 732 l 1,6,-1
 187 732 l 1,7,8
 191 698 191 698 191 662 c 0,0,1
419 657 m 0,9,10
 419 580 419 580 397 521 c 128,-1,11
 375 462 375 462 345 429 c 1,12,-1
 265 471 l 1,13,14
 289 519 289 519 289 609 c 1,15,-1
 283 732 l 1,16,-1
 414 732 l 1,17,18
 419 693 419 693 419 657 c 0,9,10
EndSplineSet
EndChar

StartChar: quotedblbase
Encoding: 8222 8222 230
Width: 494
GlyphClass: 2
Flags: W
LayerCount: 2
Fore
SplineSet
191 57 m 0,0,1
 191 -20 191 -20 169.5 -78 c 128,-1,2
 148 -136 148 -136 116 -167 c 1,3,-1
 40 -124 l 1,4,5
 64 -79 64 -79 64 6 c 1,6,-1
 58 132 l 1,7,-1
 186 132 l 1,8,9
 191 93 191 93 191 57 c 0,0,1
421 53 m 0,10,11
 421 -25 421 -25 400 -82.5 c 128,-1,12
 379 -140 379 -140 347 -171 c 1,13,-1
 270 -125 l 1,14,15
 294 -80 294 -80 294 5 c 1,16,-1
 289 132 l 1,17,-1
 417 132 l 1,18,19
 421 89 421 89 421 53 c 0,10,11
EndSplineSet
EndChar

StartChar: bullet
Encoding: 8226 8226 231
Width: 406
GlyphClass: 2
Flags: W
LayerCount: 2
Fore
SplineSet
93 532.5 m 128,-1,1
 138 570 138 570 203.5 570 c 128,-1,2
 269 570 269 570 313.5 532 c 128,-1,3
 358 494 358 494 358 412.5 c 128,-1,4
 358 331 358 331 314 292.5 c 128,-1,5
 270 254 270 254 204 254 c 128,-1,6
 138 254 138 254 93 292.5 c 128,-1,7
 48 331 48 331 48 413 c 128,-1,0
 48 495 48 495 93 532.5 c 128,-1,1
EndSplineSet
EndChar

StartChar: guilsinglleft
Encoding: 8249 8249 232
Width: 312
GlyphClass: 2
Flags: W
LayerCount: 2
Fore
SplineSet
295 148 m 1,0,-1
 177 78 l 1,1,-1
 18 345 l 1,2,-1
 177 612 l 1,3,-1
 295 542 l 1,4,-1
 172 348 l 1,5,-1
 172 342 l 1,6,-1
 295 148 l 1,0,-1
EndSplineSet
EndChar

StartChar: guilsinglright
Encoding: 8250 8250 233
Width: 312
GlyphClass: 2
Flags: W
LayerCount: 2
Fore
SplineSet
135 78 m 1,0,-1
 17 148 l 1,1,-1
 140 342 l 1,2,-1
 140 348 l 1,3,-1
 17 542 l 1,4,-1
 135 612 l 1,5,-1
 294 345 l 1,6,-1
 135 78 l 1,0,-1
EndSplineSet
EndChar

StartChar: Euro
Encoding: 8364 8364 234
Width: 618
GlyphClass: 2
Flags: W
LayerCount: 2
Fore
SplineSet
24 226 m 1,0,-1
 24 324 l 1,1,-1
 522 324 l 1,2,-1
 522 226 l 1,3,-1
 255 226 l 1,4,5
 268 156 268 156 294 139 c 1,6,7
 317 121 317 121 364 121 c 0,8,9
 451 121 451 121 565 150 c 1,10,-1
 602 36 l 1,11,12
 592 31 592 31 573.5 22.5 c 128,-1,13
 555 14 555 14 493.5 0.5 c 128,-1,14
 432 -13 432 -13 365 -13 c 0,15,16
 134 -13 134 -13 91 226 c 1,17,-1
 24 226 l 1,0,-1
24 389 m 1,18,-1
 24 487 l 1,19,-1
 92 487 l 1,20,21
 118 621 118 621 198 672 c 1,22,23
 270 716 270 716 382 716 c 0,24,25
 421 716 421 716 484.5 708.5 c 128,-1,26
 548 701 548 701 586 691 c 1,27,-1
 569 564 l 1,28,29
 454 578 454 578 383 578 c 128,-1,30
 312 578 312 578 289 559.5 c 128,-1,31
 266 541 266 541 255 487 c 1,32,-1
 522 487 l 1,33,-1
 522 389 l 1,34,-1
 24 389 l 1,18,-1
EndSplineSet
EndChar

StartChar: commaaccent
Encoding: 65540 -1 236
Width: 278
GlyphClass: 2
Flags: W
LayerCount: 2
Fore
SplineSet
76 -136 m 2,0,-1
 76 -55 l 1,1,-1
 206 -55 l 1,2,-1
 206 -88 l 2,3,4
 206 -224 206 -224 115 -295 c 1,5,-1
 48 -263 l 1,6,7
 76 -219 76 -219 76 -136 c 2,0,-1
EndSplineSet
EndChar

StartChar: dieresis.cap
Encoding: 65541 -1 237
Width: 492
GlyphClass: 2
Flags: W
LayerCount: 2
Fore
SplineSet
193 766 m 1,0,-1
 46 766 l 1,1,-1
 46 874 l 1,2,-1
 193 874 l 1,3,-1
 193 766 l 1,0,-1
438 766 m 1,4,-1
 291 766 l 1,5,-1
 291 874 l 1,6,-1
 438 874 l 1,7,-1
 438 766 l 1,4,-1
EndSplineSet
EndChar

StartChar: dotaccentcmb.cap
Encoding: 65542 -1 238
Width: 371
GlyphClass: 2
Flags: W
LayerCount: 2
Fore
SplineSet
262 746 m 1,0,-1
 115 746 l 1,1,-1
 115 854 l 1,2,-1
 262 854 l 1,3,-1
 262 746 l 1,0,-1
EndSplineSet
EndChar

StartChar: grave.cap
Encoding: 65543 -1 239
Width: 482
GlyphClass: 2
Flags: W
LayerCount: 2
Fore
SplineSet
97 799 m 1,0,-1
 122 909 l 1,1,-1
 421 835 l 1,2,-1
 404 752 l 1,3,-1
 97 799 l 1,0,-1
EndSplineSet
EndChar

StartChar: acute.cap
Encoding: 65544 -1 240
Width: 491
GlyphClass: 2
Flags: W
LayerCount: 2
Fore
SplineSet
428 910 m 1,0,-1
 456 800 l 1,1,-1
 154 750 l 1,2,-1
 134 833 l 1,3,-1
 428 910 l 1,0,-1
EndSplineSet
EndChar

StartChar: circumflex.cap
Encoding: 65545 -1 241
Width: 356
GlyphClass: 2
Flags: W
LayerCount: 2
Fore
SplineSet
381 805 m 1,0,-1
 348 744 l 1,1,-1
 181 803 l 1,2,-1
 174 803 l 1,3,-1
 7 744 l 1,4,-1
 -26 805 l 1,5,-1
 141 905 l 1,6,-1
 214 905 l 1,7,-1
 381 805 l 1,0,-1
EndSplineSet
EndChar

StartChar: ring.cap
Encoding: 65546 -1 242
Width: 272
GlyphClass: 2
Flags: W
LayerCount: 2
Fore
SplineSet
137 922 m 0,0,1
 243 922 243 922 243 827 c 0,2,3
 243 777 243 777 213 755 c 128,-1,4
 183 733 183 733 137.5 733 c 128,-1,5
 92 733 92 733 61 755 c 128,-1,6
 30 777 30 777 30 827.5 c 128,-1,7
 30 878 30 878 60.5 900 c 128,-1,8
 91 922 91 922 137 922 c 0,0,1
137 857 m 128,-1,10
 117 857 117 857 109 851 c 128,-1,11
 101 845 101 845 101 827.5 c 128,-1,12
 101 810 101 810 109.5 803.5 c 128,-1,13
 118 797 118 797 137 797 c 128,-1,14
 156 797 156 797 164 803.5 c 128,-1,15
 172 810 172 810 172 827.5 c 128,-1,16
 172 845 172 845 164.5 851 c 128,-1,9
 157 857 157 857 137 857 c 128,-1,10
EndSplineSet
EndChar

StartChar: caron.cap
Encoding: 65547 -1 243
Width: 390
GlyphClass: 2
Flags: W
LayerCount: 2
Fore
SplineSet
-8 854 m 1,0,-1
 25 915 l 1,1,-1
 192 856 l 1,2,-1
 199 856 l 1,3,-1
 366 915 l 1,4,-1
 399 854 l 1,5,-1
 232 754 l 1,6,-1
 159 754 l 1,7,-1
 -8 854 l 1,0,-1
EndSplineSet
EndChar

StartChar: tilde.cap
Encoding: 65548 -1 244
Width: 503
GlyphClass: 2
Flags: W
LayerCount: 2
Fore
SplineSet
142 886 m 0,0,1
 176 886 176 886 256 864.5 c 128,-1,2
 336 843 336 843 344.5 843 c 128,-1,3
 353 843 353 843 361 853 c 128,-1,4
 369 863 369 863 377 883 c 1,5,-1
 452 871 l 1,6,7
 449 746 449 746 357 746 c 0,8,9
 324 746 324 746 243 768.5 c 128,-1,10
 162 791 162 791 154 791 c 0,11,12
 139 791 139 791 126 760 c 1,13,-1
 121 750 l 1,14,-1
 45 760 l 1,15,16
 48 886 48 886 142 886 c 0,0,1
EndSplineSet
EndChar
